<mxfile host="app.diagrams.net" modified="2023-09-28T20:02:23.362Z" agent="Mozilla/5.0 (Windows NT 10.0; Win64; x64) AppleWebKit/537.36 (KHTML, like Gecko) Chrome/117.0.0.0 Safari/537.36" etag="S4qS4TB98tQW6V1ku2h8" version="22.0.0" type="device">
  <diagram name="PÃ¡gina-1" id="SqjNITzCR2a8h123c19_">
    <mxGraphModel dx="2514" dy="941" grid="1" gridSize="10" guides="1" tooltips="1" connect="1" arrows="1" fold="1" page="1" pageScale="1" pageWidth="827" pageHeight="1169" math="0" shadow="0">
      <root>
        <mxCell id="0" />
        <mxCell id="1" parent="0" />
        <mxCell id="8LvbPipiS-1qL5X_mn82-1" value="" style="shape=image;verticalLabelPosition=bottom;labelBackgroundColor=default;verticalAlign=top;aspect=fixed;imageAspect=0;image=data:image/jpeg,/9j/4AAQSkZJRgABAQAAAQABAAD/2wBDAAMCAgICAgMCAgIDAwMDBAYEBAQEBAgGBgUGCQgKCgkICQkKDA8MCgsOCwkJDRENDg8QEBEQCgwSExIQEw8QEBD/2wBDAQMDAwQDBAgEBAgQCwkLEBAQEBAQEBAQEBAQEBAQEBAQEBAQEBAQEBAQEBAQEBAQEBAQEBAQEBAQEBAQEBAQEBD/wAARCALQBQADASIAAhEBAxEB/8QAHgABAAICAwEBAQAAAAAAAAAAAAUGBAcBAwgCCQr/xAByEAAABQMBAwYICAgHCQoMAA8AAQIDBAUGEQcSEyEUFTFVkpMIFiJBVJTS4TI1UVJhc7HRFyMzU2VxdME0QkOBgpHiGCQ2RFaho7LTCWJjcoOVpLPC8CUmNzhFRldkdXaipbR3wxmX1GZnhpa11ePk8f/EABsBAQEBAAMBAQAAAAAAAAAAAAABAgMEBQYH/8QAQBEBAAIBAgMFBwMCBAQGAgMAAAERAgMhBBIxBUFRofBhcYGRscHRBhMiMuEUQqLxFYLC0iNSYpKy4nKTBzOD/9oADAMBAAIRAxEAPwD9DtStYYVjzG6DTKY5Vq0+klpjNmZJbI+g1YIzMz6SSRdHnLgKpQPCLmM1dql39a6qSh/Z2X0JWjdkZ4JSkL4mn6SPzdBjXGoUaZB1tlOVdxLKVVNmSl15WyjcZSaTyfDBJLH82BXbqcgPxYvNrrCW4zrzbrBP7xW9UvJuJP8AjNqSScY4EZGX0n9lw3ZHC5aWGOWN80RN79/h/t73yPEdqcTjq55Y5VGM1Xu9eL2NXbntq16Ou4bmuGmUilNbG3Ony248dO2ZEnLizJJZMyIuPEzIYhX7YyrW8ek3pQjtsk7fPBVFnkOzt7Gd/tbvG35Pwunh0jT+s8KvMaDWTAjyWIdXRctnttuzIyn22nedYmDcaSttSyI+lJLSZ9GSFJai23Tnq7LvTU22rD1GoF+uV5a6yTKKNKmO03k8d1qO46hRsPRCNZYd3qHkveWo21bXx2URjOcX0mY99cv/AHeXfe31uMzljjlXWImvfzfjzep6NW6NcdLj1u3qvCqlOlp248yFIQ+w8nJllC0GaVFkjLJH5hmjxI3qJeEq6Ln1Pp1eftqvzdMnnqPRobcR6DU5cOdUSefgk7H30lk8JmJMj2jTIQpe0lRENh3b4Q8io3JXisTUSmu2cy/bEaTcMAo8qPRI8tdQKXLJ00qbM8sR2zU7tttGraUngoj1ONRE+M1/qnGPozzfynHw/wC2Mp+XT5eL0G1dVtP1N6itV6AdQjyyguReUJJ1Mg2CkbrZzk17lSXNkuOwe10cRKjxxQb1rNLvS4KrZNdav6Q/f0nkkx6JFUuqKaslLrKW3GmkoQanGm0b1gkEpOS+CoyPZukGo9WuO7qDCg6s+PLdVob0244JRYaCt6YndGhvEdpDkfaU483uZKnHPxWSMjQ4asY74xPsifnH9m8qxmvXd+W+gAAAAAAAAAAAAAAAAAAAAAAAAAAAAAAAAAAAAAAAAAAAAAAAAAAAAAAAAAAAAAAAAAAAAAAAAAAAAAAAAAAAAAAAAAAAAAAAAAAAAAAAAAAAAAAAAAAAAAAAAAAAAAAAAAAAAAAAAAAAAAAAAAAAAAAAAAAAAAAAAAAAAAAAAAAAAAAAAAAAAAAAAAAAAAAAAAAAAAAAAAAAAAAAAAAAAAAAAAAAAAAAAAAAYFZh1SbDJmkVjm1/bJRvcnS9lPHKdlXD5OP0CHj0C9m5DTki/wDfNIWlS2+amU7aSPinJHkslwyAs4AAAAAAr9433blhxoEm4nKh/wCFJnIIbMClyqg++/uXHthLMZtxw8NsurM9nBEg8mI639V7SuWtM29Bj3NFmyG3HWU1S1apTW3EoxtEl2VHbQaiIyPZJWcZMi4GNYX5+AL8Pte/Dj+D/wDwPoHNfjXyL02r77ccp/5La2f95nzD40rZsKXq5OPRW37fXZ8DD8qqWy7TypiJa4pI3JpYc2zfMtlRmTZp2cZVnBAPQYAAAAAAjEXHRF3C5anL0JqzcUpvJVpUhS2DVsm4gzIicSSsEo0meyakkrG0WTVyUZ+4XrWYmG7U40Ypb7SGlqSy2oyJO8WRbCFK6UoUZKURKMiMkmZUjVAlXVVabZdqtLK6YbrVSbqqDUhNCZ2yI3lrIsKU4klITHPg8W0SsIJSi+tIFxrejyNP63FKLdsUjm1N9aiUquKMkJXUm19LiVnspUR8Wj2W8EkmzUGyAAAFUvrTS19QGG01uMtEhksNSmFEl1BfNyZGRl9BkK7a3g/WPbNTbqy1TKk8wrbaTLUk20KLoVspIsmX05IbNFVvHU20rEqNMpFeXV3J1YbkPQ41Moc6puuNsbsnVmiIy4aEpN5ssqIi8osZHaw4/iNLT/axzmMfC3Wy4LQ1dT93LCJy8VqAVV3Um226/S7b2KlyyrVFyls7yA6ylL6IKpp5N1KdpO5T8JG0RLyg8KSok2odV2LsAABQBWLy1Gtaw36bFuBdVXJrC3W4Uem0WbUnnTbTtLPdxGnFERJ4mZkRfSMi4b1o9tWiu9ai1NKnobZdNBxVtvkTq0pSRtObKkKysspURGXHJZLACfAQ8O7aBNl8gbmrakqmv09tqSw5HU8+ynbcJonEp3iSTk9tGUmRHgzwYmAAAGLVKpTaJTZVYrE5iFBhMrkSZL7hIbZbSWVLUo+BEREZmYDKAVq19Q7cvCbIgUZiuocjNk6a59vz4DLiDPG007JZbQ6WfmKVwMj6DIxZQ9oAIKzbxpN80h6t0VMhMdioz6Won0ElW+hynYzuCIz8neMrwfnLB4LoE6LMVtIAAjbluKj2hbtTuu4JKo1Lo8R2dNeSyt02mGkGtathslLVhJGeEkZnjgQnRYiZmoSQCs13Uizbcj0yTUqs4tFZjvyqeUOG/MXJZZjnIcWhDCFqMibTkuHlGaUpypSUnZG3EutodRnZWklFlJkeD+Uj4l/OLMTHVmJid4fQAAigAIu6LmolmW3U7tuSYcSlUeI7Nmvk0t02mW0mpathslLVgiPgkjM/MRgJQBr1Gu+nzy4bEd2sFJl1iFRDiS6PKgSWX5RLNhbjMtDThNKJteHCSZGaVEWTI8X6RIYiR3ZUl1LTLKFOOLUeEpSRZMzP5CIJ2i56f2ifpMEbzUet5j6xLsAY1OqMGr0+LVqXLalQ5rKJEd9pRKQ60tJKStJl0kZGRkf0jJFmJiakib3gABgV6vUi2KRKr1enIhwIaNt55ZGZJLJEREREZqMzMiJJEZmZkREZngSZreRngIW1rvpF4w3p1Ij1hhth3crRVKNMpru1skrg3KabWpOFF5REaeks5IxNAADBqdagUdcFudyjaqMpMJjcxXXi3qkqUW2baTJtOEH5a8JI8EZ5MiPOAAAAAAFLvrWKwdN6lEpF21Gosy5kKTUkIh0WbOJESOptLz7qozLiWW0G83lThpLys9BHiXBS6AOmJLi1CIzPgyG5EaS2l5l1tRKQ4hRZSpJlwMjIyMjFea1Dt1+4oFsMpnnMqLtQYaNyE4yglwzQT3FwkmpP4xOytJKQriZGZcRZipqSJuLjos4CBYvSjyL6maetpkc6QaVHrDpmgt1uHnXWkESs5NW0wvJY6MceIng7r9eH1Ok168foAAqd46oWhYlVpdCrzlYcqNZZkyYUWl0KfU3XGo5tE8s0xGXDQlJvtFlWM7ZYzxxJmIWImei2AIu2rmoN4Udmv23Ump0F81oS6gjI0rQo0rQtKiJSFpUlSVIURKSojIyIyMhxT7kp1Sr1Wt2Ol4pdGKOqSakkSD3yTUjZPPHgk88CFmK2lIm+iVAAAAAAABXr4v619OqSxWrrlS2Y0qaxTmExKfJmvPSXlbLbaGY7a3FGo+HBJ/SO+0rxt2+aSdatmcuTGQ+5FdS7HdjvMPtnhbTrLqUuNOJPpQtJKL5Aje67v7fmPnBO3X16qfkmgHVKksQoz0yU6ltlhtTri1dCUpLJmf6iIa8ha8WhMtaJdy6XXosKedKXE38HBvx6lLTFhvpWSjb2VqWlZoNZOoQZGttBmRGjfb1v0+f58FqWyAAAQABWtQNRLX0wt5+67xcqbNKioW7IkQqPMqG4bQg1rccTFacUhBJSZmtREkvlDoRF9FlARNr3RS7wpDdco7VTbiumZIKoUuVT3Tx591JbbcweeB7OD8xmJYWYmNpSJiYuABD2jdVMvSgR7jo6X0xJLjzaCeQSV5adW0rJEZ/xkKxx6MCYEUABGXLclFs+36hdNxzeSUulR1ypb+7W5u2kFlStlBGo8F5iIzA6JMBGSrkosK4afasqbsVSqxpMuIxu1nvGo5tE8raItktk32uBmRntcM4PGHdt60ezDopVhMhXPtXj0WLuUErEh7a2DVkywnyTyfH9QRvMRHfNfGdvqTtEz4b/AAjqnwAAAAAAAAAAAAAAAAAAAAAAAAAAAAAAAAAAAAAAAAAAAAAAAAAAAAAAAAAAAAAAAAAAAAAAAAAAAAAAAAAAAAAAAAAAAAAAAAAAAAAAAAAAAAAAAAAAAAAAAAAAAAAAAAAAAAAAAAAAAAAAAAAAAAAAAAAAAAGqdSbMue59XrFn0O4K9b8Wn0eutyqnSo8Rw0LccgbtlZymHmyJe7WZeSSj3Z4Pgedn8tjfPPsH9wctjfPPsH9wk43RGVPOFy2vq7M1Bq06gRakqTGu+oyKDMmoUqNHQu0Nwy6WfJSyc1SkngiTtmrhkzEx4M9v31Amy6nc9z1pxKaLBgTqVULan04kVFCnDcf38uW+mS6ZGaXHI/4pf4syUrBY3vy2N88+wf3By2N88+wf3C4Xh8oj5RMed7+2InuTKsvnf0/HnPi7wHRy2N88+wf3By2N88+wf3AXDUOu8Wpou+wK5Fql4UmHT3qkmVUbYoR1WSxvI6UoSpnksrCFGRltbrhgvKLz691SpdduRq6qfULavy4KlUZNBlWnJYgTGGipyCim/v8AZJthh1LyZbjzTqW1rSpCUoV5KC9QctjfPPsH9wctjfPPsH9wRFTfr169qzNxTzrT7XrqL9pty3pb1xTGIepFbKI9yeVJOPCeimmK4SG9o0x94RFt42E5yoyTkx6RHRy2N88+wf3By2N88+wf3CxtjGPhER8oiPnNbp/myy8ZmfnMy7xR9aLbrd16eTqXbsc5U9mXT6i3EJxLfLExZrMlcbaWZILeoZU3lRkny/KMiyLjy2N88+wf3By2N88+wf3CTFrGVTbTl/3zVL7tyPHtO1r7jxKdU6dMuWO5Q5tOlOU4nfx8eOpaUKfWRpSpaY5ubbaVpSajcQlVUaiV6LJ56l2/fS9Mn7rcksUwo89yoNRTp6W0uLhpM5hRTmk6smDQaiNaFm2lsuHo7lsb559g/uDlsb559g/uCIr539PLbbw3neSZv163338do6PF1OsnVenWtRKbu7lti1XnrySlhy36nWJ0aZKrbzsN51qFKakJWcZW008o1oSZq2jSa0GfsS14dVp1s0mn12qLqdSjQWGZk1xlLKpL6W0kt020qUSDUojUaSUZFnBGfSM3lsb559g/uDlsb559g/uGr2mPH+/5r3RHgzO+XN7/AD9fXxd465EdiXHdiSmUPMvIU242tJKStJlg0mR9JGR4wPjlsb559g/uDlsb559g/uGZi4qWomt4eUIGnmqCLH1FjO0Ksw5mn1mVax7EJjaJ6Yle9cRLjKSe0pSmG6Y0SiwZOMvEQlE2nq3V9XX41w3ZWKW0uuQJdLONbVRktvUdENkn4yp7ctMOOlZlKS4h5rebattBKUbRj03y2N88+wf3By2N88+wf3Cx3X63u/jPX2TMJM30nx86ivhEfPfq8oUu2NeOV0hqSm690641p3K30l00qp8V9lxVaWZH5C3G25iCd6VG61x4kPWw6OWxvnn2D+4OWxvnn2D+4N6qfXqbn4+42vb16io+DvGv/CCo9VuHQ2/aFQoL82oz7enR4sdhs1uOuqZUSUpSXEzMzLBC88tjfPPsH9wctjfPPsH9wFtIah6V1xFYte6Y8ioXBWpV40FyoSCjJSiJAhpkbBE22WEtoVIdUpRmZmbp5PBJIqzbFs3fcEWg2+/Q7rZuJmk1aJfsiplMagznnY60pJl109zI25e7caUwaiaZStJm0SibV6V5bG+efYP7g5bG+efYP7hjLDnwywnpN+eMY/ZcJjDLHKOsV5TM/d5Ys+m16jRtKE0G27sfdiUaj0uo25U6HVYseItt4yky2ppbLEZ5pRLW4h8lpkNtNJaMiURr9XDo5bG+efYP7g5bG+efYP7hy55znM5T3zM/NnGIxiIjuiI+TvFX1MiW9Psaqw7qo9VqlKeQ2iRHpTD70zBuJw4ymP8AjtttWHCNvy07G0niRCw8tjfPPsH9wctjfPPsH9w48seaJhqJiJt5frSNZp1q0tDVZumo2nSLoJKalWbXlu1adS+RGSFTKdEciSn0NzFbOUtoWokIcW2tKVOLyqRRL6tu47Ba5dct7PuNw48tidQarTmYsPlL7qZbUpTq2ozrLS0Jdjy1LdkJYbRlK1YV6W5bG+efYP7g5bG+efYP7hq5878q9d/xqYzUeVed+XrbZ5btGBqUp62YVKgXTKgQbvpLkiuzqfUabLnReSTd+mdFkqMzNpZsbyQ3hl5TqSSkt3gupdK1IlWY1CodGvaNe9Ptivs3hKfTNQxNmuQnUtFFccPdSVrmbpxhUc1bppKk5a2iQr1Ty2N88+wf3By2N88+wf3DOWPNjOPjfnER9nJjny5xn4V5ZTP3pqPTG2LmtHUtVPSiuqt6RZFKW+7PkvSELqyH30uqNbqj/HqbUg144qwgz6CG4x0ctjfPPsH9wctjfPPsH9w5M8pzm68fOZnyuo9kQ4sYjHv8PKIjzq59su8ecPCPtqqVjU2hyNq+GKTKsuv0eQ5bFGOccp6Q/BNEN5e4cJhLiW3Pxm2zjZP8ajiY9EctjfPPsH9wctjfPPsH9w45xuYn3+cTH3cmOfLdezymJ+zzPUpWq9BtiuWtOs65CuGt062noDFAiPOU6CtDbLU5lp9CjaYS0bTizQayNaFJ2CcM8DHqVrazSnavLpFOrvOzVRvwqVIcWpK2m31NciJpxwyS2SySe6MzJJYIywRD1By2N88+wf3By2N88+wf3DWUzllllPffnMT9vOWcaxxjGOkTE/KJj7/RobRmjxV65XFdluWbd9Ht6XZtHgtvV+JMjqcmNSpinWyTL/GbaUuN7asYUZ7RGrO0foAdHLY3zz7B/cHLY3zz7B/cLM3ER4X5zM/dIq5nxryiI+zvGo9Sqku2NabFvCbQ7gmUmLb1wwX36TQ5lTNp956mKaQtEVpxSNomHcGoiLyD4javLY3zz7B/cHLY3zz7B/cMTjcxPh+Jj7t45RDypcdj6pUyRGr0lubRbdumv12tVSlNUSdW3ae9IajNwkusUqS06ZmhqU4tTanEIefLOTJLhddWtO9aTCuGjyIt/Vq86lbFCg23cbMGU0y7VWmFIVIf3Ti24y0OKaW6cheypOUkpwyWker+Wxvnn2D+4OWxvnn2D+4XGOWojpFfKIqPJJy5t59vzmb+rzXKd1SgV2LZKKPeUmc3qsdYdqCI0g4BUF01uoM5JHuzZSa0tKZJW0k0nlBJLaHXplIrMbUbTGl1umXhDuhNNrKLvenKltQpc5CG9paCdVupKDcUpTTjJLQ2hRJ2kbSUH6Y5bG+efYP7hAUOzrEtuorq9Dt+JEmrZOPyhDKjcSyato20meTQg1ERmlOCMyLhwIMYnGIx9dIx+kb+35JlWUzPj/3Tl9Z29le9ZgHRy2N88+wf3By2N88+wf3AXDWnhA27cVyUa0ItssSFSYt6UWY66zH33JmW38reUno2UlxMz4COa0ofomoNtEzOrVRhyV12t1uWt5bbMqpOqhkwbyGjSjZSlCktoxgiazxURqPbnLY3zz7B/cHLY3zz7B/cM8tYzjHfN+WO3+mJ9/uhZmMpiZ7or/5f90w8z29b93Vin0WjSKBdyLii0erxr+eqCJiIc95yMtJJYccPdSTclbtxk2DUTbKVJM2tom1V2i6daiU+zLftpq2a8iFCtXTMuRKQ6ptmdHre+qGEHwS422SVOeckpTngRD11y2N88+wf3By2N88+wf3DeP8AG/bX+nmn/qJyuvZN+eM/9Pm89aPW/qW3qeuXeNy1VmbAmVhdRiOWzUUMTo7zxnGxUXJbkJ1CEmwptLLZOISk0Glv8YQ9GDo5bG+efYP7g5bG+efYP7hO6I8E2uZ8XeKFr9SKpX9DNQqFRID86oVC2KnFiRmEGtx55cZxKEJSXE1GZkRF8pi7ctjfPPsH9wctjfPPsH9wU1jlyzEvOuotMvJbl0Uxmj3a5c1QplOasKbT25aoMJ9LKSPfONHuYykSttx1T+wTjRoSW92TQXMql3+7cb1Pcpl2+PfjwzUI1WaOUVHK3ky0GpO92uTE3yEnGVRz/GqfM17B5J0eieWxvnn2D+4OWxvnn2D+4auebm9t+cT9qnxi3HjEY4xhHdX0r17a9zy9b9DvS3KrZBNUW4p8opBsSqDJpdQbhsMLq0hw5rM9oyjxnkNq3jjcglb5ttpCNk1eV6oHRy2N88+wf3By2N88+wf3DMbRTczc27xr7wgqLVrj0Qvig0KJJlVGfQ5ceKzGRturcU2ZJJCcHlWegsGL1y2N88+wf3By2N88+wf3CpNTFPPWqGmmsEa42qhZt/XZclVOyrnhU+XUI9NaTAnO8h3BIXGjxiS4s0L2d4vGW8kacGYrlEs296ii3KqxNrdUgIvW3pSqa/alTpHNhR23ykvmmfJfdc2iWyS3EmTe03kjUpSzHqjlsb559g/uDlsb559g/uEwjkyjLwmJ+U2ZVnjOPjEx84p5u0KdqtbmafVCkQL0amRI9RduqoVblZxJcdxCiYQl51RsyFKdNhxvcms2m2loVujM0H6YEdTGKNRYDFKpMVqJDjI2GWGWjShtPyERFwIZXLY3zz7B/cERMYxEl7zLvAdHLY3zz7B/cHLY3zz7B/cBcO8B0ctjfPPsH9wctjfPPsH9wFw7wHRy2N88+wf3By2N88+wf3AXDvAdHLY3zz7B/cHLY3zz7B/cBcO8B0ctjfPPsH9wctjfPPsH9wFw7wHRy2N88+wf3By2N88+wf3AXDvAdHLY3zz7B/cHLY3zz7B/cBcO8B0ctjfPPsH9wctjfPPsH9wFw7wHRy2N88+wf3By2N88+wf3AXDvAdHLY3zz7B/cHLY3zz7B/cBcO8B0ctjfPPsH9wctjfPPsH9wFw7wHRy2N88+wf3By2N88+wf3AXDvAdHLY3zz7B/cHLY3zz7B/cBcO8B0ctjfPPsH9wctjfPPsH9wFw7wHRy2N88+wf3By2N88+wf3AXDvAdHLY3zz7B/cHLY3zz7B/cBcO8B0ctjfPPsH9wctjfPPsH9wFw7wHRy2N88+wf3By2N88+wf3AXDvAdHLY3zz7B/cHLY3zz7B/cBcO8B0ctjfPPsH9wctjfPPsH9wFw7wHRy2N88+wf3By2N88+wf3AXDvAdHLY3zz7B/cHLY3zz7B/cBcO8B0ctjfPPsH9wctjfPPsH9wFw7wHRy2N88+wf3By2N88+wf3AXDvAdHLY3zz7B/cHLY3zz7B/cBcO8B0ctjfPPsH9wctjfPPsH9wFw7wHRy2N88+wf3By2N88+wf3AXDvAdHLY3zz7B/cHLY3zz7B/cBcO8B0ctjfPPsH9wctjfPPsH9wFw7wHRy2N88+wf3By2N88+wf3AXDvAdHLY3zz7B/cHLY3zz7B/cBcO8B0ctjfPPsH9wctjfPPsH9wFw7wHRy2N88+wf3By2N88+wf3AXDvAdHLY3zz7B/cHLY3zz7B/cBcO8B0ctjfPPsH9wctjfPPsH9wFw7wHRy2N88+wf3By2N88+wf3AXDvAdHLY3zz7B/cHLY3zz7B/cBcO8B0ctjfPPsH9wctjfPPsH9wFw7wHRy2N88+wf3By2N88+wf3AXDvAdHLY3zz7B/cHLY3zz7B/cBcO8B0ctjfPPsH9wctjfPPsH9wFw7wHRy2N88+wf3By2N88+wf3AXDvAdHLY3zz7B/cHLY3zz7B/cBcO8B0ctjfPPsH9wctjfPPsH9wFw7wHRy2N88+wf3By2N88+wf3AXDvAdHLY3zz7B/cHLY3zz7B/cBcMAYNVr1DoTaHq5WYNObcPZQuXIQySj+QjUZZMZw8paHWOzrXfz2rGpletq4I9UjTW2LZlvE9Lp6USNhGWDLCEpJB4MvMsj6TMXLKtoeF2n2lq8Jq6PDcPhzampM1c1ERFXM981zRtG837Hqph9iSyiRGeQ604klIWhRKSoj6DIy4GQ+x5W8Gun1nS/VBGlMy96LddHq1LcqLR0qWchmG8hzGCP8AimosmZefKTHqqqRI0eITrDRIWTzJEZGfQbiSP/MZhjlzOXsbtGe1eF/fzw5MomYyxuJqY9sbTDgAAaeo+FOpS+hg/hOJUov1Jxn7R9jAfUZXBT054HGlGf8AoxRPCGvGrWTpjPqVEcWzMkutw0Pp6WSXnaWXyHgjIj8xmRhEXNOn2hxun2dwupxer/ThEzNexfefaIVQ5p54g8u9G5Qje9jOf8wzR5be8G2hr00OoePtrFcnPG34xHV3eTbrZzudrOzvNrys7O19Irlga5XhUrcKbWETJiKEgimTTri2HHGvK2VJaJOyaiJJ5NSi2jLp6R2uG4TLis+TTnd8xw36o18dfHQ7Q0OSc8ebGsubba4naKmLjxie6XscfDryWTbJX8osmy/WY19S7quVh+Gh97lMZ6SywtUpCCc2XHEo4bGPnechc6wo0vUvB4zUGiP9WFDj19DPQmIy731XDcVhxUTOF7eKRABV5NxVuaTiaPCgtMG69HKU9JWbram3VtLVuSb2VeUhRkW8LPDOOgdPV18dGom5mekREzPrfv2dvHCc+i0ANMX9fdt2GqNT3yuKs1mYk1MwotWmb50i6VqJDpJSRmR/BSXnwnBcNbyfCW1GjVe2zKyp8dDan4j0eSa1HVSNaEkSfxacOo2cZLPlKPJFnAaM62c1qYxHxv57R5XHt6X872t+qOyuyMp09XUmcomImIxmauY6zFxFXdTMTXSJl6vAdECS5Ngx5jsN6It9pLimHsbxozLOyrBmWS6DwY7xzPexyjKImHwl1Knlsl8JCSUf8+fuH2MCKozrc9JnwJhgy/rWM8GgBQtFGG7nsznWvbcyWqSpKnXHFZMt2g/l+UzP+cWG+qJTKbZtanwY25kR4TrjTiVqylRJPBlxHPlocut+xM73Thx1efR/eiNqtOAIDT+VJm2TRJcx9bzzsJpS3FnlSj2ekz85jMuefJplvz58RRJeYYUptRkR4P5cHwHHOnMZ/t9903GcThz91WyahVaXSGkv1WpRYTSlbKVyHktpM/kI1GXER/jvZf8AldRf+cGvaERQLOlXbS7du+pXpXkTW4xPoJooaUEpzYUojLk/EsoT0/T8oxa9d1WsvUu3qBUbsdkUmqMunIOe3HRsqJDppwpttBlxQX9Zjnx4bnynTx3yi7j3eG27gy4jkx/cz2xmqn3+PgucCpU6qscqpc+NMZyad4w6lxOS6SykzIdqnUpfQwfwnEqUX6k4z9opGmkhMqoXQ+29vW3Kma0KJWSMjLgZfzYFrfUZXBT054HGlGf+jHHxGl+xqTp+C8Jr/wCK0cdWIq2eOt+S1HJJumryjwRJQaj/AKiIx2CkV++YDE1Ed2VBisoUrC35iUOqxksk2ZfBMyPBmrzdA6mvnlp6eWeMXMO3p4xllGMrbzlF+R/1dz2RktrQ6hLraspWRKSfykY1z4+UPr+n+tI+8WOz7oj1qIxFM4pPpjksuSyd+2pKSSSsL2U8SNSckZcNoukdbguJ1OJnLnxqnLr6WOlEVKwuvJZNslfyiybL9Zjl1xDLanXFbKEEalH8hEMCsKNL1LweM1Boj/VhQ7az8Uy/qVfYO84HYl6ouJJxqiyVIUWUma20mZfqNWSHO3Veo3++a9oToxp9RgUqMqZUpjMZhHwnHVklJfzmJbfLCL26r1G/3zXtBt1XqN/vmvaGvZet1HiagNR41QKXQ5MdDLriSMiZe2leUWeksGWfcNuNOtvNpeZWlaFkSkqSeSMj6DIXKJx6wkRE9ELt1XqN/vmvaDbqvUb/AHzXtCSq9Wp1Cpkqs1aUmPDhtKefdURmSEJLJnguJ/qLiYr9HvOuVWbEQ9p1XoECYZ7E2S5GIkFsmpKnGkum4gjxjinJGZZIhm72XliN2dt1XqN/vmvaDbqvUb/fNe0J0YNWrdLobUd6qyyjolSWobJmkz23nFbKE8CPpM+no+UOY5YYG3Veo3++a9oNuq9Rv9817QnRiVepx6LSZtYlko2IEdyS7sFlWwhJqPBfLggnKouVjC5qEbt1XqN/vmvaDbqvUb/fNe0IJeoddh2TMvOqWWbDMekOVdpLdRQ42tJJ2kNKVsktLhp4nhCkl0bSheEK20JXjG0RHgWbjqzUT69eKE26r1G/3zXtBt1XqN/vmvaHfW7hj0WVSoKoz0iRV5hRGW2sZThClrcVkywlKUGZ/wAxecY1m3JNuumuVl2kohQ3XVlBPlO8ceaSo07a07JE2ZmXwSNXAy454Ccy8sPrbqvUb/fNe0G3Veo3++a9oToBZywgtuq9Rv8AfNe0G3Veo3++a9oSMmr06JUodIkSSRLqCXVRmtkzNwmyI1nkiwWCUnp+UfcCTJlsG7LpzsJZOuIJp1aFGaUqMkrygzLCiIlEWckRlkiPJBZywi9uq9Rv9817QbdV6jf75r2hOgFnLCC26r1G/wB817QbdV6jf75r2hOgFnLCC26r1G/3zXtBt1Tz0SR3rXtCdALOWELHfRJb3iCUWDNKkqLBpUXAyP6Ry68lk2yV/KLJsv1mMan/AJaoftrv7h1VhRpepeDxmoNEf6sKGmEiMJ2tUpl1bDk1vbbPZWksnsn8h46DGaKBB3HOM46nvOTb1/cfD2d5y2Vt/B8+N30/QLEWi4c/Uj0xPZV9w7I9Xpsp5MdiWhTis7KeJGeOnGekUlnZ53VyrlHNW1I3G1vNnO7i7P0/C3+M/wC+HdE3fjZA5FvOR75rZztbO85PN28bXnxu8/zDXKL2AAMKAAhbzumJZdtTbklxnZJRSQhqMyaSckPOLS20yjaMi2luLQgsmRZUQkzERckRc1CaAQ9m3TAva1KTd1MZeZjVeI3LQy+kkus7SSM21kRmRLSeUqLPAyMhh0m8udL9uOyObd1zBCp0zlW+2t/yo5BbOxsls7PJ+nJ52+gscdTFJayAKNVdSpsHUKpafU60n6pKg2um42dxLbbclLVIcZKMlLuyhJmaMktThF5WDxjIvCDNSSUpJpMyyaT830CVtGXdP5mPrEk7ZTjPWK84iY8phyAACgAAAAAAAAAAAAAAAAAAAAAAAAAAAAAAAAAAAAAAAAAAAAAAAAAAAAAAAAAAAAAAAAAAAAAAAAAAAAAAAAAAAAAAAAAAAAAAAAAAAAAAAAAAAAAAGZJI1KMiIuJmYCo3rT2qnU6ZFfWomyjyXNnBKSaiUyRZSojI/hH5vOOXR0/3c4wunX4nX/w+lOpEXVec0ln7xteO4lpyuRFKUvdkTa95hWDMyPZzjoPp+QZ8Gp06ptm7Tp8eUhJ4NTLhLIj+Q8dA8n6vVefb18nETW7iwqCzJhswVEllmQo3WUZ4bCSM0pztnsnk+GMjaNMhy1NU+pVJ0iqDe53imcJLbynaIlEW0ZZz8hH8g9jPseI04zxy6vBw7d1J1JxywiolugBjVSe3SqZLqjyFLbhsOPrSnpMkJNRkX08BRrN1d8aJVCYqVlVihNXPDObSJMp2M61KSTZOmj8U4pSF7s9rCiLJErB5IyHgxNzXr1tL6aYqL9et2wgAYlQmTIi4iYlJfmpkSEtPKacbSUdsyMzdVtqI1JIyIsJyryi4YzijLAB1ypLEKM9MlOE2yw2p1xZ9CUpLJn/UQkzERckRe0OwBiUirU+vUqHXKTIKRBqDDcqM6STTvGlpJSVYURGWSMj4kRjDqVyxKdXqVbhMuPzKql91KUGX4phlJGt1eT+CSlto4ZPLifNkys/x6nXolwGt7R10ti8dMarqbAp1QYYosZ+TMp0hCUymyba3qSxnZPbbNC0nnBksuPTjYcOSiZEYmNpNKX20uJI+kiUWeP8AWFevf0J2mp9vl1doAAAAiPGaGi7CtCQw8zKdgnPjOqIt3IbSskOpSec7SDU3tEZFwcSZZ44lw9oAAAA8/T/B+uuwtSpuqWilXpEWTU23WpMCrMLWy2bq0qWps0GR4M0keD6OP828ud/0ZP7n3j5cqaXUG2umVDB9OGjI/wCsjEnGJ6uhx/ZnD9oxh+/G+E3jMTMTjPjEw1h4OngywdF1v1yq1BFSrkpvdG6hOy20jpNKSP8Azn58Dc9b/gH/AC7H/WoEHy1Polb7x32wOW2rG3ArCyJRKIlqcUWSPJcDVg+JBjjGPRy8BwPDdmcPjwvCYcuEdI9bzPtSo8/2L4DXg+6ea2VLXK3bX3dUl4chU5zYVApcgzy4/Ga2coWo+JcTJGVbBJIyIt487/oyf3PvDnf9GT+594tO0PoUdfgLIvJTGlEZ/r3YxrvtWkXtbk62K4ybkOc3sL2TwpBkeUrSfmURkRl+oZB1RJqJfNc/JEZEe5+X+cc87/oyf3PvBx6ulhr6c6WpF4zExMT0mJ6w8vVjwfbzp8RzTF7UqN4oJlIq5R004lSVOK2kZIkpNRqIk4+Hs8SPAga1paun1g26Lb0GM1Smoy6S7LnJU6p2Mbjm0+2ScElw3OOTyWMlgyLHrGot06qHtyqLUN6SdlLzbZocSXTglEZHjPm6BUaxZUipTY7rb0xTKD/GKfgkp3o4YNKkpP8AqLHTx6B6/Z/GafDZc3SfXg+Mn9KaXA5TnweEz0iP5TMxjE7YxzTNRHdEIah10qoxSSmR+RzXJsI1xjXtklW/bMySvBJWRER8SG06whSnaYaSzsz2lH9BYUIOkUGiUlaZB0apS5KVbRPSGSUaTLoNJfBTj5SLP0idVVEqxtUueeyeS/Eef+sdXjeIw4jKP242h9N2dwurw2M/vTFzXR3VWnMVemyqXJNRNS2lMrNOMkSixks8P6+A04+7Q6XIdpdWtmjpmxFbp7FPaSSlEXBSSx8FRGSi+gyG3ud/0ZP7n3iJqlJtqtSSmVa0XJT5JJG8ciEatkugs5+kx8f+oOxNTtXDHLh8ox1Me+ekx4fj4voOB4rHh5mNSJnGfDxawcrtGp7jVSo9LhxpEZe2ZRo7bankdC2zwRZyWcf74kn5hf7FpVArlLpl0riMypEOTVDgSFFndoelrNRpI+gzJCePSRZLzmOzxSsf/IT/AKGX3iZpzsCkQ26dS6BKixms7DTUYkpTkzM8ER+czM/1mOv+n+xu0Oy9XKeJ1McsJiaiL2ma8fGIXtHW4XjMIxxwm7id6npvHxid4ZlaotIuOkTKBX6bGqNNqLC40uJJaJxp9pZYUhaT4GRkZkZGNMeDx4G2i3g0Vev1/T6lSXalXH17Mue7v3YUMzymGyoyylsj4mZ5WvCdtStlONyc7/oyf3PvDnf9GT+594+rp55FQoq1OWZcFMMER/qNYzxHlVSJRqKlz8nwP8T7xzzv+jJ/c+8KHnGy3o8a259SqdduCJFhLhNIZpcgkbS3kOGajJR4/kiFx1ds6VZVBjSo1416cmZI5M61KlmpBoNCjPgWM9HnFrXpvp8tqQwVpVZDMpxLrrTcuUhtSk7Wyewl0kljaVgiLBZPAzavaNrV9lEatUi45rTattCH6lMWSVYxkiN7pwZj357Ww/ex1MYmo6xUb7R97l4cdlZ/s5ac1c9JufGftUJDTX/AGgfsDX2DIvj/AASqn7Ood0GTEpkNinwKLNZjxm0tNNpZ4JSRYIukcT5ESqQn6dOo89yPJbU06jdGnKTLB8SMjL9ZcR4s5xOr+57b83rxpzGl+37Kag00ZuO6GY1Fi6kVelupZcUzHbZNbSGWzSn4W8Tg8n0Y83SIivxZkTVZihXRWnq4qnpfbZfkoMzNSoLq0kScqwZKVw49I2jS7Ds6iPpk0mh3BEdQhTaVtT5STJKjIzL8r0GZEMmHadqQrgK6m7frDtVTnEmQ+++ojNGxnC3DLOzwzjoHs5dq4RqZ54xtMTW2MTE++N3kf8Jzy0sdPOd4mL3mYmK8J2RujEWUxT6q5IivMpcko2N62pG1hBZxkuPSLs+hR1+Asi8lMaURn+vdhzv+jJ/c+8cHVEmol81z8kRkR7n5f5x5HE608Tq5asxVvT4LhY4LQw0MZuMYpIDWzl0OUKS9SZCKq06w4o1JZhSHEYUozSZKQk0nkvkMXrnf9GT+594wZrNEqbpP1K0zluknZJb8BDiiL5Mn5hx4ZRjO8OfKJnoqXj8Xz63/AM3S/YEpaFSduKvrqjSJZsQYzsR1ySw40e9WbKySROERn5KcmZFjiXESPNFqf5Csf82N/cM+HJhU5go1PoEmMyRmZNsxSQkjPpPBcBvLPGYqISMZveXbWEKU7TDSWdme0o/oLCh21r4pl/Uq+wdaqolWNqlzz2TyX4jz/wBY+JNQRKjuR3KZUNlxJpPDPmP+ccLa0jSmo1vXRqfeq6DSnNzSqOhKXnnDMmydUWT4fxlYwL+VxXCgiQmm7wiLG0qOsjP6TIjwPhqu1tg1mzRG0bxZrXssLLaUfSZ8ekXC8ZuGpmJaCubSWqUi74dn0iSqpSJUdL5r3WwlsjUZHnifAsdI9I2Zbz1rW3Cob89yY5GRhTizzxPjgv8Ael5hDpq1WRNXUU0FopLjZNKd3C9o0EZmSc56MmY7/GS4uqU9y5941nnlnERKYxGLs1Lo1SrtmToNIY38xtyPLaY2iTvzYfbe3WT4Ftk3s8eHlcRUpl81ev3ZbJ2lOuaM29MS1V6RKoCmmWWCbcNa3HnGMpUS92nyXcH5s8TFp8ZLi6pT3Ln3h4yXF1SnuXPvHFGNTbU5RMU1jT6THXAo7Ue3ao3qQ3V451GonBfSsyTJScla5JlsKjqZJZJTtGkyNCSLJYK5a5W5Tq7b9Hk1GgJqjFNrkGRITyQ5CkRt6RPGSCI1GnZ+EREfATnjJcXVKe5c+8PGS4uqU9y594nJtEe2/p+F595n4fO/y11Wabay5lypue1KjNecZZO1FR6VIc3MTkzaWm4xpTiO4l4lGZHsKI8GfAuF2r1CqNT0Vl0O64aalUzt40ymlIJ3eS0MZyRFnaVvEkZGXnIjIZ/jJcXVKe5c+8PGS4uqU9y594TheM4+Pr5+PisZ1lGXh/b1DVVWtB2l0CZAodtOxml6avM7mNENJHKWslKRgi/KGZmZl0meR36hW/Mq941pu4ZT0VlcWNzG+i3JFRcaTuiJfJ3W1kTLxPbR9BHxQeTIuGzvGS4uqU9y594eMlxdUp7lz7xvK8p+fnMz92YmI9eyI+yMpdPYu28am5VHE1GnW/BKgkl1BGh+S6lK5alF0H5O5RjzHvCFOtmhU+wqbYNbRbT0CIy9PTUjh05alocdbUltbjbaTXg9gk7WOGU54cRfINUqlNbcZp9vMR0OuuPrS3GWklOLUalrPjxMzMzMxkeMlxdUp7lz7xmcZ6+vGfMuGt6LQV3PLpp1Og1AqfKvmrzHGpMZxrajqiPbCnEmRGSFGaSwrgedk+kyHyuhOUdM2jS6HUlWXBvB05MCNHdWjkS4RKQSWkFtLjlIWRqQkjT08MEZDZXjJcXVKe5c+8PGS4uqU9y594tTtXdER8q/BcTd+P5/KkVa19PFXVY1fp9lMlR2FToyVoojhEy8akqZy3u9pCd4TppUZEnJ5zxyeG1Syah0NN40ObKtoqzcBzYvInX0b9yctUV15lJGam9neYM0mkjUhR+Yy2H4yXF1SnuXPvDxkuLqlPcufeHLJcevj+Wt6fanO0yjQ00SoN2o5d0h+nRH2XWyaglTXUmRtqwptlT5LIkKIiNKyLGFEQvWmNIO35d20WLAchUuNXDOnMbBpaQ0uMwtRNEfAkbxTnBPAjyM7xkuLqlPcufeHjJcXVKe5c+8OWY+VfT8eZOUT69/5WwBU/GS4uqU9y594eMlxdUp7lz7w5ZOaFsAVPxkuLqlPcufeOfGS4vPSkl/yC/vDlk5oZNP/LVD9td/cOqsIUp2mGks7M9pR/QWFDrizzjoVt06etx1anHFExgjUZ8cFkdqqolWNqlzz2TyX4jz/wBYrCQGumZVOTUJket1dUKMl2Qtj+/1xSWs5sol8UqTtGRJb4ccZ+kXbnf9GT+594i34FJkPLfOl1tpTijWomJD7KTUfSeyhwk5M+JnjiNYzSUrLdRp6qhyeXX3EUclyOTvnUloJwyRFMi3xLI14Nb3A1H0H8nDJpkmG7dMBil1NU2E3IaWlRzFSSS6qPNJZEtSlGXBKOGfk+UTPNdJ9BuP1+V/tR3RIlMhSESmqXWnHW8mg33nniQZkZGZE4syI8GZZLjgzFuKKlYR5/sXwGvB9081sqWuVu2vu6pLw5CpzmwqBS5Bnlx+M1s5QtR8S4mSMq2CSRkRbx53/Rk/ufeHO/6Mn9z7xilZ40vrlCv+8b3sex7ARAYVTZDt11CXWIMh+mmUXDcVhe6WjacN54nkp2+BxSMyxgbZ53/Rk/ufeHO/6Mn9z7wreJ8N/wAedSvdMeO3z6+TylMo+pltUOfp1qNT5FZt6mXzGr9a8XabKOPLt+oFIdWw21lbrjbU/JuspUs9zjJGlWyabQGozWqL2lFkV+lWo74oEuNDpkmKcyltTHjqaILBpSsi3BukaG0pNWVGkjNxKlered/0ZP7n3hzv+jJ/c+8Sv4zj7vKuvjG3nKTF5Rl4fe/lO/lHg8eXbaltSJerp6O6dVSnUCZpA/CiojUKTCjSpxvSVG2wyttJm5hSNrZT5Rn5zIxf9S9KaXd0vWitVq1ZNSmN21CVQlLbcVupjMGQpDsQi4JkJcNBbaPLIySWfMPQnO/6Mn9z7w53/Rk/ufeNZzOWlGnHde/vmZ8rXCYx1v3Zi9427toxivjy+bzFJhy273sG9KjbhXjc0uFbzM6l1e3JapVLUtCSdmwZ+wbLBo21uvNrLyjbMjWhRkk/VgwOd/0ZP7n3hzv+jJ/c+8azy5pma6zM/PuYwx5cYjwiI+TR19eA14PuoetlN1yuK195VImXJtOb2EwKpII8tvyWtnK1pPifEiXhO2SiIyP0AMDnf9GT+594c7/oyf3PvGKaZ4DA53/Rk/ufeHO/6Mn9z7wGeAwOd/0ZP7n3hzv+jJ/c+8BngMDnf9GT+594c7/oyf3PvAZ4DA53/Rk/ufeHO/6Mn9z7wGeAwOd/0ZP7n3hzv+jJ/c+8BngMDnf9GT+594c7/oyf3PvAZ4DA53/Rk/ufeHO/6Mn9z7wGeAwOd/0ZP7n3hzv+jJ/c+8BngMDnf9GT+594c7/oyf3PvAZ4DA53/Rk/ufeHO/6Mn9z7wGeAwOd/0ZP7n3hzv+jJ/c+8BngMDnf9GT+594c7/oyf3PvAZ4DA53/Rk/ufeHO/6Mn9z7wGeAwOd/0ZP7n3hzv+jJ/c+8BngMDnf9GT+594c7/oyf3PvAZ4DA53/Rk/ufeHO/6Mn9z7wGeAwOd/0ZP7n3hzv+jJ/c+8BngMDnf9GT+594c7/oyf3PvAZ4DA53/Rk/ufeHO/6Mn9z7wGeAwOd/0ZP7n3hzv+jJ/c+8BngMDnf9GT+594c7/oyf3PvAZ4DA53/Rk/ufeHO/6Mn9z7wGeAwOd/0ZP7n3hzv+jJ/c+8BngMDnf9GT+594c7/oyf3PvAZ4DA53/Rk/ufeHO/6Mn9z7wGeAwOd/0ZP7n3hzv+jJ/c+8BngMDnf9GT+594c7/oyf3PvAZ4DA53/Rk/ufeHO/6Mn9z7wGeAwOd/0ZP7n3hzv+jJ/c+8BngMDnf9GT+594c7/oyf3PvAZ4DA53/Rk/ufeHO/6Mn9z7wGeAwOd/0ZP7n3hzv+jJ/c+8Bniq3kVRan0+bDhG62hmQy45hSktGpTRkZkkjPHkK+QvlMuAm+d/0ZP7n3hzv+jJ/c+8cmjqTpZxnEW4OJ0P8AE6U6d1deU2863zZsOsXK1cU2sVCYU5rkDrDBt8kU1u3fIJGyas5NR8VGXlH/ADWKyaZXIsWFQIbkqtNMOobXIeVtPNJJZH+McIiQrCfl2TwRdJ9O06lS7dq8hEqo2rIeebWThL5PsmasGXlYMtrgZlg8kJGPOjxGUR4tFmMtILCUNxiSlJfQRGPYy7YmdLkjHd89p/p7ONac889vZdz89o83zdjTj1q1llltTjjlPkJQhJZNRm2rBEXnMaosHTKbE0uo1cuKvV6sVSFaXJ4ECa0y0inKciElaENNNIM3MeRtObSyLJZ4nnbvO/6Mn9z7w53/AEZP7n3j5/LT5oyj/wA0V9fy+rxznGcZ8Jv6fhomn2LQrXsDThFZtSc/QJLDL11R24b0hx+WcFKWXJjSSNbjaFEaTSaTJJ7vJESeHXFp7UKsURdCpkym2s/qDEVQ4kiO5HShsqa6TymWXCJTbSnSWZJwRZ2jIsGQ31zv+jJ/c+8V2dbtMqd3QrwqLdwyXaakzhQVq/vNh40qQb6Wy6XNhak5MzIiM8ER8RzTlep+57b84n7OOv4Tj7Jj5xMfdpuw7SqUm96dUa9VpcC7YlblOzTbtSSl+S2SnfIcqBrNtcVbZp2f4peQlJEpJEU3Z1rWdW7PqFEuWynJOoMqlzI1afqFIeU5Kk4Pb/vlaN2tpStg2yJezs7JJItnBbr53/Rk/ufeHO/6Mn9z7xxThzYcnsrypuMpjLn93k1loRS7DpNnWdBp9pnTK5HpKm3TVRHoy2nyajlMJS1NklKlKJrOT8s0cNrZPE6tJsa7GuUg8TLS2IKj6MtSzOQkvp/GxzP9RC4c7/oyf3PvGDObplSmwKlModQVJpbqnYrqUKQbalINCi8lRbSTSZ5SrJHgjxkiMuTO88r9/nEx92YisZx93lMT9nnirWhdFt+D5S7rt23qjIqMqyuYLgpDTSt++ythSWXSaxk3WHF9GMm2twukki41qm2md1TPws2lUqvDVR4HMJ81SJrLOy2on22iaSrdSN5gzPCVGk28H5J43Jzv+jJ/c+8Od/0ZP7n3iTc37f7/AJWZvKMvXd+GkbU05k3Hc9rRNUaA/VUR7CTHlt1JBvNnI5UgyQ8Z5St1KS85mecn9Iqsy37jl0+x4V5peTbUahSYqE1K3ZFZbbnNyTSjfMpUSkrNhKNhxZH0LIjI1cfTHO/6Mn9z7w53/Rk/ufeJXT2X8bmevuvYubmfGvKI/DXFAgHS6hpfQ0VSXPkxIM99T8uOth9cMmUo8tteVowt2OWyo9rySzxIbKrVFpFx0iZQK/TY1RptRYXGlxJLRONPtLLCkLSfAyMjMjIxHNs0pqtPXEmgTucX46Ii5Cm1KUTKVGokJIzwktpRmeCLJ4znBYzud/0ZP7n3i9d2Yimm/B48DbRbwaKvX6/p9SpLtSrj69mXPd37sKGZ5TDZUZZS2R8TM8rXhO2pWynG8xgc7/oyf3PvDnf9GT+594UrPABHuMNTak8zKRvG2WmzShXwcqNWTx8vkkDSQAYfMtJ6uY7BDGcp8InVNRbbVK2CLaU0TRERn5vLWkwS0qAgJZ06nqZ5xtORGbfcNtLqksLSRklSjySHFKwSUqPOPMJFFJoziEuNwYykqIjSokkZGXykBbOAYfMtJ6uY7BBzLSermOwQFswBh8y0nq5jsEHMtJ6uY7BAWzAGHzLSermOwQcy0nq5jsEBbMAYfMtJ6uY7BBzLSermOwQFswBh8y0nq5jsEHMtJ6uY7BAWzAGHzLSermOwQrZQoiX5DRR0bLTy0JyWeBGBE2uACo8iiejt9kORRPR2+yCrcAqPIono7fZDkUT0dvsgLcAqPIono7fZDkUT0dvsgLcAqPIono7fZDkUT0dvsgLcAqPIono7fZDkUT0dvsgLcAqPIono7fZDkUT0dvsgLcAqPIono7fZDkUT0dvsgLcAqPIono7fZDkUT0dvsgLcAqPIono7fZDkUT0dvsgLcAqPIono7fZDkUT0dvsgLcAqPIono7fZDkUT0dvsgLcAqPIono7fZDkUT0dvsgLcAqPIono7fZDkUT0dvsgLcAqPIono7fZDkUT0dvsgLcAqPIono7fZDkUT0dvsgLcAqPIono7fZDkUT0dvsgLcAqPIono7fZDkUT0dvsgLcAqPIono7fZDkUT0dvsgLcAqPIono7fZDkUT0dvsgLcAqPIono7fZDkUT0dvsgLcAqPIono7fZDkUT0dvsgLcAqPIono7fZDkUT0dvsgLcAqPIono7fZDkUT0dvsgLcAqPIono7fZDkUT0dvsgLcAqPIono7fZDkUT0dvsgLcAqPIono7fZDkUT0dvsgLcAqPIono7fZDkUT0dvsgLcAqPIono7fZDkUT0dvsgLcAqPIono7fZDkUT0dvsgLcAqPIono7fZDkUT0dvsgLcAqPIono7fZDkUT0dvsgLcAqPIono7fZDkUT0dvsgLcAqPIono7fZDkUT0dvsgLcAqPIono7fZDkUT0dvsgLcAqPIono7fZDkUT0dvsgLcAqPIono7fZDkUT0dvsgLcAqPIono7fZDkUT0dvsgLcAqPIono7fZBSUQUKlRUJbcbLJGRYAW4AEXGix6i7KdmspeNEhTSCXxJKUkWMF5gJmkoAw+ZaT1cx2CDmWk9XMdggS2YAw+ZaT1cx2CDmWk9XMdggLZgDD5lpPVzHYIOZaT1cx2CAtmAMPmWk9XMdgg5lpPVzHYIC2YAw+ZaT1cx2CDmWk9XMdggLZgDD5lpPVzHYIOZaT1cx2CAtmAMPmWk9XMdghDzqVAbq5IRGQSDY29ki4Z2sZwBayAK5zdB9Ea7JBzdB9Ea7JAqxgK5zdB9Ea7JBzdB9Ea7JALGArnN0H0RrskHN0H0RrskAsYCuc3QfRGuyQc3QfRGuyQCxgK2qmQFpNPJWyyWMknBkOin0+EqG0tcdClLSSjNRZ4mAtYCuc3QfRGuyQc3QfRGuyQCxgK5zdB9Ea7JBzdB9Ea7JALGArnN0H0RrskHN0H0RrskAsYCuc3QfRGuyQc3QfRGuyQCxgK5zdB9Ea7JBzdB9Ea7JALGArnN0H0RrskHN0H0RrskAsYCqz4EJER1xEZtKkJ2iMixxIdfIono7fZAW4BUeRRPR2+yHIono7fZAW4BUeRRPR2+yHIono7fZAW4BUeRRPR2+yHIono7fZAW4BUeRRPR2+yHIono7fZAW4BUeRRPR2+yHIono7fZAW4BUeRRPR2+yHIono7fZAW4BUeRRPR2+yHIono7fZAW4BUeRRPR2+yHIono7fZAW4BUShRPRmz/AKIciiejt9kBbgFR5FE9Hb7Iciiejt9kBbgFR5FE9Hb7Iciiejt9kBbgFR5FE9Hb7Iciiejt9kBbgEBRVGxOTGa8lpba1GkujJGnB/5zE+ADDY+Npf1LP2rGYMNj42l/Us/asCWYPI1vXDXNYG6nfVZu6u0hlFcfioYg1zkCYMBmOTpuJZJtRyHEJ2jNPSeD4kPXI0TWPBfRW7sl1KztQ6ja8VmpFVThsxUvITKcbwtxs9tOxlOSwe0WDxjHAehwGto6XNGpNTPSav6eOzo8Vp6mpy8kXHfCS8G2+ru1b02am1SrMnVrdqq4yJ0mKbpSm9wZEbiErRlWy8ZGZK6UkZ54jYdBZqtLuKq0GfOiSGW4sWcymNFWwlo3VvpUkiU4s8ZZIy4kRZPgM7TfTq3dLrXZta2mlkwhannXnTI3H3VfCWrBEWT4FgiIiIiIugdO1nUaso+SiUs/63533Dq8Tnp6mtllpRWMzs7OjhnhpY46k3MMaj3fzte1x2dzduuYI8B/lO+2t/ylLp42NktnZ3Xynna82OMNY2rVFuq36hX60qFb7cGt1mjkmVPRhxNPlPMre2lEjBGlk3DLB7BGeTMiyKtcNfuHS3Vqv3PJ09ua46BdVLpzUeTb0IprsaZFOQS2XmSUS0pWl1s0OYNBGSyUaeBnVrT0iq6j04VedoqcJV2XLdNRgvJS+3T1TuVvx23zSamzUg3m09Jp3icpM8EY4Y3ue6vO4+1+XjDU7VHt8qn716ttC9NdtJrAg23VLmvqjRoN2zUwqTL5czuJBmk1G6ThqJO6SRFtLzgtpJdKiz03ZrjY2nkGZWb/ALioVKpiazDo8F9FWbdU+uSlnYU6kyTuTI3to05URNJJ0zIjwWhqpplXKRTJExWmU2bRrX1pdr0emxaYTrhUZ1giddisYy42b7ylmlBHnCzIjwJzUKwa7V6DqNU02BOntlqJbNxw4XISW/IgRWaOqSbDZ/DUSGH0bCeKjQpBZPgcv+MZeNT7omMJ393NMfCXJljWc4+ET8Zico+2M17erd1r6gs3FdN0U5uRT3KPRY1OlRJ7DxKQ+1JZU4bhryaTThJGSi4YPPETtLu21K5RV3HRbmpNQpLZLNc+LNbdjJJHwzNxKjSWz5+PDzjz1qpYt73lQNQXLModZgR6ou1ZrURuEw1IlwIykuS4rTUpJsm5uiUndOpNBn5CiwZivq0vqUizajdFFot/XDDkXLRKjcFEr1Bp9Kfq8CEat4hmFHZjpWotttSidQRulGSgjUWyRom5mJ23iPnMb+6L8pYraJjfafKJ298/du+laxx65dt10+22I9zUah27S61Adobzcl6e5JenNrabVtk0rHI0EnyiLKlZP5JbSPUd3VK1ZFySLakUF6NV6lSHYMiQ2+42uJKcjqNSm/IyZtmeEmoizglH0iiaM0rea06gXpS9M6jaVCrlBt9uIuZTihKnPMu1HerNkuKFETjRGlZEvBpMyIjLNj8H2hVm37RrsOuUyTBffvK5JjTb7ZoUth6qSHGnCI+lK0KSoj85GRjkyiIzr/038bx/MszPh4x8uX8rzUrhi0mfHiT2nGmZCTxJP8mSvMk/+/yfzfVErjVdQ+/GjPIjtubDbqywTpF0mXn4H/3zkixLgoEyvyo8d6YTVMbI1uoQX4xTnQXE+GOP2/QZZFu0yoUiM5Aly0Px2l7MUyThZN/Io/3fR09BFhpKirH/AAuZ+0rFpFWP+FzP2lYLDkAAFAAAAAAAAAAAAAAAAAAAAAAAAAAAAAAAAAAAAAAAAAAAAAAAAAAAAAAAAAAAAAAAAAAAAAAAAAAAAAAAAAAAAAAAAAAAAAAAAAAAAAAAAAAAAAAAAaILVDW6plzhRrKJUCR+MjGUBxzLZ/BPaJXHh5xYi0mab3AaI/CD4QH+RH/2x32hs3Ta6KvdVuqmV+nphVGLKciSWiSaSJaMfxT4lwURGXykYTjRGUS1kWqGt1TLnCjWUSoEj8ZGMoDjmWz+Ce0SuPDzh+EHwgP8iP8A7Y77Q2lpp/5P7e/+HM/6pCyi3HgzGMzvaq6bXRV7qt1Uyv09MKoxZTkSS0STSRLRj+KfEuCiIy+UjFkm/wAEe/4his6e/wDrL/8AMUz/ALAs03+CPf8AEMSerUdFuGBSP8d/bHP3DPGBSP8AHf2xz9whLKmSOSRH5Wxt7ltTmznGcFnGR5h8F3wttYvCOj0m8pngxItTTmqtTFldi74iS0tKjmtBpOJuW3sG42pG0ZERfC4kPTVUbW7TJbTaTUtbDiUpIuJmaTwQ/MnwF9JIOm1MhUm5fA61Poup8yj1uBNvWWxJRTN242+422bant2k1IS0yRkyRmsy48TM+OcpxjUyiLrG4jxmsvxHf8J6LOMZRjF1c7z7NvX46x+j1P1F0+qy47dKvq3pipcRdQjpj1Nhw3YqDMlvo2VHtNpNJkay8kjI8nwH2jUCw3aVTa61e1AXTazIKLTZiakybE18zNJNsubWy4szSoiSkzPJGXmH566SeCxX7NtzwTbtiaQVan3jTK/LTecxUR0pUaCvfESZZnxQ1smkiSrCSJRkWCUebTop4POpNM8IGj6Q3PZlSiaVaQXRXbxtyoOsHyKcqZulQI7Sz4KNhT8lZkXQojLzDm5Y/cnD2zHwipmfjE7e2Jhw45TlpxnXWIn53t8439k+zf1rpzqhIm24c/VG5tPYM6TXJdLgHQ68mRFfJCz3TW27smckkl5bacmRlnBdBWqbqJp/To9MmVC+reisVrHNrr1TYQibno3JmrDmcljZz0j876d4Oeolf0302s+69LK89CTrzUqtWYb0JxJIo7ri/wAe6RcSYWk8bXQZGJDXnwcarber2ovKfBTnao2zddrwKFpw5RyZOPaS2YqmlMm2tSSio3xk6TpFgiLgeVKIuOJnkxynviP/AIYzXvmZrw2nv2nn5YnKYvvn/wCc4/KIi/Gvm/QerXrZtAmqp1du2jU6WiIuoKYlz2mXExUHhT5pUojJsj4Gv4JfKPl6+bKjFS1SLwojRVtpb1MNdQZTy5tCNta2Mq/GpSgyUZpyRFxPgPD9qeCnddX1i0atrXayH7rolv6RO0euy5CVv08qimRtNx3HCPZcUhJlskZmRmhKi4kRlQ9I/Bs1Bq9u+CjaGpelNfeo1t1m9kXHDqEN0m4UN9RnGTJI/gtOYIiSryVkZlgyMyGpj+fJHj17v6px/E+4xwjLGcp7o+N8nNXzicZ9tP0aj35Y0vmnkt50J7n7a5q3dRZVy/Z+FuMK/G48+xnAyJt22rTa3Dtqo3NSYtXqCTVEp781tEmQRdJttGe0sv1EY/MmleCVdFD07j1Sk6LVmNdFA14bdozqYT3KYdspkkslM54pi5M15LyTPifHiJjU/wAHHV+t+ERftMviztRqxTr4uaJUqBc9rQqO83CiIWg2ScnS2VSoHJ9hJbLTiCUSVYSZHlTTrPl7r/GM/wDVPylM8eS7np+co+3nD9E5WodgQZUiFNvm348iHLagSGXamwhbMl0stsrSaspcWRGaUHxMugjFWleEZo5D1ib0Hk3tAbvFcIppw1upSlJKWlKGTWoySb6tojS0WVmnjgiMs+K9W/BXq99F4XFxVrSOqVquT5VNkWNJdhuLckOIjJJx2GRcFK2kklSklky8k+HAWdrRKqWr4X2l+rNe8H2o3LTq3ZVKp8+qxoDby6TcLamyOdM2j2m1NtpSRuGWcFgs4MizozOpyc21xjf/ADYzPlMVPvhx5TtNeOX+nKI84m/hMvewhaj8cp/Zf+2JoQtR+OU/sv8A2xpqAam0514/CBrjqnoz4q8g/BodKLnLl295w5bHN78lu07rYxs/DXtdPDoG2R4dh+BnYmtfhda63Vr3pNUanQnnKCq2Z78qbCYkHyEkSTaWw42TuFNtkec7Jl5smGG+dd1T87j++zeVRhffcNsWL4TV06qWui47Xt60rdOHqJIs2azcNfUkpMZheytyKomkbUleS2GTIy4HxUN1ytQLDg1OXRJt7UCPUafHVLlw3akyl+OwktpTrjZq2kIIuJqMiIiH5+WRoBqRa+kNnWfTtM6/EaonhCFWG4iojqlsUVtWyiUZqyo2SSRfjDM8+cxddI9Hbno/hJVymUTSarTtO7pl1uVdku+rYhtSIjkhCi2IFQSs3ZbLylEk21FspRkz4mZknfbHwv48mE7+FzM+6dvcy2yn2f8AdlHx2iHqfSbwhNI9bLVm3np/eEOXSqc643LcfWTC46UKUneOtrMltIVsLNKlknJJMyFoj37Y0u3Xrwi3pQnqDHyb1UbqLKojeDIj2niVsFxMi4n5x+admeDVqfTPB5qOmKPB2q5Vi0r6g1a6mDJuKi+aM3IkqRHjv7RE+TSTI9lR48tOzk8ELLL0L1ErWm3hC3Np3oJXNOrVvO3KdT6FYy2klMmT2XUG7KKI0aiZ8kjSRFxVkzGNTPlwyzxjpjfx5Yy85/j438a1OMRqcl/5q+HNXlG/ufoLH1BsGZVI1DiXxQH6jMWtqNDbqbKn3loQS1pQ2StpRpQpKjIi4EojPgYkKXcFBrjs1ii1uBUHabIOJNRFkodVGfLibThJM9hZZLyVYMeN/CA0etXRHwabL1bsi3abbtwaT1GmXY6hxRR3Z7ykNMzmXXD4qdeTgjzk1KQkuI3T4HOn9SsfRCm1S5WzK6L2kv3dX1KSaVctnK3poMj4lsINtvH+8MctVllj/wCWa+lfP+Xy9rixy5sMM6/qi/rfy/j8/Y3eManfwFj6svsGSManfwFj6svsGWkPqBfdt6Y2VWdQLwm8ko1BiLmzHSTtGSEl0JLzqM8EReczIhqHRnwidX9W7gpMuT4L1ctnT+vMrkU+6KhX4inlN7tS2lOwElvW0ubJElW0ZeUk+gxZfCu0gqmvHg+3jpZQ5jcapVmI2qEt1Wy2p9l5t9tCz8yVKaJJn5s5GstN9VNfb4sz8Clc8Hm77Duhq3JNLfud9xgqPEloiLQy8w6hRqcJThN4JBHs7WcmScnnGZvKZ3qNo8dpv4xtt9bamImMd6ud58OlfPf5dz0fAvG0arWpduUu6aRMq0Asy4Eec05JjlnGXG0qNSOPykQx42oVgzJbECJfFvvyZMp2Cyy3U2VOOyWsbxlKSVlTiMltJLiWeJEPzz0Z8HzUFi69HaBRfBoq+nt36eVsp1635JktFHrEZJLJ5Db6FmuXv9ovJwZJzj4OTGPL8F67T0/qF4NaP1fx8Z13VUocwoLnLUUU5RLN5vzlHPiozLgZlnzDcReUR3ePxxi4/wDdPXwkq8ZmOsR9spr37d3jD9FHdQrBYkORHr4t9t9mcmmONKqbJLRMUWUxzI1ZJ0y6EfCP5Bl1a67XoM2DTa7clLp0upubqDHlzG2XJS/mtJUZGs+PQnJj88dUvBart4Wh4U1xz9IarUrrmXeidZL5xHVPutG4ya3YRF07REolKSXlEkiPJEWOnXzQjWSs60XHVbrsC/bvt29rdpFPpMi3KfSZj1PUzGSh+M85UGlrg/jjW5vmlN8VZM1H8Hjwy5qit9vOLr33E/7tamEYZTETtE5R8piL91Tf9t4/RKuXdadsOxGLluek0lyoObmIidNaYVIc4eQ2S1Ftq4lwLJ8RrVfhNabXJWr/ANP9Or0t2TedjwjddZqszksE5BtuLJJvdK0N7v8AHKbIybyRGZHki8yXdorcloeEVU69qj4PNxa50CsUKiUi06ol5qQuiLisJbkFJJSkkypbuXTfIunJpyalEWDXdA65Z2uPhJpp2gNQmsagWs+/Z9w02nocjxXVU94pcclJ8pt2Q8vGyRZUpOT4GRnc9sJn2ZfOKqPfVz4eEz35jrXtx+U9fl08fGIe2aRqBS6bYlBufUe6LTpMipxGFPSGKsjm52QtBGZRnnTTvEGedk+kywJuoXbatIfgRqrc1JhPVRDjkFuRNbbVKS2jbcU0SjI1klB7RmnOC4nwH581bRa8qDUNLby1Q8Gmu6s2rD0ugW0i3o7bbkiiVhOybi3IziiNO0RbJuEXk444MiGVa3gtalpY8FiydWLImVmlUKddLtwQ9tcuNR4MlpKosOS8k8GngSMGZpPijingep3zqPGvZ1mPpv4V39LmnF4xM/8Alv8A0831/j438a97KvmyUW2V4rvCiJoCi2iqp1BkoZlnGd9tbGM8OnpEnTqlTqxBYqlInxp0KUgnGJMZ1LrTqD6FJWkzJRH8pGPzfc8HSsUvSa4LXl6c6hU8qHq1V61aEWi22zVozbBNoTHW/BkqSh6IoskR9HA+OMj3B4OLN/x9ErUY1QtGj2vcyIainUmktIaixT3i9hKUIM0IM0bBqSk8Eo1EXQJhMZ4zl7vOL8uk/wB0y/jMR7/Ka/u2BUf4C/8AVn9g6h21H+Av/Vn9g6hQAAAAAAAAAAAAAAAAAAAAAAAAAAHJf1jgcl/WKpqTc9XtW3UzKBT0zajKlNxIzSkmojWvP8UuJ8EngvlMI3JmlqAaI/CD4QH+RH/2x32gPVDW6mFzhWbKJMCP+MkGcBxvDZfCPaNXDh5xrllnnhs3Um56vatupmUCnpm1GVKbiRmlJNRGtef4pcT4JPBfKY1l+EHwgP8AIj/7Y77Q2XqF/wCrX/zFD/7YtgkTUExMz1aIPVDW6mFzhWbKJMCP+MkGcBxvDZfCPaNXDh5xvcVrUv8A8n9w/wDw57/VMWUJm1iKZFL+NmvqXPtSLAK/S/jZr6lz7UiwCKDDY+Npf1LP2rGYMNj42l/Us/asCWYMOTR6dMeORIjZcUREaiUpJmRdGcGWRmADKMO2qKrpiK75z2h3U+i0uluvSIENDTshKEOuZNSlpSajSRmZmeCNasF/vj+UZoAAAAAADqW+SZbMXzuoWvs4+8B2gAAAAAAA6ZMgo6mEn/LOpaL9Z5+4dwAKk7IYamzEuOpSfKFngzFtABUeWxPSG+0HLYnpDfaFuAFtUeWxPSG+0HLYnpDfaFuAC1R5bE9Ib7QctiekN9oW4ALVHlsT0hvtBy2J6Q32hbgAtUeWxPSG+0HLYnpDfaFuAC1R5bE9Ib7QctiekN9oW4ALVHlsT0hvtBy2J6Q32hbgAtUeWxPSG+0HLYnpDfaFuAC1R5bE9Ib7QctiekN9oW4ALVHlsT0hvtBy2J6Q32haCkEc04nnJonf5trA7gLVHlsT0hvtBy2J6Q32hL1677Ztg20V6txYa3iM223F/jFkXSaUFlR/zEMii3BRLjiHOoVUjTmCVsKWw4SiSr5D+Q/oMWpq6Tni6QHLYnpDfaDlsT0hvtC3AItqjy2J6Q32g5bE9Ib7Qtwg3Lkkkc2O1Qpa5cKQy3uT4E6y44Sd8hREZGRJNSjLpLZMjx0jj1NXDS/q9Vu5dLSz1prCPDw75rv9s9Uby2J6Q32g5bE9Ib7QmafcMeq1WVT6ew48zCLZelljdE9n8kXzlEXE8cC6OkSouGpjqReE3Camnnozy5xU9fmqPLYnpDfaDlsT0hvtC3DqYfJ52Q0X8gtKD/nSSv3jbjtVuWxPSG+0HLYnpDfaFuGOdQhko0k9kyMy8lJmWS6S4AWrPLYnpDfaDlsT0hvtCzcvi/PV2FfcO9txDqEuNrJSFFlKiPJGXygWqXLYnpDfaDlsT0hvtC3ABao8tiekN9oOWxPSG+0LcAFqjy2J6Q32g5bE9Ib7QtwAWqPLYnpDfaDlsT0hvtC3ABao8tiekN9oOWxPSG+0LcAFqjy2J6Q32g5bE9Ib7QsjtVpbDhtP1KK2tPSlbySMv5jMGqrS33CaYqUVxauhKHkmZ/zEYFq3y2J6Q32g5bE9Ib7QtwAWqPLYnpDfaDlsT0hvtC3ABao8tiekN9oOWxPSG+0LcAFqjy2J6Q32g5bE9Ib7QtMV8pLO9Lo2lJ/qUZfuHMiVGiI3kqQ0ygzxtOLJJZ/WYFqry2J6Q32g5bE9Ib7QsXPVG62hd+j7xlNOtPtpdZcQ4hXFKkmRkf6jIC1T5bE9Ib7QctiekN9oW4dTD5POyGi/kFpQf86SV+8C1W5bE9Ib7QctiekN9oWx15lhG8fdQ2gv4y1ERf1mMJ24KCx+XrcBv/jyUF9pgWgOWxPSG+0HLYnpDfaFjp9YpFWJw6VVIc0mjInOTvpc2DPozsmeOgxlgWqPLYnpDfaDlsT0hvtC3ABao8tiekN9oOWxPSG+0LcAFqjy2J6Q32g5bE9Ib7QtwAWqPLYnpDfaFNh6fUqnxWoMG+LmYjsIJDbbdTIkoSXQRFs8CG4AC06tSeJUT/2gXT/zp/ZEvbVHpFrw34cOpSJPKZC5Trsp4nHFuKxkzPBfIQv63yTLZi+d1C19nH3jtCzo0/D0+pVPitQYN8XMxHYQSG226mRJQkugiLZ4EO3xKif+0C6f+dP7I22AtmzXdtUekWvDfhw6lIk8pkLlOuyniccW4rGTM8F8hCRly4y4zqUvoMzSZERGLmMOtfFMv6lX2CLbMGBSP8d/bHP3DPGBSP8AHf2xz9wEs8AAEAAAAAAAAAAAHUh8lyXY5dLaUqP+fP3Dt6OJgAD53zX51HaIcpWhXwVpP9RgORBVZ9liroU86lBHGwRqPH8YxOgArnOMH0trtEHOMH0trtELGALauc4wfS2u0Qc4wfS2u0QsYAWrnOMH0trtEHOMH0trtELGAFtO6l6KaJ6xVm3K/qbakC4Jlpuuv0nlUh3dMLcNBrNTSVk26Rm0jg4lRFs8McRfyqEAiwUtoiL/AHxCxgEbRUEzc3Kuc4wfS2u0Q6IM6G3DZQuS2lSUERkaugWoALVznGD6W12iDnGD6W12iFjAC1c5xg+ltdog5xg+ltdohYwAtXOcYPpbXaIOcYPpbXaITyHyXJdjl0tpSo/58/cO0C1c5xg+ltdog5xg+ltdohYxVdR9R7d0yt12v198s4NMeMlWHJC/ml8hF51dBF/MR5zzx08ZyymohyaOlqcRqRpaUXlO0RDv5xg+ltdog5xg+ltdohIWzWXLht2m112nPwF1CK3IVFfIycZNSSPYVkiPJZ+Qv1EJMWJjKLhnOJwynHLrCuc4wfS2u0Qc4wfS2u0QsYCs2qs6dDchvIRJbUpSDIiJXSOvlsT0hvtC3ABao8tiekN9oOWxPSG+0LcAFqjy2J6Q32g5bE9Ib7QtwAWqPLYnpDfaDlsT0hvtC3ABao8tiekN9oOWxPSG+0LcAFqjy2J6Q32g5bE9Ib7QtwAWqPLYnpDfaDlsT0hvtC3ABao8tiekN9oOWxPSG+0LcAFqjy2J6Q32g5bE9Ib7QtwAWqJTYnpDfaETctHpF0Q2IcypSI3JpCJTTsV4m3EOJzgyPB/KY2IAF21J4lRP/aBdP/On9kdUzT6lVCK7BnXxcz8d9BocbcqZGlaT6SMtniQ22t8ky2YvndQtfZx947RbTZru5aPSLohsQ5lSkRuTSESmnYrxNuIcTnBkeD+UxEeJUT/2gXT/AM6f2RsVy4EuSVxqZT5E7dGaXHUGlDKFF0p2lGW0fTnZI8YweDHWu5TjqNubR5zTiuDRISTqXVfNJSTPZP8A4+yX08DFiJJmO9rmZp9SqhFdgzr4uZ+O+g0ONuVMjStJ9JGWzxIXLlsT0hvtCzU2exVKdFqcYlEzLZQ+2SiweypJGWS+XBjIGSJpXKM809Vm904leGXM4Po4pFjGG/8AG0T6l77UDMBqAYbHxtL+pZ+1YzBhsfG0v6ln7VgSzB0rdNZmhB+SXBSvl+gvv/7l3DDdJUQ9o8mx8vnb932fq6DL7QuQ2RpJKFFkzIzWZHgzz8g+ykGTTrjiCI2iNRkSs54Z+QdLTjryTW0zlO0pJGaiLODMv3D6Nh5xiQg0pSp1JpTxz5sAPs3pBGZbprh/wh/cPglOtHtllRGXlJzn+chyrlBqM9wXE/nkOpL6njJthP4wyyrPQgvp+4BmoWlxJLQeSPzjAfP/AMYaeX/u0r/8mM1ppLKCQkzPzmZ9Jn8oxXmVqrcKQReQ3HkpUf0q2MfYYgzRT6/cEyc8qnUuj1B5EWQpuSpuTGZyZFwLC3krIjMyPoLJYPiR8bZJOQmM6cRCFPkhRtJcMySa8cCMy4kWcDXDbF0yqgUgmlQEkajlyagye3MfIuDREnO7ZTlREaclnBlteUa+XT2nmYzi45ZWGnUV2qU+NU4ZbTEtlD7Rm+ojNCiIyyXm4GJWhMS4S5cGU6pZNLSpslOGvZJSegjPjjJGf0ZHNuyafRaBTaO9PQ45CiNR1LShWFGhBJMy4fQMiI83JnTJDBmptW7IlYMiMyTx6RvU1stSKmI+TGGljhvEums/lqX/APEGvsUJIYFVZcedpxoLJNTW3FfQREoZ44HMoT1Op1Z1hbhVinRZzCKStSW5LCXUpMlI4kSiPHSYu3iJY/8AkbQ/+bmfZGm9SqXFrmq1Fo001kxMUyy5sHhWyoyI8H5jHzbOndj3XYtSuyPCqcF2GmQSGlTkukam29ojM92nhk+ge1lweGejp6uWc4xURtF9Zmu+Po8jHi88NbU0scIy3md5rpEX3T9Vh0wbbiX7qBTIjSGIceXHNmO0kkNtma5BHspLgWSSkv5i+QXa7psinWvVZ0Rw0PMRHVtqLpSokngxqjwcP4dc31UD7ZA2le7Tj1n1lppBqWqE7gi6T8kx0+08P2uKyw8K+kOz2bn+7w2Ofjf1lnI08sskJJ+3YclwiIlPPtk44s/lUpXEzMRd12pblv25UK5Q6PGp82AwqSy9GTu1bSOODx0pPGDI+GDFyjSY82O3KivIdZdSS0LQeSUR9BkYgdQ1oKzKswa0k5JjLYZSZ8VuLLZSkvlMzMh5z01C111CrendBo0ukzKbSWKrWGqdUK/VIy34VFjqbcWcl5CFoyk1oQ0RqWhBKeSajwWDkGLyTYNoNVnVG+qRUylSSbgTqXTXGuXJcLaabajNreW86ZErBNGraIskkuJCYvl+7maShNo2pR7iW87upkGp1FUNC4ykmSjSsmXSUrOPIUkiMjPiXn0vb2h2olqU6l3FQqfbcWdRLwlXHTbRbnu82QYMiCqI5DYkbrLavxjkgjJkkEtxSCSST2hrHvifn8tvvce23Fl3THy+e/2qfY2jB1u0yqESFLYuJ1vl1ZZt9tiTTpUeS3UHUGtth5hxtLrClILaI3EpLBkecGWc249VtP7SYq8q47ibgM0GTBiVFxxh3YjuzFITHIzJJkZKNxHlFkk5yo0kR41RdOjmpV1S52o7kKhw7oRc1CrcCilUXFxVx6aTiN27J3JGTrqZD57SWzSnDReURGZ5VW0n1IvBq65tyQaDFeuC6LXq8aEzLW+hiJTpMVx1Djhtp23DSwtRYSRZUSegto3+XbrflWO/nl8vnqIxuPCvO5+1fGZXqXrtpnDi0yQ5Vao67V45zIsKPQag/O5OSzRvnIjbCn2m9ojLbcQlP0jKqusunFFuIrXqVedbmk8zGdWmnyXIsZ93Z3TT8lLZsMOL3jeyhxaVHtpwXlFmFq1tahW1qtVdQbNolGr8K46PBpsyNNqK4L8R2I5IU2tCyacJbSykqJScJNJpIy2toyKhR/B6qkG+rlkVKz6dc1HuW4uf0TZN1z4hw0um2p1lyGhJtPbtaFG2eSJRGhKtnZydipmPD+8bfK5vpt7WZ2j2/wBuvz2rrv7G9Lru+27HpCq7dNVbgwycQylSkqWt11Z4Q022gjW44o+CUII1GfAiMVxnXHS922qldr9yLg06jPx41S5wp8qHIhOPrShrfR3m0vNkpS04UpBFg85wRmXVq9Zdx3Q1a9etDm96sWfXm63GhVB1TUaaW4ejuNKcSlRtq3chakL2FYWlOSxnFLrWkt9Xs9dd116n0imVS4XLaiMUxmeqS03DplROUpxx02kZdXvXiJJJMiJCC2jyeJvU+P8At8+8nrHrv/G/k2bZ+pVnX5LqdPtupSHJlHU2U2LLgSIT7SXNrdubuQ2hSm17C9lxJGhWyrBngxQq3fd91fV6qab0G9rYtN6nRo0imQatSVypNeQpG2880rlDRbpB5aMkJWpKkmpWCNJHaaXZNZh64XDqG6uPzVVbZpVJZSlw97yiNJmuLNScYJOzJbweena4FjjU9dLJ1F1Pp1TseDYlqPQnkoVRbmlVhxuZRpRoIuVtsJjmonmlZUg23k7WCIzRxMO/GfXfH99/d7Sr5on10/22Xe4tWrDtS4I9s1+qTIsuQ6yyTpUuW5EaceUSWkOykNGwypalJJJOLSZmpOOkh2J1WsBdBRcqbgSdPcrXi8lfJnt4dR5WcTk+62N5tb8jT8HGC287HlDTuoui2rd5V24WpEmJVYcypUqVRp8q4ZjLUGHH5Mp2OdObSTC3VOtPLJ5RnnfFn4CUHbY2jlXY1sduU0U87M5Yq6Wo+8Ub6bgXGKGpW7xsk3uSU5nOd6szx5wx7r9dPtfxraYJ6betvzXwtbYusmnE26W7Oj3As6i/JchMLVAkpiPyWyUbjDUs2yjuPJ2F5bS4ay2FZLgeLoPO+m/g/VK1K7TYFw2RSqpEotakVGJX13XUFrNs3HXI7hU9STaTISa0oV5WxwUsj47A9ECx/TEz19f3J2ymI6I1H+Ezpfo9P/WmJIYCGXCr7kky8g4SWyP6d4ZjPEGutP5NMeer9dqpJeq79UlxnnHMGtlpp1SGmSPzJJCUqx8qsiOhPMw9WqW5RyJCqs1JaqCEcCdabbNaHFF5zSskpI/+EMhY7i0zi1aqO1ujVuZRZski5ScdCFtSDLgSltqLG1jhtEZH0ZyNKay2bqTpLMg6sWZU5dwwqck+fGlNlythojI960ScJNouO22RZxkzNRfB7XEcbocNwuepMTM10iPP4dXW0eE1+I4jDTiYiL6zNerengFM0l1LpmqloR7npmMKw26aPgKXgjM0/Rx6D4keS+k7ZUJ8SlwZFSnu7qNFaU88vZNWyhJZM8Fkz4F5h09LPHWxjPT3iejt6mE6OU457THVhXRU7fo9vz6ldMpmPSWGTOU49nZ2D4YwXEzMzIiIuJmZERGZjyXTNRbs1qv2ZaWn0A6HaNCVyidV33FrTRSLB7ZLM1JVMWnilsjw0WTz8JSu3UherHhK6nlpzbRLottUlaXZ1SSreNU5s8EozURGl2ctJnsN/BbLJ5PylK9M2DpjZemtlRrBtSjtMUlls0OpWRKclLUWHHXlY/GOLxlSj6foIiIuTlz4fV54iIzjaLj1sxGeHE6P7eWUzp5TcxE+H3KdsnW00aDcE6Jze024qIcWMluag+KniUTfElKMyVsGnB+Ysicrleods0t+uXJWYNJp0bZ30ydJQww1tKJKdpazJKcqUlJZPiZkXnGW2yyyhCGm0pS2kkIIi+Cn5C+jgQxq1RaRcdImUCv02NUabUWFxpcSS0TjT7SywpC0nwMjIzIyMcGjpzpxNz19/wAv9q9zsa+tGrMcsVUey58ZmYiLv23PtRNtaj6eXnLdgWfflu12Sw3vnWabVGJTiG8kW0pLajMiyZFk+GTISVLP/wAIVn9pa/6hAo2hng76UeDpb823NK7c5uYqUtcuY+86p6Q+o1KNtC3VeUaG0q2EJ8xZM8qUtSr5T2VtTao4ssE9IbUn6SJpJfaQ5XA+quW1SZqdnazHcLZ2drPknwx5/wBQqGnZHGj1MjZ5LvKi4v8AJqY3mUJLbybxbzOMbeE5xjHAXCrINylzG0oNZqjuJJJJ2trKT4Y8/wCoUfT6dBgt1Vl19iE5zk6akKzHNR7CfKPaeLbzjG3hOcYxwG8SF45T/wC9f9I//wA44pR5p7J5zkj45z5z+k/tMY/PdO65jeup/wD1gZNKzzeyZ54pM+P0mZ/Kf2mNZzEwzETDKAAHG0AAAAAAAAAAAAAIh296DbjbNPnm6Txs78yQgjLZNR8ekvORit6ia62NZ1pN3BV26g5FlzEwmtwwlaid2d4RmRqLBYT0/KLe1GtyQw0dUiR3JDaTbUbrWVFgz4cS6BHXPaen1y0fmipW7TKg0h4nmWHYpLSl3GztkRlwPBmWfkHNqzozo1pxMZ+M9HS4rDjstPKOGzxjKtriZiPe87n4Z9Eb1IQbEaY9Z0uK006bzBIkRJBKVtOJJJntIMjTlOc8Mlx4HuTVPVSRY9iU68bSocO5XqzVKVTKew9UVQmHTnSW2EOKeJp00pLekrg2ZmRY4CsO+C9YErUtF4PUeAxRocVlEajxmCQy5ISpZqddIuBlxThPnxx4Fg87wlrLmXxp/R7ap9MqEttV2287JbpzrrLzUVupMLecS4ypLjRIbSpRrSojSRZIywPP041sf6565R8pmL+FPK/T2j2vpTr/APFc8covKca90/6b6RO/wpM2TqjUKpULht7UO3oFqVi2ihOyyaq5TILjMvbJhbchTbJ5NTa0mlTaTIyLGSURnc5deoVPefjz61AjOxWEyn0PSUIU0ypRpS4ojPKUGpJkSj4GZGXmHnOt6a3Xadt6jaXW/blXr0aWcK6qFVHlG/JnEzIaW7TX5bqtp2Q2bBE0p5eVNuoTk92oxg33DuvViq6jVmn6bXZT6ZV9PYFIhFUYC4siVIKdJW62lvO2hSUrLpwZ/CItk0qPs4zzZxEdJj7T94r6PopjlxmZ6xXnMR9Jv6vTFJuO3q+5NZoVep1Rcpz5xZiIkpDxxni6W3CSZ7Cy+aeDEgNO0iw/Ffwlmqta9popduybDVClvwohMxnJTM5Bx21mkiI1pbW9skfHZNXmG4hYi8McvG/KZjzq/dJlFZTHu84ifK6+CPoJmdNLP59//rVCE1Fql50S3apVtPaExWbiiUmU7T4T6zSl1wls/JxUZJNRkjhtGRJynayU9RmVsQCbcLCt88r+Y3FGX2jvS6iNVo8l49loo7zZqweCUamzIv6kn/UOTR1I0tTHUyxjKImJqek13TW9T3samM6mM4xNXFXHWPbDzx4PXhC6v1K5LU0z1osBcSVc1JdnUqtNupNclLKDWtUhojMm1HgyMvINKjSnYLJYi788Ma0XrdrH4Pudo9belxpEFUqGgmcJWybqV4WfBSUOkeC47XmzkelY1MtKNcMi69lt2sSGSjHMdypxDBHkmUcPIRniZJxk+J5PiNU354Otg3XbNYpFqWrRKJMmSoxRag3BSlTDSVsm6aMER8UpdIi4EZn04PI7Xb3F6XaGt+9wOlGlcfyiLrmud8bma2qPDa6i6j5btLge3NLgJ0eC14ymIy/qj+cxUcsRMVEZXe89LjeatOaK61UHWKgqlQ0ckq0JKCqEFR53aj6FoP8AjIMyPB9PDBi7Us//AAhWf2lr/qECJ0906tfTK3mrcteETTScKeeVxdkOedbivOf+YugiIhM09lbU2qOLLBPSG1J+kiaSX2kPOwjKMY5+r3uzceLw4TDHjsonVr+Ux0v119vdDJNWKhTy+V9Rf6JwSU+azTYMmoSCUbUVlby9ksnspIzPH04IQs59MWbTJLuSablKNxZJMySRsOkRnj6TIv5yHfLua2HWXI0ua2tp1BocQptRkpJlgyPh0GQ3W8X0d+J2murVE/Wy2lVyr1eAick5NKjRYprYTkn21yVGai2vg/jm/wDOLTp1qPBviIbDiCj1SOjafYL4Ki6NtB/J9HSWf5xGJs6zq9ctfYo9DhJhHRoTcZ0ohpbblKcmE4pOSLyiTuDPHHGz9AtFn2ZR7MppQaY1tOLwb8hReW6r5T+QvkLzf5x6etnwE6ExpYzGW1XPrZ5mlhx0a8Tq5ROPfXrqqa9UburN8Vq1rDsGDV4VrVCPTq5Mm1zkTrTrsdqR/e7BMOb7DT6DytbRGeSIzxkXSpXdadGq0KgVe56TBqdTPEKFJmtNPyT/AODbUolL/okY0ZrOxLqV6yHNPdMb5pupMRcZul3PT4xM0ue0WyrZmvk5unYqSUtKm3k7wvK3SdoyUcDfFm1FKtWbQr+j9Vum4r9lPuW5XWKe2/GJlcVtuK25KUf95clcSo/K2ejbb2lqMh5WMzyx8fj02j33PuqYm3qVE5VddPh13n2e7xioem3a1R2eXb6rQ2+bGydnbT6S5Kg0molO8fILZI1ZVjgWRjOXbarMiPEdualIflmymO0qa2S3jeJRskgs5Vtk2s04+FsKxnBjzteVPv8AsyFqTa8iyrluyo3pZcWLT6nTIe+jyJzNPdjPIeXn8So1bLhGsiJRLwnaUWyczaWkc2o3TU67VLcTHq8TT+3afQajUIhLTT6k23OJxbW0R7LraltbRl5REZF5+Osv4xnMb8tdO/8Aq6fKPm47vkjpOV3fd/TV/wDun5N3wrutOpVqZbdOuekyqvTkkuZAYmtLkxkn0G40StpBfSZEPug3PbV0sPSrYuGmVdmM8qO85AltyEtup+EhRoMyJRecj4kPOFMterVPwfKtpLaulFcte+oFtcimSnaay03NkkbfKEsz3CNmSqQaVntqNRHtZdJJ5IWXwc7Hi0656xeTTeoLDztKiUlxu5LfplGZMm1rUltDEJhneqayad6aVI2XMNrUWcWo5pxvaO/x69PXf8Fmf435fL18PjG/RT6brLpBWahHpNH1Ws6dOluJZjxo1diuuvOGeCShCVmajM+giLIuA1Tavgu6I2XrFWddbdsqNFu2tt7Lsgjy0w4olE88w18Fpx0lETii4qweMbbm3FbGfP8A8YaeX/u0r/8AJiQGE8ytVbhSCLyG48lKj+lWxj7DGaIK9dds0KpRJVUl0GLNnNRzJpxcMpDnDJkRIyRq4n0ZL9YoFLbqlEknMpFuvw3zSaDcZs80q2T6SyUno4ENi1+z6FX95Jl0mnOzja3bUiTFJ7YxnGSyRmRGfRkhB0vT+qUSScykVC3Yb5pNBuM0A0q2T6SyT/RwIbidmZjdbKQ9Jk0uK/MJZPuNJU5tsblW0ZccoyrZP6Mnj5RxWvimX9Sr7B3xESW4zSJj6Hn0pInHEN7tK1ecyTk8F9GTHRWvimX9Sr7BlWYMCkf47+2OfuGeMCkf47+2OfuBqUVd13Q7fdgwCrdKgyprxpNU1RKJpsmnF7Zt7aDMjNskEe0RZUXT0HV5l420SXqpXr6pMwo7R7LcdxLTSElxUZNE64pazx0mZ8CIkkWTzOX2qfQiK6ac88lokpYnNoUeNjPkO4/3pqMjP5FZPgkU78JMv057vDHwvbPb2PZnGZaXFR7cYm6r3c0RO99Y2n3Q9fheCy4nR5tHr9/lfn0USTrRqQ/U4tRsDTCeqnv7xphclp1XLUmg1Z2E4IsEg1FgzMiI+ODMha/BfvnUC7KA/EuiC5JpsFJNxKu6rC3TI8G0eeLmC/j+bGDyYzLSuNqbeFHo61KUlc9+WwZnngcWRvEZ+hR7RfQoyL4I29Ap8KlQmadTYjUaLGQTbTLSSShCS6CIi6B9H2H2nw/anCzrcPERF1t41F/X5bvi9X9OdpcF2np8TxPG55xjGV4zGMRNzFRUR0277m4ip6oy9VqRadUUhRpPkyiyR+Y+BjDsGzrQm2VRJcu06M889BaW44uA0alKNJZMz2RlXxwtKqmfo6hom0LctefFoDdYgTn367Un4JOMzEtJZSjc4PZNCto/xp+cugfWcHw0cTw+X8qqe6L7pnxjwdni+Jnh+IxrG7jvmu+I8JbD1+t636BYR1OhUGnU+Y1LQaJEWI204kyQsywpJEZcSI/5hs8eZ9brJo1jTm6dRVSVNSKep5e/WSj2sqLhgi4YIh6YGeN0cdLh9KccuaJ5puq8PbK8Hq5auvqxljyzFRV34+yEfFM+fKgX/AMfasYF4R2pseBAkyTYjyZmw8rY2yNJMuKIjT5y2kpElHZWirzXjLyXGWUpP6SNeftGFcry4zlKkInRYRtzTM35SNppGY7xeUW0npzgvKLiZdPQPNx6vRnoqqLXtnlEtD1VjttRySrbOAguBlkzPhwwNSydYI9NqDU2xLHq1wIhSybcmxYxMR1mS8GhC0NrNRKLhxx8IuBjdMmY1Vjq1Mn3rbCo01pLLxblSScQpBkoiMpJGXAzI+I6KS8zGoNLo8Cv28qMzLjJbgwo2w4SSkJPycPKIiLpPyegj/WOfml5PaPC8bxMxhwmtGlHfPLGWUz3RETtEeM7zPsUjwf9Y7vvusVW3rht+SpqK666ibj+CEazMo7xmRZUXwSMi2vJ4l0mWwW9SoSNRbksapRmIMW26FTq49VH5ZJbNEp2W2aVJNJEgkckztGo87fQWzk7JR6FSLfjORKPAaitvPLkOE2nBrdWeVLUfSZmZ9JjQesdkXTXqzradOt6oyma9prTaXT1sNKPlUpLtUNbLRl0rInmzMi4ltp+UcO2WXrwlrsjg+K4DgY0eM1p1c4/zV4zG3tqO+d26pGomn8OLNnS76t5iNTJRQZrzlTYSiNJPoZcUasIcPJeSrB/QMitXlaFttLfuK66PS222CkrXNnNMJSyaiQThmtRYSajJO10ZMi6Rp1Oi9un4SD1SXpxBVbbmn7cBbiqek4jkspiy2FFjYU6TK1ERnlRIWos4UedU2LDVZ9y6Vo1D0wrlfk0XSJqLKgNUzlsqDI5S0gtqMryjPBKbNREZp2jzhJqMsRvOMeN+UZ/9vyn5+vONY5ZeHL/AKuX6c1T7Yeu6vdtqW/R0XFXrmpNNpSyQaZ0ya2zHVt/Bw4tRJPPm48R9TbotmmwGqrUbipkWE+0qQ1JfltoaW0lG2paVmeDSSCNRmR4Iiz0DzHbFhXBp1Js26b60vqlbtqHBrzcWgwIKKk9bTs2pHJjJ5Mg1bRJiqTHNTW0TWxsl5CjMSNp6JzZyLIpl5WMZ22d33FXG7flModj0qnSGXziRZDadpokkpZK3fFCVqJJfBIaq4n4/Wq98xv4UzMxFeu6790dPG5bpszWbTLUC5q/aFoXlSqnVrbkFHnRo8xpxed224a0JSozUhO9Sk1EWCWSknxIyEDXtUNSj1LrWn9haZ0OttUCm06oTJlQudynuK5WuQlKG2kw3iUaSjKPKnE52iLh0iP0rttFn6y6nQXLFkQG65UotXpdUZpyUw3YhU6HHW0T6SwlwnmHMtHg8YVgyPIjKrdtT0617vKrPab3vXo9foNBYp7tDorkll15hydvG1PGaWmjLfNn+MWksKzkSKnGJ9nmTtfrwX20tYbSuGz5t31uSi1kUec/S6zHrUlpg6bMZXsradc2t350qSolGSkrQoukcXdrhpVY0614Nz3zRoR3i8tqkuuzmUtOpSwt7emtSiImzJvZJfEjUtCelRDTtYtO/bcpTVxV6yn33ryvKVcNabpdIYrcygEcRMeElppe0hTmwy0l15KVpSpa8eQe2VdtnT247asXSyr3NppXKoi0tQbjkz4KqWw/PYp0pVVajL3DKSQbe1JjKwynYSkyUktlOS1hjzVzbdL98xFxHxn/AH6pl/GJr/1V8Lr6efc9U+NlrHcPiiVy0rn3c8o5s5Y3yvdfnNznb2fpxgIN2WtU6zMtym3LSpdWpxEqZAYmNuSIxH0G42kzUjP0kQ8q3Pbuo1x6jUmc5p9WqZUqNqbEqEhVNt+I1AXSykm0iYqfsqfkLXFMt4SHE7JGtK0klJErNj2Rf0ik39YGltrVaFCm27XGotUr1EaplRiVR98lNxmZvRMZd2nVbw0K2dhs1OLM8FjGbw5p9u3uxxn71748dm5xqavw+sx9r90/F6BuDWHTK27PuG+p170Z2j2qhxVVfjTmnuTLQXFpWyrg6Z4SSDwo1GREWTE1aV223fVvw7ptKtQ6rS5ze2zJiSEPNn5jTtIM07STyRlngZGXmHlajaLu3VZV+t0uiX8qsS7DnWzGg3Lb9Ho8QnlpM2Y6Ew47JSFNuJLYd8tpBLVsL8ox6P0gkx5OnFCOPa9Qt7dRG2HKfPgcjeadQkkry15sqIzJXQouJZIyMaiIqb9n1n8R8+/rPHM7xUeP0j8z8vg5qWsukFGqEik1jVazoM6I4pmRGk12K06y4R4NK0KWRpMj6SMsi4DVN1eC7ojemsVG11uKyo0q7aI3stSDPDT7iSSTLz7XwXXGiSZNqPinJZzsN7G1hGkfFM+fKgX/AADH2rEgpSUkalGREXSZjCjsrRV5rxl5LjLKUn9JGvP2j4r0JU2muoakkw6gjU24o8JJWOG19A49XLPHCctOLnujxXGImYiZ2a51g1nOw2o8KisNuzpPlMrkEZMyDSZbTDa+gnjTk07XA8CpaVU+g66XMrVK4VyZ50M0RosOQWGWpBZM9tvzLRw8noyZKwZkRjXGob7txSptDrcVTzqVmyba1cG1kfBaTLoxwMlF9B5G/wDRdNjWpaEO16JcLVQmNpJydKU2pDkmQZESnFmaSyfAiz8iSHxvZHEcZ2t2hlqa0zGnh1x7r7orxjr8H0Ovlp9ncLEaM1qZbXHWYnr8O5ssBwlSVpJaFEaTLJGXnHI+2fOgAAAAAAAAAAAAAAAAAAAA6Zv8Df8Ay35JX5D8p0H8H/ffJ9I7h0zf4G/+W/JK/IflOg/g/wC++T6QgUH/APSIJG3vjiP/AIZ/x/jD+D/BP4f7vpwI7/8ASIJG3vjiP/hn/H+MP4P8E/h/u+nA1LELLXqnzJQ6jWdxvuQRHpW72tnb2EGrZzg8ZxjODFZt7UKRcmlVvakxaVBiuV6nU2olDm1ImWWClE0ZoOQbZ5NJOGSfILbUSS8nayU5eUaRMtCuQ4jK3X36bJbabQWVLWppRERF5zMzHna167V7n8HG3dLWNOL6p9eoVJtxqU3U7blRGjXGkwyeShxxJJWaSQtWCP4KVH0EOGMpvU9kY1/rv6Y+74uWYisZ99/6a+70PPvazKVVVUGqXdRYdTRGXNVCkT2m30x0EZreNtSiUSCIjM1YwREfER2m2qlhat0FVx6f3LBq8Nt5xh040hDimloWpOFpSo9jOyak5xlJkfnGpqZb06k6+zUWvY9Vm0+u1qROuV+v0Fvk8VJwN0mTAqOcrJZoaaOOe8MkuOcGklg7V4NVJctqw5FozbNm0CoUaqTmZRvwCYal7ct5xt1lwvJebNtaMKIzxnZPBkZFyY74xl7PXr/aMZbZcsevXrxm6XFqfpraFQKk3bqHbNEnG2TxRqjVo8Z02zMyJWw4sjwZkeDxjgYnabU6bWafHq1HqEadBltpejyYzqXWnmzLJKQtJmSiMugyPA1trT4M2jfhAS6BP1OtNqoybcmIlRXkmSHHG0mZnGdURZWwo+Kmz4GZcMcc7NiRIlPiMwIEVqNGjNpZZZZQSG2m0lhKUpLgkiIiIiLgRECsR8//ABhp5f8Au0r/APJjqueQuPRnCbWtCpDrEQloVhSN86hraI/MZbec/QMh5laq3CkEXkNx5KVH9KtjH2GOaxAVU6a/DbcS24oiU0tRZJDiTJSFGXnwoiP+YI67iIKC5OkuUqO85Dp9PZbIm4q92t1Rkfk7XShJESfgmRmZ9JEXGNpEm4YUPdTLcrb7ilmsiW7GXukn0IJZu7SiL5yuJ8egsEXZy93l+21NbpVXNvcvRpKDcbdJJ5JSU5SayLJ4Uky4KwfHgWDVUrqjim1zEVKuJQbUQoqN2UNSv5QuKjbLJEZqUZ5JOCz0H2scco3iqcU5ROy22zDk0+26VAmN7t+NCYZdRkj2VpQRGWS4HxLzCBpusukFZqEek0fVazp06W4lmPGjV2K6684Z4JKEJWZqMz6CIsi3tksm0k4olLIi2jIsEZ+c8eYaqtXwXdEbL1irOutu2VGi3bW29l2QR5aYcUSieeYa+C046SiJxRcVYPGNtzb6suVsp/42ifUvfagZgw3/AI2ifUvfagZgLAIp6TIj1aRyeMh3aZaztObGOK/oPIlRFPfG0j6lr7Vg1VvrnKo9Ws+sn7Ic5VDq1n1k/YHIDNnLD5RPmtIJtulMISXQlMjBF/8AQOuTXXoaUrlx4jCVrS0k3JhJJS1HhKSyniZnwIvOO4edPCYsm2Idw6bXizTNqsydRKO2qW6846tCD2iNDZLUZNoPYSZpQSSMyyZZ4hzTcR415yTjERM+D0VzlUerWfWT9kfKJ01vJN0qOnaPaPEjGT+X4A+wCzlh3RXqtL2t1To/kYzmSfn/AKAxqdVp1UmzoMamtE7Tlk26apBkWTM+jyePwTEvRP5b+j+8Qdmf4TXT+1N/a4FnLCV3Nb6vi+tH7Abmt9XxfWj9gTYBZywhNzW+r4vrR+wG5rfV8X1o/YE2AWcsITc1s/8A0fF9aP2A3Nb6vi+tH7AmwCzlhUahabVVmtVKo2xTH5bBETT6nz3iCI8lhWxksGOqPZMSHFXCiWtTmI7mdtluUpKFZLB5SScHkhcwG/3c6q9mf2sLulUo9slb7bjVEtqmQUPGSnCYe2doy6M4RxEhua2fA6fF9aP2BNgMznOU3Kxp44xUKS7YVLecU67ZVEUtR5M9ouJ92O2FZkOnSEy4NoUdh5B5S4hZEpJ/Qe74C4gJa8qE3Nb6vi+tH7Abmt9XxfWj9gTYBZywhNzW+r4vrR+wG5rfV8X1o/YE2AWcsITc1vq+L60fsBua31fF9aP2BNgFnLCE3Nb6vi+tH7Abmt9XxfWj9gTYBZywhNzW+r4vrR+wG5rfV8X1o/YE2AWcsITc1vq+L60fsBua31fF9aP2BNgFnLCE3Nb6vi+tH7Abmt9XxfWj9gTYBZywhNzW855vi+tH7Abmt9XxfWj9gTYBZywhNzW+r4vrR+wBsVoyMjp0UyPgZHKP2BNgFnLCp0K1m7XhnTrctWk0yIa1ObiI4TTe0o8meylsiyZmZiR3Nb6vi+tH7AmwCJqKg5Y6qnQrXRa8JVOty1qTTIq3lyFMxXCaQpxZ5UsyS3xM/l+gvkEjua31fF9aP2BNgLOUzNykYY4xUITc1vq+L60fsBua31fF9aP2BNgJa8sITc1vq+L60fsBua31fF9aP2BNgFnLCE3Nb6vi+tH7Abmt9XxfWj9gTYBZywhNzW+r4vrR+wG5rfV8X1o/YE2AWcsITc1vq+L60fsBua31fF9aP2BNgFnLCE3Nb6vi+tH7Abmt9XxfWj9gTYBZywhNzW+r4vrR+wG5rfV8X1o/YE2AWcsITc1vq+L60fsBua31fF9aP2BNgFnLCE3Nb6vi+tH7Abmt9XxfWj9gTYBZywhNzW+r4vrR+wG5rfV8X1o/YE2AWcsITc1vq+L60fsBua31fF9aP2BNgFnLCE3Nb6vi+tH7Abmt9XxfWj9gTYBZywhNzW+r4vrR+wG5rfV8X1o/YE2AWcsITc1suinxfWj9gNzW+r4vrR+wJsAs5YQm5rfV8X1o/YDc1vq+L60fsCbALOWEJua31fF9aP2A3Nb6vi+tH7AmwCzlhCbmt9XxfWj9gNzW+r4vrR+wJsAs5YQm5rfV8X1o/YDc1vq+L60fsCbALOWEJua31fF9aP2A3Nb6vi+tH7AmwCzlhCbmt9XxfWj9gNzW+r4vrR+wJsAs5YQm5rfV8X1o/YDc1vq+L60fsCbALOWEJua31fF9aP2A3Nb6vi+tH7AmwCzlhCbmt9PN8X1o/YDc1vq+L60fsCbALOWEJua31fF9aP2A3Nb6vi+tH7AmwCzlhCbmt9XxfWj9gYlYaq5UuUb0GOlBNK2jTJMzIsfJsFkWYR9wfEk76hf2BEnLDpERAdnIXMKNEadRytzylPbJ54ebZMS4wKR/jv7Y5+4aZkeVUJDS2H6TFcbcSaVoXIylRH0kZGjiQh/E+gf+z+3e5a/2Qs40defhPR7Vueo25Gsxc0qc+qOp9c8mdpaeCsJ3auGfpHJpdmz2jly4acZTHjX3drhOG4nispw4eLmN+tfeG0oNvwKXIKXTLNosR9JGROsJQ2siPpLKWyMSe/q3VzHrJ+wNZ6Va9s6mXA9b67YXTHURlSUOFM36VEk0kZH5CcfCL5RtgNTgsuAy/ZywjGetRX2Y4rQ1uG1P29eKy99o+QU6ZHciyqPFeZeSaHG1yMpUk+BkZGjiQhWrLojG53NmUtvk6zcZ2XjLdrPGVJwngZ4LiXyELUAzjnljtjNOrOGOW8wrMm06XNkNy51o02S8zjYW++bhpweSwakn5xNb+rdXMesn7AzACcpy2kjGMd4hhb+q9PNsf1k/YHO/q3VzHrJ+wMwBlph7+rdXMesn7Ab+rdXMesn7AzAAYe/q3VzHrJ+wG/q3VzHrJ+wMwAGHv6t1cx6yfsCJO3Y53Um9jt9jnpNPOllJ5c5/BTcJw29jGx8MiPONrzZxwFiAO+/Xh9NjrFevH6sPf1bq5j1k/YDf1bq5j1k/YGYADD39W6uY9ZP2A39W6uY9ZP2BmAAw9/VurmPWT9gN/VurmPWT9gZgAMPf1bq5j1k/YDf1bq5j1k/YGYADD39W6uY9ZP2A39W6uY9ZP2BmAAw9/VurmPWT9gN/VurmPWT9gZgAMLf1Xp5tj+sn7AG/VTLB02OZftJ+wM0AFfk29AmyeWS7Oo7z+NneubKlY+TJt5HdDpLVPM1QLWpccz6TaUlJ/wCZsTQCRjGN1HUmZnqw9/VS/wDRsf1k/YDf1bq5j1k/YGYAow9/VurmPWT9gN/VurmPWT9gZgAMPf1bq5j1k/YDf1bq5j1k/YGYADD39W6uY9ZP2A39W6uY9ZP2BmAAw9/VurmPWT9gN/VurmPWT9gZEl9EWO5IczstpNR4+gfBRLhWRLSmA2RlnZUpZmX0GZcAKt1b+rdXMesn7Ab+rdXMesn7A+ZaqpASlc6oUaMlR4SbzikEZ/IWR3Ii191CXG3qYtCiylSTWZGXykYLUuvf1bq5j1k/YDf1bq5j1k/YHdyG4vn07/SByG4vn07/AEgXBUunf1bq5j1k/YDf1bq5j1k/YHdyG4vn07/SByG4vn07/SBcFS6d/VurmPWT9gN/VurmPWT9gd3Ibi+fTv8ASByG4vn07/SBcFS6d/VurmPWT9gN/VurmPWT9gd3Ibi+fTv9IHIbi+fTv9IFwVLp39W6uY9ZP2A39W6uY9ZP2B3chuL59O/0gchuL59O/wBIFwVLp39W6uY9ZP2A39W6uY9ZP2B3chuL59O/0gchuL59O/0gXBUujf1Xp5tj+sn7A539W6uY9ZP2B3chuL59O/0gchuL59O/0gXBUsKYxJqDJx59CgyWjPJtvOktP9RowERmVAZKPBocGM0XEm2XiQkv5iRgZvIbi+fTv9IHIbi+fTv9IFlS6d/VurmPWT9gN/VurmPWT9gdpxLhQRrUmA4RFnZSpZGf0EZ8B9xn0So7chvOy4klFn5DBKpgpclrq0blUZtrDL2zsO7eeKM+YsCSGG/8bRPqXvtQMwFgEU98bSPqWvtWJURT3xtI+pa+1Yk9GofYAAy0DRGtWnGvmo1dpSbenafxqJblfh16mct5bypxxhJ4Q9sEaNk1KV8HB4xx6RvcBK3s7qQdm+O3MLX4QuY+ette95m33JdjPkbO98vOMZz5+gTgALO5GyUon8t/R/eIOzP8Jrp/am/tcE5RP5b+j+8fdOocKlzZ0+Mbhu1BZOPbSslks9HDh8IwEiAAAAAAAAAAAAAAAAAAAAAAAAAAAAAAAAAAAAAAAAAAAAAAAAAAAAAAAAAAAAAAAAAAAAAAAAAAAAAAAAAAAAAAAAAAAAAAAAAAAAAAAAAAAAAAAAAAAAAAAAAAAAAAAAAAAAAAAAAj7g+JJ31C/sEgI+4PiSd9Qv7Agl0jApH+O/tjn7hnjApH+O/tjn7htxyrOrrrrVpYbcUknJTaF4PG0nCjwf0ZIhpIeibttpq6qQdLclKjnvEuocJO1hRZ6SyWSwZ+catu7SmtUGirqVCW5XJLa0kcRtjdrNB9KiPaVnHDgRfYPl+1eyeM4/i4nh8biYiOsRv8Zh1tb+MTnPSGirfvGrWBflRrNAajb78dH2XmzUgkqURnwIy4+SQ9k2fWX7itWk12U2ht6fEafcSj4JKUkjPGfMPIszTfUebLdlLsirpU8s1mRRV4LJ/qHrOwabMo9lUOl1Bk2pMWCy06gzyaVEkskP1HtrQ0NHgOHiJidSIiJmJiZ2x9ntcGHauv2txmWpnhOOMYxERPs7+kdfBpp+YrU6lXHqJferFx2VatIrs+iUuNQ6lzeTZRJKoipMh5KDcdcW+24aUGe6JBoI0GeVH2I1Iots6hRLodvifX7Tg6XqqvLkOk/wA4EmYgkyEoaIkOOuJwRGlJZNWCxnAtjuk1625WqzP0o1HhW9TrhnLqc+l1ShHU2GpbhFvnYppkMKZNxRba0qNxO2alEktpWYWJ4LtCj0SDbK7qnrpsGxkWW2omUJklsPIdRMJzOyS0qQkyTsGWSI8+YfKY7ZYz4X8+TKP/AJTH4iI29DKpxyjvmYr3c+M+WMfXfxlKlq5UJceoWtcVhXBaFTqdvVCpUlya9GcS+TLRbxvbjur3byCcQrZVjJZNJnsqxBaG6yzHrH0qo12WlcMJF1UKFGp1dnvMONz5qIG+UlaSdU8hTiGnlpU4ktrZPOFGRHZWtJLvrdRKr6i6iRK3Lg0yfTKXyGh8gaY5WhKHH3km+6bruygiLZU2jCl+TxIyirO0CuKjw7Jot4alJrtJ0+httUVmLR+QvnJTCXDKQ+7vnCcNLbruwlKEERqIzNZpIxcJnGc7jaeWvhz38d49k7e0y3xiO/fz5a+G0+1IxNcoNTvR7TSp23OodXl0ydOgk/PhPLcbjmkl7bTDy3GFGTiFJ20lks8SURpELalfrjfgWU26E1eYdYRpoicU9TylSOUFTNsnd4Z7Rr2vK2s5zxHTpv4MkiwZ1vPrvKmyWLbgT6cwiFbrcJ2aiS22jfzHSdUp+SW7ypzySWalHsJM8i7UvSnm3QePolz9vNxahWxznyXG1iJyff7nb4fO2Nv6Nrzjjzxy5M4jrMRXv/l+Yc2jlhjrYZZdInf3fx/EtS6MX7Zdo6Q1LVh25dVbgfo1qx6rWmbjTVzaWZM71w4hT20NLUZpVxaMywZccGWb1V/CNp1tyalFuqwbio64NHTcTXKDjq5RTEyG2pD5bDitg2CdQ442vCiSfAjPgXRB0Z1Nk6W1LSW79U7eqNKk25zBDegWm7DfYMmiaS8s1znScwkjygiRkz+EXQLbcOldPubUKHelWmNvwWbZqVsyaW5G2kyWpjsda1mva4ERRzTs7J5285LGD59fK87w6b+zumvOvHv+HU0cZjGIz61Ht8L8r9dYbULVGiQ6jLtpbdwIRSZluLkVClPttJ30+opZYj7RnlRHglOpx+SWRZyohjO+EVSWKreUdyxrkOlWPLcp1RqyExzZcm7LCmYrDe9J51105CEp2UbJHglKTtFnEtvwcuYdNG7ElXzLqlQVcFLrkqtSomXZCYEqMuOyaNvhiPDZY2trpI3NnJmkS7uhsGZb9+W/OuF/ZvS4fGJmQxHSh2myEJjbk07RqS4pt2IhwjMiI+g08OPHF80+FTXv/hXlzezaPjzbcsX1vy3+u3t3dMvXtq3+do186fV+3J9Pt2bc8aNJdivlPiREpOQhpxh1aCdbNxolIUZflEmRqLJl9UbXuHUJ0SNVLEuGjM1a3pNy0iRM5Pszo0cm1Oo2UOKW04SXmlEhxKTMleYyURYVY0Oue9GKvK1D1EiVOrSraqlsUx+n0M4UaCzPS2TzymVPuKedM2Wv5RCcJMiSnJmJyuaR88zbameMG58XbdqdB2eSbW/5W1Hb3udstnY5PnZ452sZLHHOrzxpZTh/VW3v/l/9fZ9rjyTljGXTe/8ATX/V6pWKL4S668u1mafpBeBvXxRjrVupUqElMtlCG1uk4rf4jmhLzavxuztEoiTlXkj6q/hV6f0i2bcrUprks+5XJ7LNLqNTg09yO5BeNiYl16Q8hn8U8RN+QtRqNRGkjTkysVtaPeLsjTZ/xi5R+D23H7fxyTY5dvGore++Ge6xyXOz5WdvGeHGpl4MzlPYo9Qod2Uwq/RZ9wPsyqpQEzobsWrVFU11hyMbyFGaFbskuJdSeUGeMKNI5tWMYymMJ2vb3b19v92Mf6Ymevr18UjSfCWoF1R7RVY1o1m4pN4wKpNhsw3ouwydPfaYkodeU6TRYcd2SUlakq2fJM8lnAc8IS4q1XdOEWZp3Pl0u7pNTiVFMiTGakQpEMnUPMGRu422nWV7RltJUScJMzMXalaZPQbste7JFairet2i1OkusRaamM1IXMeiuqdQlK8NEk4plsYUZ7eTVkjNVapug1VoEO2Tt++WGKlbdy1uuokSaQbzL7NTkyXXo5tE8k0qSmTspcJfSglGgyPYEius+P3n7V7foZf0xXX1593hu2rWJc2BSpk6nUp2pyo7C3WYTLjbbklZEZk2lThpQk1HwI1KJOT4mRcRpvwe/CdV4QlVr8GnaPXpa8W2n1QZ82vNMMNpnJPCoqUpcNanElk1EScJLG0ZGpJHu8BAAAAAAAAAAAAAAAAAAAAAAAAAAAAAABh1r4pl/Uq+wWIV2s/FMv6lX2CxCS1i1FZdsU3U1VRuy7zfluKlLjsRt8pCWEERGReSZH5/1cBJ2XHdtHUCoWPDmuSKUuGU1htxW0cdWSI05+nJ/wCYZNR06uGm1WVVbBucqUU9ZuSIzzZLa2j6VJyRl/m4fKKhV6De2mNaavVqeqtpkYRPWaDIzMzLyVFxMi4FhRdBkXDzHrqz07m8AGPT5Sp0FiYuM7HN9tLhtOlhaMlnCi+UhkDjcoAAAAAAAAAAAAAAAAAAAAAAACu0X4pifUp+wWIV2jfFMT6lP2DUMZD/AMbRPqXvtQMwYb/xtE+pe+1AzBUgEU98bSPqWvtWJURT3xtI+pa+1Yk9GofYAAy0AAAAAACUon8t/R/eJQRdE/lv6P7xKAAAAAAAAAAAAAAAAAAAAAAAAAAAAAAAAAAAAAAAAAAAAAAAAAAAAAAAAAAAAAAAAAAAAAAAAAAAAAAAAAAAAAAAAAAAAAAAAAAAAAAAAAAAAAAAAAAAAAAAAAAAAAAAAAAAAAAAAAACPuD4knfUL+wSAj7g+JJ31C/sCCXSI2lt1JRzTiRGXEcrc4rfNB54ebZMSQ4tz8jN/bXf3DTFXLr3Nb6vi+tH7Abmt9XxfWj9gTYCWvLCE3Nb6vi+tH7Abmt9XxfWj9gTYBZywhNzW+r4vrR+wG5rfV8X1o/YE2AWcsITc1vq+L60fsBua31fF9aP2BNgFnLCE3Nb6vi+tH7Abmt9XxfWj9gTYBZywhNzW+r4vrR+wG5rfV8X1o/YE2AWcsITc1vq+L60fsBua31fF9aP2BNgFnLCE3Nb6vi+tH7Abmt9XxfWj9gTYBZywhNzW+r4vrR+wG5rfV8X1o/YE2AWcsITc1vq+L60fsBua31fF9aP2BNgFnLCE3Nb6vi+tH7Abmt9XxfWj9gTYBZywhNzW+r4vrR+wG5rfV8X1o/YE2AWcsITc1vq+L60fsBua31fF9aP2BNgFnLCE3Nb6vi+tH7Abmt9XxfWj9gTYBZywhNzW+r4vrR+wG5rfV8X1o/YE2AWcsITc1vq+L60fsBua31fF9aP2BNgFnLCE3Nb6vi+tH7Abmt9XxfWj9gTYBZywhNzW+r4vrR+wG5rfV8X1o/YE2AWcsITc1vq+L60fsBua31fF9aP2BNgFnLCE3Nb6vi+tH7Abmt9XxfWj9gTYBZywgnYtYebU05TYqkLI0qLlR8SP+gOlMO7G0k21KJKElhJG+hRkX6zayYsYBZyq7ye8PTE943/ALIDjXeZYOWgy+sb/wBkLEAWtK7ye8PTE943/sg5PeHpie8b/wBkLEAWUrvJ7w9MT3jf+yDk94emJ7xv/ZCxAFlK7ye8PTE943/sg5PeHpie8b/2QsQBZSu8nvD0xPeN/wCyDk94emJ7xv8A2QsQBZSu8nvD0xPeN/7IOT3h6YnvG/8AZCxAFlK7ye8PTE943/sg5PeHpie8b/2QsQBZSu8nvD0xPeN/7IOT3h6YnvG/9kLEAWUrvJ7w9MT3jf8Asg5PeHpie8b/ANkLEAWUriol2OJNt2USkKLBkT6EmZfrJrJDuai1hltLTdNipQgiSkuVHwIv6AnQC05VbcRORVovLI7TWWXtnYdNeeKM58kseYZw4qvxtA+pf+1sciwlUCKe+NpH1LX2rEqIp742kfUtfasJ6LD7AAGWgAAAAAASlE/lv6P7xKCLon8t/R/eJQAAAAAAAAAAAAAAAAAAAAAAAAAAAAAAAAAAAAAAAAAAAAAAAAAAAAAAAAAAAAAAAAAAAAAAAAAAAAAAAAAAAAAAAAAAAAAAAAAAAAAAAAAAAAAAAAAAAAAAAAAAAAAAAAAAAAAAAAAAR9wfEk76hf2CQEfcHxJO+oX9gQS6Rxbn5Gb+2u/uHI4tz8jN/bXf3DUsx1S4AAy0AAAAAAAAAAAAAAAAAAAAAAAAAAAAAAAAAAAAAAAAAAAAAAAAAAAAAAAAAAAAAAAAAAAAAAAAAAAAAAAAAAAAAAAAAAAAAAAAAAAAiKr8bQPqX/tbHI4qvxtA+pf+1scjUMz1BFPfG0j6lr7ViVEU98bSPqWvtWE9CH2AAMtAAAAAAAlKJ/Lf0f3iUEXRP5b+j+8SgAAAAAAAAAAAAAAAAAAAAAAAAAAAAAAAAAAAAAAAAAAAAAAAAAAAAAAAAAAAAAAAAAAAAAAAAAAAAAAAAAAAAAAAAAAAAAAAAAAAAAAAAAAAAAAAAAAAAAAAAAAAAAAAAAAAAAAAAAAj7g+JJ31C/sEgI+4PiSd9Qv7Agl0ji3PyM39td/cORxbn5Gb+2u/uGpZjqlwABloAAAAAAAAAAAAAAAAAAAAAAAAAAAAAAAAAAAAAAAAAAAAAAAAAAAAAAAAAAAAAAAAAAAAAAAAAAAAAAAAAAAAAAAAAAAAAAAAAAABEVX42gfUv/a2ORxVfjaB9S/8Aa2ORqGZ6ginvjaR9S19qxKiKe+NpH1LX2rCehD7AAGWgAAAAAASlE/lv6P7xKCLon8t/R/eJQAAAAAAAAAAAAAAAAAAAAAAAAAAAAAAAAAAAAAAAAAAAAAAAAAAAAAAAAAAAAAAAAAAAAAAAAAAAAAAAAAAAAAAAAAAAAAAAAAAAAAAAAAAAAAAAAAAAAAAAAAAAAAAAAAAAAAAAAAAR9wfEk76hf2CQEfcHxJO+oX9gQS6Rxbn5Gb+2u/uHI4tz8jN/bXf3DUsx1S4AAy0AAAAAAAAAAAAAAAAAAAAAAAAAAAAAAAA1rqnUUx7ktinzK/X6ZT5TU9T50cnlPLUgmtjKWkLUZFtH5sFkSZGygFIj3ZEt6LQaFS4lw3A/VmJL0RcktmQom1JNW9N/dmj8pw2iLgki6TLOTTNSKXUDpqHadMhuTqg/SXUP7GYstpJq3azSoyPaJJ7JpMyPh8ovXp67kvvW4BTH7xplTrUGIzzo0lmuuUtDjDiUtSHkR1rWSy6VNlhSf+MkvMQ62NUoLsGdVl2/VG6dBecicpNLZ7+Ul/cky0glba1KVjB42eODMjIw7r9d35Xvr162XcBU2b+NqW7Tq7bVSpEooTs9hD62XEyG2iLeElTa1FtFkspPHTkdFE1LYq79F39tVSnxLgSZ0+XJ3Ww6vdm5sGlKzWkzSlRkaiIjx9JBG5O265gKA7q7DZZRPXalbOA5UHaWiUhDSiXKS4pBISnb2jJSk4JWNnJ4MywYkG9R4LESsO1qjVCmSqKphL0Nwm3XXTe4M7s21KSs1q8kiI+ksHgO6zvpbwFNc1JYgsVYq5b1Rpkyk046oqK8tlano5ZI1IU2tSckZYMjMjIzLzGOyFqA5Lns05y1KrFdnw3ZlN36mSKYlGyZpLCz3asLSeF7PA+OMGB69fNbgFQ0tuSuXVaMSrV6A4zIcJR75Smtl8ttRZSlBnskWCLiRHw8/SMRV9Uyhqqyibq059VeTSmo7jrZ7UhbaFEho1GlKG8H/GMuOflDvr163O6/XrZegGHSZsuoQW5U6lP055RqJUZ9aFrRhRkWTQpSTyRZLB9Biss6lw3n4z/MNSRR5s0oEerK3W4cdNRoSezt7wkKUWySzTg+HmPId9Hda5AKBJ1ehRGpE9y1a0umxaiulPTG0NqST5OG2REjb21EpWyRGRYyoi6c4z/wjMR4ledq9vVGnSrfhpnvxXVNLU4wpKzSpCkLUk+LaixngZB3Wd9LgAqEbUFbsuFGlWpVYaKs2tVMdfUySZS0oNZN4JZm2pSSMyJZJ6D6D4CHs7UiqP0SnzLro0trnCrvU1uXtMm2SjfeS2RkhWSJOwlvJlxMyPj0i1vSXFW2OAi6XcEar1Sq02Ky4ZUh1uO68eNhbqkEs0p8+UkpOfpPHmMSgigAAAAAAAAAAAAAAAAAAAAAAAAAAAAAAAACIqvxtA+pf+1scjiq/G0D6l/7WxyNQzPUEU98bSPqWvtWJURT3xtI+pa+1YT0IfYAAy0AAAAAACUon8t/R/eJQRdE/lv6P7xKAAAAAAAAAAAAAAAAAAAAAAAAAAAAAAAAAAAAAAAAAAAAAAAAAAAAAAAAAAAAAAAAAAAAAAAAAAAAAAAAAAAAAAAAAAAAAAAAAAAAAAAAAAAAAAAAAAAAAAAAAAAAAAAAAAAAAAAAAACPuD4knfUL+wSAj7g+JJ31C/sCCXSOLc/Izf2139w5HFufkZv7a7+4almOqXAAGWgAAAAAAAAAAAAAAAAAAAAAAAAAAAAAAVC8rfuqdXqHcNqPUlMilNy2loqJubCieJssluyzktg/6xbwAVWFQrll1yh3DcLtMTJp0WdHkIhbzYUby2jQaNss8CaPOfOfARbmndQXQ7ghJmxUzp1cXXKa9hRpYdJSFN7XDPSjCseZRi/AJXr439RTItiSYkK0orctlS6FMVNmOKIyOQ4tl1Lii4dKnHTVx+kfPiBJdss7ccqDbM1mpPVOLIQk1obd5WuQ1tJPG0XlESi/Xg+gxdQFnf168Ere/Xf+VG8U7urstVTu2dSUvxqfKhQmKehzdkt9KSW64pfH+KREki4EZ8THcmyKgVMsmDyuPt2w8y5IPysOkiOto9jh8qiPjjgLmAsTyzcezyWd4qfb5qI5p/Ul2zTaIU2MTsK4Dq61+Vsqb5Wt/ZLhna2VkXyZH1c+nCrneuPlMqOlqrtU/k5LbNwkOxVrWW8QeCUgzUkjLPEs9HAXkBmtq9etlia9evFrSHpjP8X6/Tl0e0qVLqtOcgsrpMRaCyojypxZ8cZx5JF5ukxaJltS5NxW3WEPtE1RWZTTyTztLN1tCS2eHmNJ5yLGA1c1TNevXuVmwLfrVq0U7fqciE/GhuLTBcYJZLU0a1KLekrgSuJF5PDgImZZNbTFr7MaPQKimtVY5pxqm2tbJsm0hGyeC4LJSMkeDIXwBOu/r1s1fr170BZFvzrZt1mk1GoFLeS4455O1u2kqUaiab2jNWwgj2SyecF5ugqZbukTlvVWM23R7RfgQ5O+anOwFHUNglbSUmednbLo28+YjxkbSAW97TupQ3NP6ku1pVBKbG3z9f53JflbJN8tS/snwztbJY+TIxtR6BJj0u97lU82bEy2yiIbLO2lTRPKMz82D3hY/UY2KOuRHYlMORpTDbzLqTQttxJKSpJ9JGR8DIT15V9Fjrfrrf1UmlWzdlVqNEnXVUaW5Bof98Q0w2lpdkOm0baVu7R4ThKlHspzkz6SIsCIq9EkWpp7cNGuGqU5MMnJEqjOtGopBvqeW+2RpVwNwnDRskjpwNoJSlJElJEREWCIvMQ6ZMGDNUyqZDYfOO4TrRutko21l0KTnoP6SFynmlnGOWItC2HRpNEtmM1UUEVRlmqdUDLzyXjNbn9Rnsl9CSFhAAmbkiKgAAEUAAAAAAAAAAAAAAAAAAAAAAAAAAAAABEVX42gfUv/AGtjkcVX42gfUv8A2tjkahmeoIp742kfUtfasSoinvjaR9S19qwnoQ+wABloAAAAAAEpRP5b+j+8Sgi6J/Lf0f3iUAAAAAAAAAAAAAAAAAAAAAAAAAAAAAAAAAAAAAAAAAAAAAAAAAAAAAAAAAAAAAAAAAAAAAAAAAAAAAAAAAAAAAAAAAAAAAAAAAAAAAAAAAAAAAAAAAAAAAAAAAAAAAAAAAAAAAAAAAAEfcHxJO+oX9gkBH3B8STvqF/YEEukcW5+Rm/trv7hyOLc/Izf2139w1LMdUuAAMtAAAAAAAAAAAAAAAAAAAAAAAAAAAAAAAAAAAAAAAAAAAAAAAAAAAAAAAAAAAAAAAAAAAAAAAAAAAAAAAAAAAAAAAAAAAAAAAAAAAAIiq/G0D6l/wC1scjiq/G0D6l/7WxyNQzPUEU98bSPqWvtWJURT3xtI+pa+1YT0IfYAAy0AAAAAACUon8t/R/eJQRdE/lv6P7xKAAAAAAAAAAAAAAAAAAAAAAAAAAAAAAAAAAAAAAAAAAAAAAAAAAAAAAAAAAAAAAAAAAAAAAAAAAAAAAAAAAAAAAAAAAAAAAAAAAAAAAAAAAAAAAAAAAAAAAAAAAAAAAAAAAAAAAAAAACPuD4knfUL+wSAj7g+JJ31C/sCCXSOLc/Izf2139w5GEVM2FuLZqE1knVm4pLbuynaPp4YGmFjAV3m97rio9/7g5ve64qPf8AuCltYgFd5ve64qPf+4Ob3uuKj3/uCi1iAV3m97rio9/7g5ve64qPf+4KLWIBXeb3uuKj3/uDm97rio9/7gotYgFd5ve64qPf+4Ob3uuKj3/uCi1iAV3m97rio9/7g5ve64qPf+4KLWIBXeb3uuKj3/uDm97rio9/7gotYgFd5ve64qPf+4Ob3uuKj3/uCi1iAV3m97rio9/7g5ve64qPf+4KLWIBXeb3uuKj3/uDm97rio9/7gotYgFd5ve64qPf+4Ob3uuKj3/uCi1iAV3m97rio9/7g5ve64qPf+4KLWIBXeb3uuKj3/uDm97rio9/7gotYgFd5ve64qPf+4Ob3uuKj3/uCi1iAV3m97rio9/7g5ve64qPf+4KLWIBXeb3uuKj3/uDm97rio9/7gotYgFd5ve64qPf+4Ob3uuKj3/uCi1iAV3m97rio9/7g5ve64qPf+4KLWIBXeb3uuKj3/uDm97rio9/7gotYgFd5ve64qPf+4Ob3uuKj3/uCi1iAV3m97rio9/7g5ve64qPf+4KLWIBXeb3uuKj3/uDm97rio9/7gotYgFd5ve64qPf+4Ob3uuKj3/uCi1iAV3m97rio9/7g5ve64qPf+4KLWIBXeb3uuKj3/uDm97rio9/7gotYgFd5ve64qPf+4Ob3uuKj3/uCi1iAV3m97rio9/7g5ve64qPf+4KLWIBXeb3uuKj3/uDm97rio9/7gotYgFd5ve64qPf+4Ob3uuKj3/uCi1iAV3m97rio9/7g5ve64qPf+4KLWIBXeb3uuKj3/uDm97rio9/7gotl1X42gfUv/a2ORiswN2+mS5MlPrQlSU75zaIiPGcf1EMoEBFPfG0j6lr7ViVEU98bSPqWvtWE9Fh9gADLQAAAAAAJSify39H94lBF0T+W/o/vEoAAAAAAAAAAAAAAAAAAAAAAAAAAAAAAAAAAAAAAAAAAAAAAAAAAAAAAAAAAAAAAAAAAAAAAAAAAAAAAAAAAAAAAAAAAAAAAAAAAAAAAAAAAAAAAAAAAAAAAAAAAAAAAAAAAAAAAAAAAI+4PiSd9Qv7BICPuD4knfUL+wIJdIw1TZDjrjcKIl0mlbC1Ld2C2scSLgeRmDApH+O/tjn7htxy+9/VurmPWT9gN/VurmPWT9gZg+H32YrLkmS8hplpJrccWokpQkiyZmZ8CIi84XRcsbf1bq5j1k/YDf1bq5j1k/YGFEvWzZ8mmQ4N20aRIrbC5VMaantLXOZSWVOMpJWXUEXE1JyRCZBLYe/q3VzHrJ+wG/q3VrHrJ+wMwALQrVdnOqcSVKSk2lGhW1I85dP8UdvO87q1r1g/ZGIx+XmftTg7gadvO87q1r1g/ZDned1a16wfsjqEfSLgoNwoku0CtwKkiHIXEkqhyUPEy+j4bSzQZ7K05LKT4l5yASvO87q1r1g/ZDned1a16wfsjqAB287zurWvWD9kdL9fmR9japSVbxRILZkec/6I5GLP/wAX/aEfvAZ/O8/q1r1g/ZDned1a16wfsjqAB287zurWvWD9kOd53VrXrB+yOoAHbzvO6ta9YP2Q53ndWtesH7IinLgoLVbatp2twEVd9hUpqnqkoKS4yR4NxLWdo0EfA1EWMiQAdvO87q1r1g/ZDned1a16wfsjqAB287zurWvWD9kOd53VrXrB+yOoACRX5kZG8XSkqLJF5MjPT0fxR2FV55lnmxovo5R/ZGFP/g3/ACjf+uQyQHbzvO6ta9YP2Q53ndWtesH7I6gAdvO87q1r1g/ZDned1a16wfsjHddaYaW++6htttJrWtaiJKUkWTMzPoIhi0atUa4qYxWrfq0Kp0+Uk1MS4b6HmXSIzIzStBmlRZIy4H0kYCS53ndWtesH7I+VVmelJq5sbVgs4KRxP/6R8AA5j12bIaS8iloJKuJbUjpLsjs53ndWtesH7Iwad/AWPqy+wZIDt53ndWtesH7Ic7zurWvWD9kdQw6VWaPXYpzqHVYdRjE4tk3oj6XkbxCjStO0kzLKVEZGXSRkZGAked53VrXrB+yHO87q1r1g/ZHUADt53ndWtesH7Ic7zurWvWD9kdQAOw6vPIs82NH9HKP7I6W7ilOIJaaYjB+Y5HR/9I+hGRvyZ/WL/wBYwEnz/L6tb9Y/shz/AC+rW/WP7IwQAZ3P8vq1v1j+yHP8vq1v1j+yMEAGdz/L6tb9Y/shz/L6tb9Y/sjBABnc/wAvq1v1j+yHP8vq1v1j+yMEAGdz/L6tb9Y/shz/AC+rW/WP7IwQAZ3P8vq1v1j+yHP8vq1v1j+yMEAGcVfln/6Nb9Y/shz/AC+rW/WP7Iwi/rHADO5/l9Wt+sf2Q5/l9Wt+sf2RggAzuf5fVrfrH9kOf5fVrfrH9kRM+oQaVEcn1KYzFjNFlbrqySlPHHEzEF+EvT//ACxpPrSfvAulz5/l9Wt+sf2Q5/l9Wt+sf2RUY2oVjTJDcWLdlLdedUSEITJTlSj6CLiLAB1TMCqlMc3LrO6dwaiIlbRGRYzxwXykM8V+l/GzX1Ln2pFgABFPfG0j6lr7ViVEU98bSPqWvtWJPRYfYAAy0AAAAAACUon8t/R/eJQRdE/lv6P7xKAAAAAAAAAAAAAAAAAAAAAAAAAAAAAAAAAAAAAAAAAAAAAAAAAAAAAAAAAAAAAAAAAAAAAAAAAAAAAAAAAAAAAAAAAAAAAAAAAAAAAAAAAAAAAAAAAAAAAAAAAAAAAAAAAAAAAAAAAACPuD4knfUL+wSAj7g+JJ31C/sCCXSMCkf47+2OfuGeMCkf47+2OfuG3HLsrHxTN/ZnP9Ux+U/wDuftuaV0rShWo7vguXTJu6m2xckpy+qgchdvVFtCZCTim3v90rab/EqLdFxSvjniP1fkMIkx3Yzmdh1CkKx04MsGNbabeD1YWleiH4ALZeqqrY5HOhbcqQlyVu5a3FO/jCQRZy8vB7PDh0jNTEZzHWYqPP8/FvGcJy04z6Rlc+7b8fd42s/Uihuap+C3qq/a1LtmlM6Y3XWXqVRI5txYjTcc3FoYbMzMiwkzIs8TMX7Snw99RtQarAqCdEZtUoFx0ypVCls0al1YpMFcdhbzDMqTIioiPHIJs0JVHWokrMi8rORvC2PBJ0ntWdp9NhlV5P4NqFOtyksy5LbjT0OWjYeKQndlvDNJmRY2S+gxF6d+BVpJpXU6lNsiuX1T4c2JKhw6Um5pJwaSmQRk4qG1n8UvyjNKzNRpMzMsBETEV/+VfHPOfpMe6XDhjy3M9ZnHyxxj6xPv2Rngh+EzcfhCN1tV2v2XTqjAQ04u3Ka5NRV6Qo1KJbM5mU2gzNPkETjZbCjz9A9HjVulPg52NpNc1XvmDVrmuO6q3GagzK7clWXPmqiNqNTcdKjIkpbIzzgk5PBZM8FjaQ3NVFevXq+qxdz69eunRX2Py8z9qcHVV/imb+zuf6pjtY/LzP2pwfUhlElhyO5nYdQaFY6cGWDHHqYznhOMd8ObTyjHKJl+Ongi2Q3XaZo3VNDdM7/puo8a6Tfuy70JktUOTRUSXd40pxTu5XhskINKUJM1JUR7Rnx9DaOa7VrRWxb2gWdake4bsvnXat25Q4kyWcaKmQ4pB7x9wiMyQki6C4nnpIe0NFNHbS0E03pelljuVByjUhT6o6p7yXXzN55bq9pSUpI/KcVjgXDAok3wM9FKnZVcsapQ6xIiVu6JF5FL5wNqZAqrxkZvRXmySbezjgR56TzkcmpN53j0+XWcbiPDbGfjNs4bYzGXW/tlUz8Zj4bdzRGqHhZeEW1pHrJaZ2zblqao6VtQZFXmwJi5MI6bLaNaZEM1pMyeLyC2HCMvKz08C7XPC61602snSul6hUSyqTJuigtVGTeVceqK6KvawUeO46y2o25TjeHFrcMmyUo8ZIb/tDwR9GbP0/u3T1mm1Sqx77aNm5KlVqk5KqVSLYNCTckKPa8gjPZJOCI8njJnmALwI9OF2VT9OJuoep8y14UZUJ+kvXU7yefGNxSyZkJSktpCdrZLZ2TJKUlnBEJFxft5fnF37usfKdqmoszExHx+3z7/dFb3Fzv2mzG6jTotQZfYebksoeS4wvbaWSkkZKQr+Mk85I/OQ4n/4v+0I/eOKVS6fQ6XDotIiNxYMBhuLGYbLCGmkJJKEEXyERERfqHM//ABf9oR+8XKuaeXoxF1F9WUPAf+6MwtPqjr9oBD1TsmuXda7jNycvo1EafdmyiJmOaCbSwtDh7LhIWeyovJSeclkj9+ChXfovZ97an2Pq3WXaimuaflPKkpZfSlhXLGiad3qDSZq8lJYwZYP5RmIjnxmekfiYbusMojrMfeHj7Qu+tVfB+0XdpiYyKL40XfUV2Jb97t1SbU2KG22k0IRDhNvSVbJ5MyPZSgj2jPCiM7xB8Oe8b0sDTJjTfTGBK1J1NqFVpkWnVKc5Hp0NVNUZSn3HDSThowRKS3hK+JkfFOFb31i8HXTrXCq2xXby55j1K0pDz1Ol0mpuwXibeJJPMKW2ZKNtwkJJREZHgsEZZPNMleA3oVJ01pGmRRq7GjW7VJdYotUiVI49SpkmS4bjpsPtpLZSZnjZNJlhKek0kZS5mf5dPPaojf2xd+3w6pUR09vnfd7JqvZ8nnTW3XC5tD/CPtbVzWC3KfHuel6T1FEimUl5b8RycupG0whDhltJaWo2zNSsbJKPPEhufVLwktXdMbLtVue3p65flSor1cqtHZj1aaaW04MkMNQm31E2RGaDkurS1tFw4HwupeB1o69Kp8mrlXqyUC1ploKRU6kcnlUKU6p15by1ltreNa1GS9oscMFwIQ8rwFdGahEtiNVavekx21KQ7b8aUquKbelUxSlKTEkm0lJPNINR7KTLiRElW0ksC53ONY+2vnlP3j6d2+omJyicvCL+EYx9p+vuqMfwyNSdSJ+m1saGaWUeoXBeFqJvSqtV2rKjxoUEnN0phtxCTUt1ThKIlGnBFsmaTyezT6d/uhV4y9NrYnS7FpMW87xums0KFHSxOlw4Menkg3HXWoaH5D6/LSnZZLBmZqySUmM/XnwVqlbsTTWk6K6G1W9Ts2lOUePV2b/Tb8yNH29pLEtRJI5UdW0o1Jb2Fl5REotoxY9KfANtRnweLb0y1cW4i5KTVpdwtVO25rkN6kzZDmVJiPFxJKUEhB5IyM05xwIykTzTMx03/wDlFV/yxP53tj+nliev/wBZ6/8ANX42QNy+HNqbSdO7XuKRpM1bD9Urc+jViv3FBqbdEpqY6UG1KUgmEyiak7xJI20J2DJZKM9kzHrexq+d02bRbjVPpM1VSgsyVSKS+b0J1SkEZqYWfFTZnnZM+OMZGr6n4J9l1GxaVp43f+pEKlU9uWzKVGuh/fVZElRKeTNcXtG8SuJF0bJGZJwR4G07OtC3bAtWlWTaVOTAo1EiNwoMZK1LJplBYSnaUZqVwLpMzM/ONx0m+vq/XkT1ivb/AGSE/wDg3/KN/wCuQyRjT/4N/wAo3/rkMkQeOv8AdC6ncNGrmgVWtO2fGKsxNRGHoFJ5aiHy58mlGhnfuEaGto+G0osFnJikUXVjUU/DfLUHXTRlzTd23dJapLOmt3BGrS5ENmTvVPJcYJKUmZktJIPj5Oc4MewNS9GbQ1WrFm1u6HagiRYtbbr9LKK8ltKpKCwROkaT2kcegsH9I6qzodYtf1Ya1iq7MuTWW7cftZUZxxKobsF1w1rSto05UozMyztYxwwGEzhE11vLzwjGPPyamsqv2eWV/R5s018M++tYX26VU9MFtW3elCqsmFNp9LqqTou7jLcaRNkyYzcV7epSoiXHWpJKIi45IxTPBy141RsDR3wbtIdMLKoVfm31blwPp5zlrjJZeiPOLbUbickTflGai2FKMiwnBnkeldM/A70n0lqlQm2fU7wbgzIkmDGo0q4H36bTmn87wo0dZmlBnk8GraMsnjpGpr08CZlzUPQ2zLWp9dVpvYlEuGBNrDVabjVGnuyUEuOtDiFIdNe9M8KbQZERYVwM85xitTbpNeUak/fGvGXFnEzWXhfnOn9om25vBd1xuHW+z67IvS2IdCue0rgmW1WY0GQb8VUmPs5cZUfHYMlFwPJlg+Jjcoo+jujVh6FWY1Y2ntOejwCfclyHpMhT8mXJcPLj7zquK1qMiyfAsERERERELwNz3fD59/m1F9/t+Xd5ManfwFj6svsGrPCy0rTrP4PF72C3FN+dKpi5VNSn4RTWDJ5jZPzGbjaS/UZl5xtOnfwFj6svsGSOPUx58Zxj17fg3p5cmUZeDwTpxfn91xqr4OsWRJ5XT7FtFd83CXSTlXJXImUL+RSH2nV48/EcWl4ZLFg6T2zT7J0qtahV69rwuCmQodNpk1VNjNwXPx0t2PCbekvOK2kEaW05MzMzNKUmPUGi3gzaXaCVy7rhsCJObl3nNKZP5U+TiWcLcWTLBEkt20SnnD2ePT0irTfAf0Qn6ewtPHk3C21Sq3LuGl1aPUzYqdPmyV7bqmX20p2SM+GyaTLgXnIjK5TlOcZR0mJmY9s5Yz5YxMfCOndiMaqO6No90Y5RH+qYn4y1/RfDcvGNJsOq6i6coti267Mr1HrUyXFmR1ty4MXlMeRGKSltfJ5CCPCXGyWlSVJM+GTj9J/Dj1A1AiWjArdjUej16oXBVG7hibLyigUOFT25pyUEa9reKbfYSRqyk1L6OOBt+7/A80lvnR+laK3JMuiZRqRUedW5r1YceqLskzc21OSHSUpW1vVkZYIsGRFgiIT1D8GvS63tZKvrhTafKTXq1Sk0iRHU6k4SWSbZbNSGtnyVqbjtJUeTIyTjAu+9de7ym5983Hd/Hwa228/OPpU++O9o3RPw4711ZvK3SPS5wrSvByU3DfhUurG/SEtks2nZkl2MmE6hzYwe4dPYNREZngxePA8161o8Iq0omot52LbVDteZHlMx5EGW6qRJmsy1NmaWlGZIZ2EmWTUajWlR4JJkJ3TDwPtJNH7wXdljTLriR0nIVDoTlefcpEBb5KJ1TEUz2SMyWv4RqxtHjAvOjGkFqaE6d03TGyXJ7lHpS5DjCpzyXXjN55by9pSUpI/KcVjh0YGsZiN58Pz6/wBkm6mPb5VP3rZdxGRvyZ/WL/1jEmIyN+TP6xf+sYg7QAAAAAAAAAAAAAAAAAAAcl/WMafUINKiOT6lMZixmiyt11ZJSnjjiZjJL+sUbV6juVy3IUHm+fMjnU2FymoKNp7cESto0l/V0/QEE7Qk/wAJen/+WNJ9aT947Y2oVjTJDcWLdlLdedUSEITJTlSj6CLiNQ/g00//AMjtQ/VU/cMSrabWommSVUKz79Kok0o4pvRU7snMeTtYLOMjVQxzZNo6t0uNXKRRqLMU4mPOrcVh3dqwrZVt5wYhv7nPT/8APVb1lPsCy6jNzOR0aZDpsudyGsxpTrUVreObtG1kyL+oPwhf/sPdv/Nn9oSJmtlmImd1CvDQqyrftaq1uA/U+UwYrj7W3ISadpJZLJEkhuka6vG7JVetWrUaDZF0lImxHGGzcp2E7SiwWT2ugbFCb7yIiOjIpfxs19S59qRYBX6X8bNfUufakWARoEU98bSPqWvtWJURT3xtI+pa+1Yk9Fh9gADLQAAAAAAJSify39H94lBF0T+W/o/vEoAAAAAAAAAAAAAAAAAAAAAAAAAAAAAAAAAAAAAAAAAAAAAAAAAAAAAAAAAAAAAAAAAAAAAAAAAAAAAAAAAAAAAAAAAAAAAAAAAAAAAAAAAAAAAAAAAAAAAAAAAAAAAAAAAAAAAAAAAAI+4PiSd9Qv7BICPuD4knfUL+wIJdIwKR/jv7Y5+4Z4wKR/jv7Y5+4bccs8BqLXfXZvSluNSaTBam1qa2byUvGe6YazjaVjBqMzIyIiMugzPzEdaf19vfTXUCLZGsdNo6m5rLbqZVH3ijYJalJSZpV8IspPJEWS6ePQLW1vnOJ/VHZvCcVlwuplN4zjjlMRM44zlfLGU90zXw76eggFUTVbqlZkcqp1OS4eURnIC5DjafMS1pfQk1fKRFgujKsZOVt2sSarGdbnxksTYiyafSg8trPBGS0cTPZMj6D4lxI+jJ9XT4mM8oxnGYvpff9490xEvpstOcYu4n166JYAAdlxopVGkk884zPQlLrinNk2M4z9O0HNE7rJr1c/aEqAFormid1k16uftBzRO6ya9XP2hKgBaK5ondZNern7Qc0TusmvVz9oZ7M6FJkSIkeYw6/EUlMhpDhKWyakkpJLIuKTNJkZZ6SMjHDdQgOznqY1NjrmR223no6XEm622s1Ehak5ySVGhZEZlg9hWOgwLYPNE7rJr1c/aHW7Qpj2xt1JvyFkssR/OX9ITIAWiTpM4jIjqTXHo/vc/aHPNE7rJr1c/aGTMdUidTmyPg68sj/mbUf7hgXveFG0/tKq3pcDqm6fR4y5L5pIjUoi6EpI+lSjMkkXymQmWUYxOWXSG9PTz1s409OLymaiPGZ6O7mid1k16uftBzRO6ya9XP2h5mPWDwzrjuG35FnaTW6VCueEdUgG8tbqGoxZMkyJJOEltw07J4xx2yIuJGRbp0M1dRrdZyrjp1KYgToMpyn1SA5LNaospv4SSUlBkpJ5IyUXSRjq6HG6evlyY3E+2Kv3fOHsdodgcX2doxrak45RtfLlGXLM3ERlXTeJjwuOq4c0TusmvVz9oOaJ3WTXq5+0JEzlMyUR5TLSTcQtaTbdNXwTSR5ykvnEOwdt4lyiuaJ3WTXq5+0HNE7rJr1c/aEqOmbOhU2K5OqMtiLGZLaceecJCEF8pqPgRAWwOaJ3WTXq5+0HNE7rJr1c/aEqAFod2hzHkbC6k3jJHwj/IefnfQPvmid1k16uftCVAC0VzRO6ya9XP2g5ondZNern7QkiTOeWtMRhhZN4ybjxo4n+pJiKrdSuCjQZU1NIgSeSMLfNluc6bqySkz2UpJg8qPGCLzmC7vvmid1k16uftBzRO6ya9XP2hkSKzTYja3pUkmm20mpa1pUSUkXSZnjBEXyjNBLRXNE7rJr1c/aDmid1k16uftCVAC0OzQ5jDSGUVJvZQREWY/9offNE7rJr1c/aEqAFormid1k16uftBzRO6ya9XP2hKgBaK5ondZNern7Q4OkziMiOpNcej+9z9oSww5jqkTqc2R8HXlkf8AM2o/3AWxuaJ3WTXq5+0HNE7rJr1c/aEqNfak6kVmzazSKPRreanrnodkOrfeNtBttmkjQgyI/L8sjyZYIvMeTNPJpaWetnGGEXMuHieJ0+E0p1taaxjrK2c0TusmvVz9odCLdlNkaU1JGDMz/g/ynn530jQ8jUnUC2r2cvKrPTpdKfU+ldGJ8ibbYNKtySS+CSyUTe0rpPK+ngQ2pozqm7qrQJlUlULmuTAlnEebS8braj2SURpUaUn0KLJGXA/1jtcR2dr8NhGpnH8dt/bPd73m8B29wXaWpOjoZfyi9vGI7/dN7LNzBL6yb9X/ALQcwS+sm/V/7QmgHRexaF5gl9ZN+r/2g5gl9ZN+r/2hNABaF5gl9ZN+r/2g5gl9ZN+r/wBoTQAWheYJfWTfq/8AaDmCX1k36v8A2hNABaF5gl9ZN+r/ANoOYJfWTfq/9oTQAWheYJfWTfq/9oOYJfWTfq/9oTQAWheYJfWTfq/9oOYJfWTfq/8AaE0AFoXmCX1k36v/AGg5gl9ZN+r/ANoTQAWheYJfWTfq/wDaDmCX1k36v/aE0IWqTJUmW5S4ck4bTDZOS5ZbO0kjzhCM5IjwWTUZcCMscTyViLLOYJfWTfq/9oOYJfWTfq/9oQe+om1HaTCrRMyXCZYmm89lxfHGFbe9MuBntY2ccc44jOpyZsW6Ysd+rS5aHoEpSidURF5DjBI8lJEWSJauOMntH9A3+3NWnNvTPiQHYNWY3slL22y7jDezjBo+k89ImRhv/G0T6l77UDMHG1AIp742kfUtfasSoinvjaR9S19qxJ6NQ+wABloAAAAAAEpRP5b+j+8Sgi6J/Lf0f3iUAAAAAAAAAAAAAAAAAAAAAAAAAAAAAAAAAAAAAAAAAAAAAAAAAAAAAAAAAAAAAAAAAAAAAAAAAAAAAAAAAAAAAAAAAAAAAAAAAAAAAAAAAAAAAAAAAAAAAAAAAAAAAAAAAAAAAAAAAAEfcHxJO+oX9gkBH3B8STvqF/YEEukYFI/x39sc/cM8YFI/x39sc/cNuOWkNeV6hadXrF1jsanMzmypZ0uYTjCnijp29vbNKTI8Hw8roLHHpIUTVXVaq+EVWoNj2XTnkWkl6PJlypUTdvMuoNZLM1ks07OyrgXSZj1RcVOk1aiTKfDW2h95sybNzJI2iPJZxxxkvMNY/gxv389RPXHv9iPm+3+1O1OCrT7O4WdWZj+q9sZ93f49YeHh+j9HtDV1f3uNnT0NTKMs9Plvm8ayv+MZf5oqb7ph27i0f8maP6g17Is2mJoOnyd2hKUfitlKSwSS2eBEXmIVT8GN+/nqJ649/sRfLGtifbFLOLUpzEl9zYzuWjQhBEnGzkzM1efysJz8hD5X9H8D2pocbOfG6E4Y11mvy+87V1OFnRiNDPmn4vM+kVQn6W6iX/qI7LkOWjc2pNVoVwMmW03Tpe+QmFPL5qFKXyd0+jymFHgkKMS1O1unab6d2JZluxCXW7gbrM5Eh2h1Kqsxo0adsrNUentrdUpSpDaSyaEl5RmrJJSredL0ms2m0G6rZdhuz6ZedQnVKrR5ayWlxcsiJ5BYIsIwXAukvlFeY8HSzoFo2ra9FuC6KXKsxl2PSa5EqJFUkNOmRvIccUg0PJcNKTUlxCiM0pVjaSRl+mzfLhj4RjHyxiJ8/Lbang5zGWrnn4zlPzymY8vPffdUqZ4Rl5LpSKhXLC5tfqVqzqnSYslmTGckVWHM5K4wpL6UOJaeN6G41tNpXsOK2iyXC1aYat3Df9cpNGfpEFg49spqNyKaNZlFqa5Ko6YzRmfwSXFnbW1k8Ib+U8ztY0dtS4I1ox6zLrExVm1BupQ335ynHpDyMmXKFqybqTXsuGngW02jzFgZ1kaZ2xp/UbkqVvJlJduiqOVaYl53bS26vipLRYLYbNanHNnj5brh+ca2u59vx8Pr3f8Ali+rjnpt7PXl/qlo66bMty6/CfvBdf0IpuoPJretwm5MtEFR00lPVDJp5SoleVgj8jPwOPmFnuLWnUpUS973si3rcetHTuXMh1BioPPJqFUVDbJcs46kfi2Nnyko2yXtqQed2kyMbZp9m0imXjWr4jKkHUa7DhQZRKWRtk3FN42tlOMkeZDmTyeeHRjjTri8Hyy7jrdUqTtVuKDT7hcJ6vUODUjZptXc2CQapDWDVlSEpSvdqQThERLJZCT4R6nbu746tbXc+z5RHT2TdfhRPwpuW3cd7Vu16a1UaneFw27S6ExLWplk35VLYUhb6iI1JQhslrUREZnsbJcTIQ72pV26UX9qreepVNpM2qUy17RjMFRESTYmuyKhU2WPxRIdfby68lKkpJ1WCM07RmSS3JcWilk3PHrrFQRPaVXZcKob6JJNh2DKiNoRHeirQRG0tBNIMukjPJGRpM0nGQvB4sVtFynXKhX7gk3fT4NPq8up1FS33iiOPOMOoW2SNy4lT6jI2tgkmhBpJJkZmx/jjnEd8zXu2r49d/bHwkbxjGXhF++JuZ91VUe9QKZ4R+oibUueoT7KKdOoj1GKFLKg1WjxJ/LpqY646W6g224TrRHnbSakGTiDwnigb2tBV3rt2Iu/WaOzXVbw5bdIcdciI8tWwSFOklasI2MmZFlW1giLAq8LRulotyVblcvK7bhRLlwZSpVWqRPPI5I+h5lCNlCW0p20FtGSNpZGe0ozwZbADv8AkkdN0fUPjOlfXr/6pQpvhA6fT9U9G7osSkuJROqURKou0rZJTzTqHkJM/MSlNkkz+kX12Oh15h5XwmFGpP6zSZfvHaMamnjq4Thl0mK+bscLxOpwevhxGl/VhMZR74m483g61PChszSa06H4ONY0qvhuC/SZUK4ideXzi3NeIyNMVJGWWzM1YNJpIiWkyLJHtbs8A3SWuaZab1adW6fKppXHUlz4kCWolPx42ySWydMiItvZIjPBF+ougb8egwnJbUx6nMSFt5LKkJ2uP0mM8qitJERQjIi6CJZDoaHATpZxnnlzcsVG0RUbfPo+j7S/UmHG8Pnw+ho/t/uTGWpPNOXNlEzNxcbdfbtEb+PXUvjKJ9Q//rNjSXhF2xbl5XRo9bd20KBWaTMvN4pEKdHS+w7s0aoqTtIURkeFJSZZLpIjG6X3HJUxl82d2lptxB5URmZqNB/9kxTtTNLqdqaxRSlXJXqDMt6o86U+fRn2mpDTxsOsHxdbcSaTbfcIy2fOPRjaYmfGPq+Vy3uI74n6NP3RVLa8GHUKU9ZdNdj2u7ZFSrVQtmCa+TMSokqK3GdYZSStwb3KnW1E2jCt2k9k1J4w1d1lvS/NPL/tm6rYcQyzQU1GPVY1vVelxkqN9KFxFlUWW1OOJylSXEcFp2jNDZpwe6qPoTYNOt+u0GrNVO43Loi8irVSrdQdlTpzGFETanjMjbQnbUaUNEhKTUakkRmZj4haI0hq2qxa1ZvW8a/FrMdENS6tVt+5HYQZmlDXkkkjyfFxSVOKwW0pWCxcdpjmm6ifrP0uPl4bGW+8RXqPxPz8d41vqL4T9xUC+7ht2zLTkVePZsliJUYjdt1mbJqTy2Gn1NxpEWOuMwaW3kY3qj2lZJRNpwsy9VdVLDu/WO6bzqNFqtpWlyNVPpcOFKKYS3o7SmG0qJSy8o3CJzDalGo8pLGEjZ1X0YoNRvGRelPuS56HIqS2XKvEpNTOPFqi2kpS2p9GDMlEhCUGttTalJSSVGoiIi+q5orZ9xV+4a1VX6q5GuumpptapSZZphTCQnYQ8aSLbQ8lHkktC04IiPGUkZYrLkiuu/0/LU1zezb166qxolrFeV/XFVbcuq2nENxYTU+NVo9v1alRjNSzSuIpFRZbUtxHkqJxBmS0qMzS2ZYPcgqdh6eN2KmTtXndVxOSENtJdrtSOSbLTe1soQRJSkvhHlZkbiuG0pWCxbByTW1MRdzfr16ro+qe7sLnKxnd7Ksf0R5svfwvahTZVboFJswo0xBqYYnc5EvdrIsEvdmzhXH+Ln+cegpdOmuvLeg3BPpxuERLTHQwolGXQf41tfH9XARz9GlvU6q0WuLmXHDqqCbd5S4wyrdmnZU3+KbQWD+XBnxPiPU7J4vgeE1Zz43Q/djav5TjXtqNp907PB/UHAdqdo6EafZfF/sZb3/CMua42i53x98bq3QtSJOpWgtduyZRZFNf5nntuJWgybdUhhWXGjPpQZ9HyGRlxxkdHhNf+bpqf/8AKNW//BHBZrnbrNUsqq2jR7WZhpm0t+nRv76QlpnbaUhPBJcElkuBF0EMy9bTpd+2fW7Irin006v0+RTZZsLJDhMvNmheyoyMiVhR4PB8R53G5aevnqToY8uM3UXdRPSLex2fhrcPo6WHE58+eMRzZVVzHWa9ryzYVYtHS64K1fFI0qXpnDsmw36lXbbbOO2/cBObpceWhqItyOtLfJ5De92zcJTxpUlJYzZI/hO6jR7avWs1Kymnzodpz7khSU2/WqbFjvx0kZQX1T2Gd+aiURk60ackhzLaPJM9zXVpBZV5v0l6vQ3XuaoMulGglJJMyBJZ3T8V/h5bStlteCwZLbQZGWDzDRtArfTaVesqq3pelapddpT1E3dTrJvnDhOJNJoZynBqIjwTrpOOcCI1GXASZjLOZnpv5zM/ePlPdtPNhHLGMT7L8vxPzj4RLerl+21eUm3NR6XakKNOtefdFKksT3WW4aYa2UPR5rriTLBcpaVv0JIiIllscCM6ZF8J29oUW+4FUotGqtUtu3GLlpr1Pgz4cWShx5bRxjKWlKnTSpBYebPYWS+KUGnB7gvfR6y9Q55TrpYlyCOgVG21sIfNttcOaphT2TThRLzGb2VEoscfoxXo3g32glyrS6xc92VyfW6K3QJk2p1FLzy4jbxuoIsNklJkozLJJIjLiZGozUecKv8Al7f+qv8Ap9Xcm+Tbrt/03/1fP3VXpmpvhAFe1w6bQresTnil0Zi548xx+WqLyN1bzZQ1oLCze3jCi3xGSNk9rd58g6/WvC0rNUi294h20TUqpWrTbrlJl0Kr1ZBImpcNmGk6bHc3SjNpeXnMEXDZbc8rZ3qdgUI73qN/7crnOqUVihPlvC3RRmnXnUmlOMkvafXk84xjhwFMa8G+zadAt6LbNx3Xbsm3aJGtxM+k1MmJE2nMFhtiTlBoXsmajSskpWg1r2FJ2jGe6vX+b/6/Kdp3vXfPr/y//by6d1/s6vSLptKjXLMosujv1WAxMdp8tJpfiLcQSlMuEZEZKSZmk+BcS6BkVD4zpX16/wDqlDKhRGoENiCwp1TUdpLSDddU4s0pLBbS1GalHw4mZmZ9JmOXY6HXmHlfCYUak/rNJl+8ayqZmuiY3ERbtHm696hc1v6mPSL1W69GlvSHKMvlBGwiOkyLZS3nyVElSCUrZ4mfwuJEPSI1hqvofD1OrdNriq/Mpr0Nk4zpM7KicZ2jVgiVkkqyZ8fOXSR4LHd7O19Ph9eM9X+nv2v5e14/b3AavaPBZaOhP8tq3qPj1uK3po687itqRRYz8eZVlXCuW6dRS8a+S8nwvZ2Mnu8Z3eySPKIiPaxxzI+C7T9R37obrVPlSmbLNcpMhpyQSmX3cKT5DWT2VE5gzVgskR9JGMWk+DTeVYvip0K4HZcK3Yu+OJUUPNrW+WTJkscTyRYNWSLo8+Rv3RzS1rSe2n6Emquz3JUpUp11SdlO0aUpwlPHBYSXnPJj1uN4zhdPhJ4fQy5pym94urjunumHznY/ZHH59oY8ZxeEaeOEctYTONzjO05R/mjLr8Ia18LW3q3clV0rjWsf/h6Dccyq0gjWaCXNi0qW+y2oy6ErU2Tav96tQqWtl8x9a4Nlzrdbkt0CgVC1LonKWZoUU+ZV4rMWItJdKm2zlrcSfwVbn5R6Xrtm0i4q9blxT1SClWtMenQSbWRINx2M7HVtlg9oth5eCIy44P6BWYuhGn0ChVm3qdElxYteuVq65ptv5Uqc3KZkp2TUR7Le8YQWwRY2ckWM5HzXfHvifjE/ip/5YfexMXF+74etvjKmXHrVqUuJe972Tb1uP2lp3LmRKgxUHnk1CqKhtkuWcdSPxbGz5SUbZL21IPO7SZGO6ra6XXHr1w1anUKleIln0WNcdYnyFulOdhuwXnyajNJylT202kzNZpSSTx5RnlNiuLwfLLuOt1SpO1W4oNPuFwnq9Q4NSNmm1dzYJBqkNYNWVISlK92pBOEREslkLW3YFspm3DLehcoaueMxDqEV4kqjrYaaU0SCRjgk0LMjI85Em/26j+rb51v8Jnp4QbfuX/l3+V7fGIu5758Gq9GNeL11Du9mjVy01t02p012pMyWLfrMBNNUlSNmM89OjttSVLS4Zk40aeLai2MGShc9d61rLbWns24dDbfoVfuGnZkKpNVS9/fjCUmakMG2tP47o2SVwVxLgZkMrT3SWmacukVMu27KlCjx+R0+BVasqTHgR8kZNtJMiNeNlJEt03FkRYJREZkd5G8q7mYvva80IrWsty6ewrh1yt+hUC4ajiQmk0pL395sKSRpQ+bi1fjunaJPBPAuJkY2GACKAAAAAAAAAAAAAAqM6O469ctP2EvOyltyEMmZFvGjYbRs8eGDU04XyC3CPqtGbqKmpLT6o0tjJNPoSRmST6UKI/hJPBZL6CMjIyIxrCYxndJ6IOq1KzKwpmVKqbyZrDSibjMS3GZRErBmg2kKJWcpLpIc2nGhJqTqpEKVHqjMYvJeqLstJMuK47JrPGdpstrBcMFxMjHedOu41bk3KSSejlP43P69z+7eCUpFFapZvPqfXIlSTI3n3CIjURZ2UkRcEpLJ4L6TM8mZmfJlyY41jNsRczcw7H/jaJ9S99qBmDDf+Non1L32oGYOFywCKe+NpH1LX2rEqIp742kfUtfasSejUPsAAZaAAAAAABKUT+W/o/vEoIuify39H94lAAAAAAAAAAAAAAAAAAAAAAAAAAAAAAAAAAAAAAAAAAAAAAAAAAAAAAAAAAAAAAAAAAAAAAAAAAAAAAAAAAAAAAAAAAAAAAAAAAAAAAAAAAAAAAAAAAAAAAAAAAAAAAAAAAAAAAAAAABH3B8STvqF/YJAR9wfEk76hf2BBLpERAp0GUuY7JiNOL5W4W0pOTxwEuMCkf47+2OfuG3HLGlFaUF3czXKZHcxnYdcQhWP1GY+GXbNkOpZjyaS64s8JQh5tSjP6CIxzZFAodQtSmVOfRoUmXNjpkvvPMJWtxxflKMzURn0mJh+0LWkMrYct2mklxJpM0xUJMs/IZFkj+kTmXlYvMtJ6uY7BBzLSermOwQwrMkvzLTpEqS4px1yG0pa1Hk1HslxMa58IfXZekVNptAtmiu1y9rpWuNQKalB7DjhGklOLVwLZRtpPZyRn8qU7Sk8etr4aGnOpnO0eq989zscFwWt2hxGPDaEXlPwiIjeZmZ2iIiJmZnaIi2Br3r/AKdaEpg0+VQOfa/PMnUUmHgnURE8XZCzJKtlKUJWoiMvKNJ9CSUpOwbCuSwdS7WhXhZ6ok2nzUEZGSU7bS8Eam3ElnZWnPFP2kZGNM6RadULR5+RqBq3dcOp6iXTtOVCqzHUkSCLGWGM4IkpI0EZkRZwkiIkklJVe5KJWfBvr72t2ijJVGwKoZSLmtpheWmGjMjVMiJI8EWMngvgccZbMyR5scVxWllOtq1y9+Mf1YR3TPj/AOqO7uut/pp7N7J4vGOA4TKY1o/p1MprDVy78Yia5I7tPKes3z1ccvq/mWk9XMdgg5lpPVzHYIYVm3bRr7tal3jbzrjlOq8ZEqOpxs0L2VF0KI+gyPJH0lw4GZcRTddbrl2dS7UqzE+fGYXdlNYmFCadecejqNe23u2iUtwjwXkpIzP5B7nCaU8ZqY6enP8AV0fH8Rjlw3PGpFThdx37Xce/Zf8AmWk9XMdgg5lpPVzHYIawVq9Q6lqTTVQ6jWoVGp9uVeoVNNQpE2ntfinIhpcxIaRvDSk3fg5xtH0ZLM9RNVyqNRocWr2XWqHFufaKkS5qmDS+sm1OpbWhtxS2lqaQpZEsi+CZHhXkjsZdn8ThjGU4zG11O09Z7p67YzO3c4f39O+vrb8wuPMtJ6uY7BBzLSermOwQ1vF16YmNUKSxp9cio1zuuRKQ7iP/AH1KQSlKaNO82my2W3VbxZEjZbUecGna7JXhA2tT6AmqVOnyIFQ55eoDlNmSozCmpjSTW4SnlukySCbIl7W3xJSSLKjJIv8Aw3i7rk398e7x7pip8O8niNON5n11bE5lpPVzHYIOZaT1cx2CEFpxqLQtTaC9XKHlJRZjsCU0bzTu6fbxtETjSlNrIyUlRKSoyMlF58kUxVWJjak1SnvYdjpMlsuLw0830mR+ZJ/Ir+vgOrq6WejnOnqRUw5MM8c45sZ2dvMtJ6uY7BBzLSermOwQ7afNZqUJioRiWTT6NtJLThRfr/74PzDQ+s9zUmmasswLuv8Au23KDHtNyoZob8lBFIKVs7xZMpUR4Tw8stnoIc/BcJlxmr+1jd1M7Rc7eER1Z1c/2sJznurzmI+7efMtJ6uY7BBzLSermOwQiNOHbmfsShvXipaqyuGhUtTiUJcNR9BrJHkks042iTw2s44Cxjr6uE6WeWF3UzFx028GsMufGMvFh8y0nq5jsEHMtJ6uY7BDMAYaYfMtJ6uY7BBzLSermOwQzAAYfMtJ6uY7BBzLSermOwQzAAYfMtJ6uY7BBzLSermOwQzAAYfMtJ6uY7BBzLSermOwQzAAYfMtJ6uY7BBzLSermOwQzAAYfMtJ6uY7BBzLSermOwQzAAYfMtJ6uY7BBzLSermOwQzAAYfMtJ6uY7BBzLSermOwQzAAYfMtJ6uY7BBzLSermOwQzAAYfMtJ6uY7BBzLSermOwQzAAYfMtJ6uY7BBzLSermOwQzAAYfMtJ6uY7BBzLSermOwQzAAYfMtJ6uY7BBzLSermOwQzAAYfMtJ6uY7BBzLSermOwQzAAYfMtJ6uY7BBzLSermOwQzAAYfMtJ6uY7BBzLSermOwQzAAYfMtJ6uY7BBzLSermOwQzAAYfMtJ6uY7BBzLSermOwQzAAYfMtJ6uY7BBzLSermOwQzAAYfMtJ6uY7BCKoFNgSOcd/EaXu6g82jaSR7KSxgi+gWEQ9t/+lf/AIm/+4EZnMtJ6uY7BBzLSermOwQzABUamFEh1aNyWO21tsvbWwnGcGjH2iSGG/8AG0T6l77UDMBYBFPfG0j6lr7ViVEU98bSPqWvtWJPRqH2AAMtAAAAAAAlKJ/Lf0f3iUEXRP5b+j+8SgAAAAAAAAAAAAAAAAAAAAAAAAAAAAAAAAAAAAAAAAAAAAAAAAAAAAAAAAAAAAAAAAAAAAAAAAAAAAAAAAAAAAAAAAAAAAAAAAAAAAAAAAAAAAAAAAAAAAAAAAAAAAAAAAAAAAAAAAAAj7g+JJ31C/sEgI+4PiSd9Qv7Agl0jApH+O/tjn7hniIgOzkLmFGiNOo5W55Sntk88PNsmNuOXxZFeodPtWm0ufWYUaXBYTGfZekJQtDiPJURkZkfSX84mH7vtaOyt9y4qaaW0moyTKQozx8hEeTP6BEyqcU53fTbZpkhzGNt1SVqx+s0D4ZpDEd1L0e1KS04g8pWg0pUR/QZNicq8z6s2M/DtOkRZLZtutQ2krQosGk9kuBiF1Rcp8SmUup1A2G0xKoysn3SIt0RkojMlH0cOAs+/q3VzHrJ+wG/q3VzHrJ+wNRszLyD4T9fRXvFrxWlN1Pccs3/ACZW3u9rc7OcdGcKx+oxdqRdlELRSLR5NZioqPMaWVxlOkThObvBp2enOfMPQceoVKTvN3TWfxThtqzJPpLp/iDt39W6uY9ZP2B1tPhcNLis+KjrlER8q/Ds6nFZ6nD48NNVjfn/ALsiNGjQozUOHHaYjsIS0000gkobQksJSlJcCIiIiIiFdvmy/HRNBTzlyPmOuRK1+R3m+3BqPd/CLZ2tr4XHGOgxNb+rdXMesn7Ab+rdXMesn7A7elqZaOUZ4TUw6uURnE45dJuJ+PVXrt07p941pmfVZRnCKiVKiSIhI4vNzDY2lEvPkmkmDLGDzt5yWOMVRdMrhbqFAdu69265CtVzfUplFM5M8bpMLYS5Jc3qydUTbivgobLaPOOgiuKp9SQ+3GOms7bqVKT/AHyeMJxn+J9JDt39W6uY9ZP2Bz4cZr6en+1jO3TpG13dT1jrO8fhjLSwznmyj1t+IU2naV8ghWFD5+3niRMdl7XJccs24siPs42/xeOUbWfK+Djz5KHn6FFIfnVSJccZNTduWTcUNcqlJkx2t/GQwuO6ypZb1OynO0SkHtbJljHHZW/q3VzHrJ+wG/q3VzHrJ+wN49ocTjlzRlv7o75ue7xmfp0SdHCYqY9RExH1Ydp0KRb1HRAmSIL8g1qcdchU9MJk1H81pKlbJEWC4qUfDiYyahTnak+2zIeIoCS2nGU5JTys8EqP5nyl5x97+rdXMesn7Ab+rdXMesn7A6meeWeU5ZdZckRERUMwiJJElJEREWCIiwRF8gqczT+LUNQHb1nS23479vroD1OcjkpLiFPbxSzWauJGWU7Oz5858wsG/q3VzHrJ+wG/q3VzHrJ+wNaepnpTM4TVxXwkmIyip9nlNx5wirBtWVZNsRrWfrSqnHp6ltQXFtGhxqISj3LKzNSt4baMI2+G0SSMyzkzsIw9/VurmPWT9gN/VurmPWT9gTU1MtXOdTPrO8pjjGERjj0ZgDD39W6uY9ZP2A39W6uY9ZP2BhpmAMPf1bq5j1k/YDf1bq5j1k/YAZgDD39W6uY9ZP2A39W6uY9ZP2AGYAw9/VurmPWT9gN/VurmPWT9gBmAMPf1bq5j1k/YDf1bq5j1k/YAZgDD39W6uY9ZP2A39W6uY9ZP2AGYAw9/VurmPWT9gN/VurmPWT9gBmAMPf1bq5j1k/YDf1bq5j1k/YAZgDD39W6uY9ZP2A39W6uY9ZP2AGYAw9/VurmPWT9gN/VurmPWT9gBmAMPf1bq5j1k/YDf1bq5j1k/YAZgDD39W6uY9ZP2A39W6uY9ZP2AGYAjlT6kh9uMdNZ23UqUn++TxhOM/wAT6SHbv6t1cx6yfsAMwBh7+rdXMesn7Ab+rdXMesn7ADMAYe/q3VzHrJ+wG/q3VzHrJ+wAzAGHv6t1cx6yfsBv6t1cx6yfsAMwBh7+rdXMesn7Ab+rdXMesn7ADMAYe/q3VzHrJ+wG/q3VzHrJ+wAzAGHv6t1cx6yfsDqkz6lFYcku01nYbSalYknnBf0AEiAw9/VurmPWT9gN/VurmPWT9gBmCHtv/wBK/wDxN/8AcMzf1bq5j1k/YGFTYtWp/Kv70Yc5TJXI/LmWztY4fB49HSCMUmNQfwgrknPoniVzQSExt05zhznvcms1/A3O64Y+FtfQK9Bg69ptaz2ajXLMXcLNUbXdbzUaQUWRT9pzbRDSflId2Tawa/JySvoF439W6uY9ZP2A39W6uY9ZP2BY2r2fm/XsUf8AjaJ9S99qBmCNS5LXVo3KozbWGXtnYd288UZ8xYEkIsAino0iRVpHJ5KGtllrO03t54r+ksCVGGx8bS/qWftWCy6Obaj1kz6sftBzbUesmfVj9oSYAzcozm2o9ZM+rH7Qc21HrJn1Y/aEmNYUSddsXXiq0GrXS/Uqeu2kVGNCSwhlmOpUtaCJJFxUrYSkjUpRmZ5xskeCYxzTXv8AKJn7E5TGM5e7zmI+6+c21HrJn1Y/aDm2o9ZM+rH7QourdRvROnSLnpVWm2q9GSw7Mgk2w7IUpbzSd0p4jWhJERrJW7yZ5LCyxx2aBcsOKzVom1uqjH8vGcxj839Md++rfWEX1U/bHaAhcsSbOrcOI9K5bFXukGvZ5MZZx9O2O7fVvrCL6qftjorXxTL+pV9gyZD7UWO7JeVstsoU4s/kSRZMJmMYuVi5mofO+rfWEX1U/bDfVvrCL6qftjQ120+tV3Q8tTl3vddOq0uEVXaTAq7sdptMlaFIa3aDJJk22pKC/UZnxUZnc4lyLsV2o2hbVBvG9F0VCZVRlPVBp9xlTqSUllK5DiVOL2C2yQnJERlxI1ER2Y5f6tkiZmaxbG31b6wi+qn7Yb6t9YRfVT9sa/TrRT6pUoFJs216tcT9ToTNwxjjKZZQcRxSkltKeWgkqyRFsnxyovkUZWm2rqhXhajNy0xqRHbktukbL6SS6w62pSHG1kRmRKQtCkngzLKTwZiZxyYzlMdPX2WJmZ5fXrdL76t9YRfVT9sN9W+sIvqp+2NeWBfLVH0BoGoF51N55LFvRp8+U6rbddVukmZmZnxUozxxPiZiMpnhIWnUVTGTpzqX4BQn5CI1QhzUtxZD5MG8a47q0kTa1FvEmZGST2i2i4jU4/ynFOba21t9W+sIvqp+2G+rfWEX1U/bFEu/Wq17MeqrFSadUdNlQ6elZvMtNvzZCFOEwTjq0oQaGiS4pSzSkkrLiZ8BVX9VafqFOs5y35D8Q4t6c1VFpmc06hz/AMGyXSInY7im3EGSm1FhXAy4kSk8JjjzTER7POvzBllyRMz69U3Lvq31hF9VP2w31b6wi+qn7YqemFYqE6l1ShVeQ7JnWzVZFIdkOq2lvtpJLjDij86jYda2j86tox86qXpcll29ym0LLqNy1iSo0Ro0aOtbTeMZW8pJeSks8C6VHwLBZMldPbv89y5iZjw+y3b6t9YRfVT9sN9W+sIvqp+2Iqzrik3Tb0WsTrfqNDlOpxIgT2VIdYcLpLJkW2nzkouBl8h5IpoSi5dW+rfWEX1U/bDfVvrCL6qftjtAC5dW+rfWEX1U/bDfVvrCL6qftjtAC5dW+rfWEX1U/bDfVvrCL6qftjtAC5dW+rfWEX1U/bDfVvrCL6qftjtAC5dW+rfWEX1U/bDfVvrCL6qftjtAC5dW+rfWEX1U/bDfVvrCL6qftjtAC5dW+rfWEX1U/bDfVvrCL6qftjtAC5dW+rfWEX1U/bDfVvrCL6qftjtAC5dW+rfWEX1U/bDfVvrCL6qftjtAC5dW+rfWEX1U/bDfVvrCL6qftjtAC5dW+rfWEX1U/bDfVvrCL6qftjtAC5dW+rfWEX1U/bDfVvrCL6qftjtAC5dW+rfWEX1U/bDfVvrCL6qftjtAC5dW+rfWEX1U/bDfVvrCL6qftjtAC5dW+rfWEX1U/bDfVvrCL6qftjtAC5dW+rfWEX1U/bDfVvrCL6qftjtAC5dW+rfWEX1U/bDfVvrCL6qftjtAC5dW+rfWEX1U/bDfVvrCL6qftjtAC5dW+rfWEX1U/bDfVvrCL6qftjtAC5dW+rfWEX1U/bDfVvrCL6qftjtAC5dW+rfWEX1U/bDfVvrCL6qftjtAC5dW+rfWEX1U/bDfVvrCL6qftjtAC5dW+rfWEX1U/bDfVvrCL6qftjtAC5dW+rfWEX1U/bDfVvrCL6qftjtAC5dW+rfWEX1U/bDfVvrCL6qftjtAC5dW+rfWEX1U/bDfVvrCL6qftjtAC5dW+rfWEX1U/bDfVvrCL6qftjtAC5dW+rfWEX1U/bDfVvrCL6qftjtAC5dW+rfWEX1U/bDfVvrCL6qftjtAC5dW+rfWEX1U/bHTMnVuIxvuWxVeWhGOTGXwlEn5/wBIyxh1f+Bf8sz/ANYkWi5d++rfWEX1U/bDfVvrCL6qftiD1FmS6dp9c9QgSHI8mLR5rzLratlTa0sLNKiPzGRkRkNPaGV56p3DQmLcvi7a80u30S7oYrq3nGoz7iGzjrZU+hKyUtW+4IM0GlJmfEk5Y481+z+/4XKZxiJ8b8q/Lfu+rfWEX1U/bDfVvrCL6qftjWes8qsxp1COZU7kplnKKQVYm28SuVMP/i+TqdUhKnUR8b7aU2WSPY2jJORIMX9T6NFt+17VOqX3PnU05zD7MqOpbkJJkkpLz61IbMlKUlJGXlKPJkXBRlIi49ev7bkzML5vq31hF9VP2w31b6wi+qn7YpL2pTki5nrKYs6uKlx4TEypvtORybprTzbhpNazc8pW02pJE3tmZkZkWyRmIW3dXWXYdv27bVrXLcM6bbEOvMm9Ijk8qM5lJG+84tKN7kizx4mrJcCUZWIua9d/4kmZj17vzDaG+rfWEX1U/bDfVvrCL6qftjV/4Y6zVbksqLbNmzJVKuRicqWp11hp6M7HWltxs0qcLCml7e3jOcESTMbSedTHZcfWSzS2k1mSEKWoyIs8EpIzUf0ERmfmCkuXzvq31hF9VP2xiVh2rnS5RPTo6kG0raJMYyMyx8u2eBRbA1Ru+6brqVFuPSyv29TjUaqVOkxVklxCS4pfPGG1ng1Fxxx2c5IjVfq18Uy/qVfYFFyzBgUj/Hf2xz9wzxgUj/Hf2xz9wLLPAABAAABgUj/Hf2xz9wzxgUj/AB39sc/cM8AAAAYb/wAbQ/qXvtQMzoGG/wDG0P6l77UCs6rUu+K9aj1CsVyGxKn5ZkSJDxo3bJl5RIwk/KV0Z8xZ8+BYi5pJ2fNnas2ne9xVi26NJM5FKXhKjMtmSguCnG/lIlcP6j84uhngjP5B5TtjwddZLRrsO4qLPojUuE4TiD5WvCi86VeRxSZZIy+Qx6mjqkuQ21zGUNSFNkbraF7aUrxxIlYLJZ8+CF14jCJnCUwmZ6teWjrva946X1XU+BTqiwxRYz8mbTpCEplNk21vUljOye22aFpMjwZLLj042JDkomxGJjaTSl9tLqSPpIlFnj/WPLtXs+6bb8Hil3XbtvVGTUZVkeL9wUdppXKH2Vx1JZdJrGTdYdX0Yyba3C6SSMrXKLUKvFqkJNsmip0i2WHKJJRbcqfNkSTbWozjSEKJuIptaU5PG3nifAk5tRcx7Yj6/iPo1lFZxEdN/tX1n6vToDQWoliIuCNqhX51AlTaoxb8N6jOG0s1tTWorqkuxiLoeJZp8pHlZJJDBu2x67bM2V+DKjz4c2sWFMVOdioc25k5t6NsLcXkjXKNC3ySo1EszM+PAYnaZifW0z9vozjPNET4/mI+70WA0roda9MptyVCs0GrOpivU5tqTAYtSRRYxvGvaS6snVGTj5ESkmZeVgy2j+CN1CzFLYAAIoAAAAAAAAAAAAAAAAAAAAAAAAAAAAAAAAAAAAMN/wCNof1L32oFUpOpcq4Ky7GoNiVubR49Rdpj1ZS7FQwl5pZtuqJtTpPKQhxJpNRI6SMyIyLItb/xtD+pe+1A01PmwqVqCxK0pRc8arzq22xXqK5SZaKVJaU4RSZalOtk00skZWTrSy3hkRGSzUYuP9UR66/Qn+mZ9f7tzU2ZMmtOuTaU/T1ofdaQh5xtZuISoyS6RoUoiSoiJREeFER8SI+Ayx5iumlW7ItFVsXdZRyZlXu24Cj1CVQXZvNUNc1xTslBJaXha0bBN8MKUaVcUpMc3ZaNFcrdMpLEdUKw49tRWLdTItKZU2mXm1vE/htCkrYkGk2TJak7aseSZGRkaton3fS/Xx8Ej8/WvXqXpwBD2bCkU20aLT5VQmTno1PjtLkzWzbkPGlsiNbiTMzSs+kyMzPORMBMVNETcWAACKAAAAAAAMOtfFMv6lX2DMGHWvimX9Sr7AgVm8NUqFZN5WlZ1Yiyt7d7slmNLQSTZjraJsiJ0zPJba3UISZEflKIjxkfV6an0KybktW1Z8eTIn3bOOFFSwSTJkiLi65kywgjNKeGTM1Fw6RVtW7LlXvfVu0ppDzLa7errbc9LRqRDl72AuM4Z4wSkuNktJH07s8dApjFLvS75tsalXfasiDWn7splP5KTSlHEhxEPpdcPp2UOSVPLJXQaNyZ+Ya0ojLLGJ8d/ddfP7GpHLhOUeE/OImfXtj2vRggr7ujxJsqu3hyHlvMtPfncn3u73u7QatjaweznGM4PHyDRM6iQnqdV48m1qwvVc68+dPqqqbIWtJKmKVGdblkndoipjmglJ2ySSSWlSTUeDwNT6JTptD1Vj3bZtZq97SHJqbfksUuQ8vkK46SjpjPoSaG0JLbJxJKLKtvaI9osscbmI9d3T5+Sx138fz5bebfty3i/bNCrNdlW/JU1TUtclLfNkU5bhJJJJMjM0FvFkgzWRdBmRGWDORoVQr01tSK/byaZIbbaUo2piZLDi1EZqS2vCVmST4Ga20ZzwIxp7UCyY9z0/UWNWLVKptuVWjPw0Pw96SzSxGQtbZGR5wRuJMy6PKI/OOnUC2a9TKde9OselOwIDa7eb3UOApxJ05tWJKGWkGk3CJraI20Hk05SXEyHHM169fFnG5iL8Ps3e/8bRPqXvtQMwaf0RtynUKpVGRRKpvqfLSkkRGLceo0RhxJFtraZdM9pSyUjbNOCygvPkbgG5ipax3gGGx8bS/qWftWMwY79Pgyl72TEacXjG0pJGeBFZADD5mpPV0fsEHM1J6uj9ggSmYKymyzRqO/qCmpll6iIo5RDY+Dsvqd3u3tcfhY2dnzZz5hNczUnq6P2CDmak9XR+wQRNTceriicbip9VN/WEHctoVK7LEctOsV1nl0htkpE9mEaG1LQ4hZqSybhmkj2cY2zxnpMWgYfM1J6uj9gg5mpPV0fsEBTMAYfM1J6uj9gg5mpPV0fsEBRWvimX9Sr7BkSGG5Ud2M8nabeQptZfKRlgxj8zUnq6P2CDmak9XR+wQkxGUVJFxNwoFFsqoV7Rn8GFVXIpkqnxk0RUl2Ptk4iOpJNvoLJEtK0JQrgrgajI+KTISNWsG5kXFVa9Zd6s0RNwE0dTZkUophm622TSXmFbxG7Xu0pSe0TifISez05t3M1J6uj9gg5mpPV0fsELl/LeSI5ejUELTy47d1Jj0jT+tHRoVHsqDS2JM+mnNYeJEl7goiW1l0iJKskssbR5SZGQ2daVpxrStaPbMaY9J3RPLdkvEW28864px11RFgiNTi1qwWCLOCEjzNSero/YIOZqT1dH7BC5TzY8s+3zmZ+5X8ub3eURH2ayoejN1M6elpZdV/U2p2+1SkU2PyOgKiym1N7O6eNxcl1CjSaCPZNvBnjzcDm6Ppg7zHWqFd02hz2KzCVAc5qoSKbhpSVJUasOOGpR56ckksFhJC5czUnq6P2CDmak9XR+wQkzzXfeRcdGtE6DtqsamW/Muk51wU6qnXV1uXAQ6mXOMlIUp6OasKbNte72CURklKcKIyIxMM6ZTCat9+o1mmlIoNbOtL5topRGXy5M6yTSWkuKNPB3a2jUszMsYwZYufM1J6uj9gg5mpPV0fsELzTd/H5V+ITkiYqfXq5VrTCj1GFS6pXaxHcjzrmq0iruR3E7K2G1ElthtReZRMNNbReZW0XmHOp9F1FrFAI9MLxRQqzHVtJJ+My6xKSeMoWbjazQZdJKSXykZHkjTZOZqT1dH7BBzNSero/YITwjw2+Wy11nx+7CtCmXDSLfiw7quRdcqpJJUqYphplKlmXFKENoSRII+jJZ+UxMjD5mpPV0fsEHM1J6uj9ggKZgDD5mpPV0fsEHM1J6uj9ggKZgDD5mpPV0fsEHM1J6uj9ggKZgDD5mpPV0fsEHM1J6uj9ggKZgDD5mpPV0fsEHM1J6uj9ggKZgDD5mpPV0fsEHM1J6uj9ggKZgDD5mpPV0fsEHM1J6uj9ggKZgDD5mpPV0fsEHM1J6uj9ggKZgDD5mpPV0fsEHM1J6uj9ggKZgDD5mpPV0fsEHM1J6uj9ggKZgDD5mpPV0fsEHM1J6uj9ggKZgDD5mpPV0fsEHM1J6uj9ggKZgDD5mpPV0fsEHM1J6uj9ggKZgDD5mpPV0fsEHM1J6uj9ggKZgDD5mpPV0fsEHM1J6uj9ggKZgDD5mpPV0fsEHM1J6uj9ggKZgDD5mpPV0fsEHM1J6uj9ggKZgDD5mpPV0fsEHM1J6uj9ggKZgDD5mpPV0fsEHM1J6uj9ggKZgDD5mpPV0fsEHM1J6uj9ggKZgDD5mpPV0fsEHM1J6uj9ggKZgDD5mpPV0fsEHM1J6uj9ggKZgDD5mpPV0fsEHM1J6uj9ggKZgDD5mpPV0fsEHM1J6uj9ggKZgDD5mpPV0fsEHM1J6uj9ggKZgDD5mpPV0fsEHM1J6uj9ggKZgDD5mpPV0fsEHM1J6uj9ggKZgDD5mpPV0fsEHM1J6uj9ggKZgDD5mpPV0fsEHM1J6uj9ggKZgDD5mpPV0fsEHM1J6uj9ggKZgw6v/Av+WZ/6xIczUnq6P2CDmak9XR+wQFOi6aJ4y2zV7c5TybnWBIhb7Y293vW1I2tnJZxtZxks46SFZh6YnTJ1nVal1pLFQtinppEt7kuSqUHdpSbSk7ZbBk4hDiVZVsmSiwZKMW3mak9XR+wQczUnq6P2CFia6euv5kmLip9vnX4hFXVSr3qDkVyzrvgUbdktMhE2kHOQ6R42TLZeaUhRYP+MZHnoFQp+jE21lUup2NdyKfWIUORBlSJ1OKWxMafkqkr2mUONbBk8tZo2VkSSUacGWMbE5mpPV0fsEHM1J6uj9ghImunr1ZVoamWhIh1et1qZVkSJFbhQ4ruxG3aUKZQ4k1kW0fBRuGez5sYyfSNZ0TTq9Lbvun0W1rnTC5ksSnUjnGXR1SIspTb7qT/ABZOo2XCJJKIicPBKPJKyQ3LzNSero/YIOZqT1dH7BCxNZc3rpMfeSYvHl9dYn7KTH0nkUhNpu29c+4l207MW+/MhFI5emWrblGpKVt7C1LyolEZkkzMtky4C/vNqdZcaQ8tlS0mknEEk1IMy+EW0RlkuniRl8pGMbmak9XR+wQczUnq6P2CEKUWw7W1kpl1VKZfepyKxQmVGmmRGafGaW+lRHhb6kNJNJp4eSg+J8ckRbJ3qtfFMv6lX2BzNSero/YIOZqT1dH7BAUzBEQJTjK5qEwJbxcrcPaaa2k+bhkS44tz8jN/bXf3BdLVsTnB7qeo9x7w5we6nqPce8WIBLXlV3nB7qeo9x7w5we6nqPce8WIAs5VTgPyo3KN5SKh+NkLdThjzHjHnGVzg91PUe494sQg7xvGh2NRHa7XZBoaR5DTSMG7IdMj2W20+dR4P6CIjMzIiMxJziIuXHq56ehhOpqZVjG8zPSIdPOD3U9R7j3hzg91PUe4940tavhRSUXjzZfsSHCpFQ/g0hgjzBM1GSSeUZ+WnGCNZEWD442TPZ9EtuIdQl1paVoWRKSpJ5IyPoMjHHp62GrF4vO7J7Y4LtrTy1ODz5uWamOkx8Pb3Ku7IkrnR5JUiobDTbiVfiOOVbOPP9BjI5we6nqPce8WIBy29XlV3nB7qeo9x7w5we6nqPce8WIAs5Vd5we6nqPce8OcHup6j3HvFiALOVXecHup6j3HvDnB7qeo9x7xYgCzlV3nB7qeo9x7w5we6nqPce8WIAs5Vd5we6nqPce8OcHup6j3HvFiALOVXecHup6j3HvDnB7qeo9x7xYgCzlV3nB7qeo9x7w5we6nqPce8WIAs5Vd5we6nqPce8OcHup6j3HvFiALOVXecHup6j3HvDnB7qeo9x7xYgCzlV3nB7qeo9x7w5we6nqPce8WIAs5Vd5we6nqPce8OcHup6j3HvFiALOVXecHup6j3HvDnB7qeo9x7xYgCzlV3nB7qeo9x7w5we6nqPce8WIAs5Vd5we6nqPce8OcHup6j3HvFiALOVXecHup6j3HvDnB7qeo9x7xYgCzlV3nB7qeo9x7w5we6nqPce8WIAs5VVdkSVzo8kqRUNhptxKvxHHKtnHn+gxkc4PdT1HuPeLEAWcqu84PdT1HuPeHOD3U9R7j3ixAFnKrvOD3U9R7j3hzg91PUe494sQBZyq7zg91PUe494c4PdT1HuPeLEAWcqu84PdT1HuPeHOD3U9R7j3ixAFnKrvOD3U9R7j3hzg91PUe494sQBZyq7zg91PUe494x6jIkyoL8ZqkVDbcbNJZY4ZP+cWoAs5Vd5we6nqPce8OcHup6j3HvFiALOVXecHup6j3HvDnB7qeo9x7xYgCzlV3nB7qeo9x7w5we6nqPce8WIAs5VXKQt+rRtuHJY2WXvyzeztcUdAkhxVfjaB9S/8Aa2OQSqBhvPS3ZaokRbbe7Qla1rQavhGeCIsl8hjMGGx8bS/qWftWKSbirdYx/Vj9sNxVusY/qx+2MwUa/NdNGdLp8elajapWvbc2UklsxqnU2WHVpM8EokKUR4MyPjjHAwZtbdxVusY/qx+2G4q3WMf1Y/bHfFlRp0VmbDfbfjyG0utOtqJSVoUWSURl0kZGR5HaBbD3FW6xj+rH7YbirdYx/Vj9sZgAWw9xVusY/qx+2G4q3WMf1Y/bEFO1PsanajUzSWbXN3ddYpz9WhU/kzx72IyokuOb0kbtODMi2VKJR+YjFpAth7irdYx/Vj9sR7k2tNzXIin42G0pVtk0fEjzjhtfQYnBCy/jZ/6lr7VgsOeV1b0qP3B+0HK6t6VH7g/aHA1DK8L7wXIUl6HL19sdl9hxTTra6yySkLSeDSZbXAyMjIFbf5XVvSo/cH7Qcrq3pUfuD9odTD7MlhuTHcS406gloWk8kpJlkjI/kMh2AOeV1b0qP3B+0HK6t6VH7g/aHArlR1Ds+k3vSNOKhV91cVeiyJtPh8ndVvmWMb1W8JJtpxtFwUojPzEYCycrq3pUfuD9oOV1b0qP3B+0OAAc8rq3pUfuD9oOV1b0qP3B+0KvYOpdk6n0+oVSxq1znFpVSkUeW5yZ5ndy2FbLreHUpM9k+G0RGk/MZizgOeV1b0qP3B+0HK6t6VH7g/aHAAOmLU6zI3m29GRu1mjg0Z5Mv6Q7+V1b0qP3B+0MSB/jH7Qv9wygHPK6t6VH7g/aDldW9Kj9wftCDpN7WjXrgrNqUW46fNrNuqZTVoLD6VvQjdRttk6guKNpPEs9JDNrlaplt0WfcNak8np9MjOzJT2wpe7ZbSalq2UkajwkjPBEZ/IQDP5XVvSo/cH7Qcrq3pUfuD9oQtm3hbmoNq0u9rQqPL6LWoyJkGTuXGt8ysspVsOJStOfkURH9AmQHPK6t6VH7g/aDldW9Kj9wftDgAHPK6t6VH7g/aGOurVZEg46no/wCWR7k+JZx84d4j5PxkX1H/aAZXOlW/Px+5P2g50q35+P3J+0McAGRzpVvz8fuT9oOdKt+fj9yftDHABkc6Vb8/H7k/aDnSrfn4/cn7QxwAZHOlW/Px+5P2g50q35+P3J+0McAGRzpVvz8fuT9oOdKt+fj9yftDHABkc6Vb8/H7k/aDnSrfn4/cn7QxwAZHOlW/Px+5P2g50q35+P3J+0McAGRzpVvz8fuT9oOdKt+fj9yftDHABkc6Vb8/H7k/aDnSrfn4/cn7QxwAZHOlW/Px+5P2g50q35+P3J+0McAGRzpVvz8fuT9oOdKt+fj9yftDHABkc6Vb8/H7k/aDnSrfn4/cn7QxwAZHOlW/Px+5P2g50q35+P3J+0McAGRzpVvz8fuT9oOdKt+fj9yftDHABkc6Vb8/H7k/aDnSrfn4/cn7QxwAZHOlW/Px+5P2g50q35+P3J+0McAGRzpVvz8fuT9oOdKt+fj9yftDHABkc6Vb8/H7k/aDnSrfn4/cn7QxwAZHOlW/Px+5P2g50q35+P3J+0McAGRzpVvz8fuT9oOdKt+fj9yftDHABkc6Vb8/H7k/aDnSrfn4/cn7QxwAZHOlW/Px+5P2g50q35+P3J+0McAGRzpVvz8fuT9oOdKt+fj9yftDHABkc6Vb8/H7k/aDnSrfn4/cn7QxwAZHOlW/Px+5P2g50q35+P3J+0McAGRzpVvz8fuT9oOdKt+fj9yftDHAgGQdUqxfy8fuT9oOdKt+fj9yftDoMcAMjnSrfn4/cn7Qc6Vb8/H7k/aGOADI50q35+P3J+0HOlW/Px+5P2hqyb4Qen0OW7FJVRkbpZo3jMcjQrHnSZqIzL+YdP90Zp/wDmat6sn2xeWWebHxbZ50q35+P3J+0OU1qcwe9krZW0nioktmR4+g8iBti56Rd9IardEfU7GdM0+UnZUhRdKVF5jIZ83+CPf8QxGluHFufkZv7a7+4cji3PyM39td/cJKx1S4AAy0AAAApmoWllB1Jdpr1ZqNTirpZPpZ5G42klE7sbW0S0KIz/ABacGWMZP5RcwEyxjKKycHE8Lo8ZpTocRjGWM9YnpPf9Xh3SeyKXqnelOolxypjTL1FOYtcRSELNwtj5yVFjyj8w9n21QIVq2/Trbprjy4tMjoisqeUSlmhBYLaMiIjPHyEQ87TvAwkzW2GHNSYptRmkstpXQDWeyksEZnynBnjzkRfqFs0e8Gj8E94HdfjdGqOYbsTcNUjkx+WaT2tvfL6Nnox5+kdHhsNTS2nD43D87/SPZvanYeX7OrwMfyn+Wp+5hcY//jFzNe9vAAFQrcTVZyXWFW7WbaYjOOU06SmXCeWtpCXczieNKyJRrb4NbONlXwskPS08IzmpmI9/viP7+6JfpUzS3gADCgAAAAAAAAAAAAAAAAAAAAAAAAAAAAAAAAAAAAAAAAAAAAAAAAAAAAAAAAAAAAAAAAAAAAAAAAAAAAAAAAAACIqvxtA+pf8AtbHI4qvxtA+pf+1scjUMz1BhsfG0v6ln7VjMGGx8bS/qWftWKkswfn54Nkjwd5mpeur/AITbllK1DRfExtwrzOPvEUoiSUUo/KuG72drGx5tnzbI/QMUO+NBNE9S6u1X9QdKbVuGpsJShEyo0pl94kp6C21JMzIvMRiMw8jax+EZql+FLUKz9PNfrI0itzS2hQKjR4NTpMWUu60uxN+SWlPrTsM8EtkbJGriXAxlwNevCb1nvXS+2bDvqmafuXzpY9c9QTKoDVQbjTUvEknmkOGS8mWNlKnDQSV5NKzIiP1hd+g+it/zYFRvfSm1K7KpbSGIT0+ksvLYaT8FtJqSeEl5k9BfIJ3xDsvxkiXgVrUwq3AgKpcWeUZJPMQ1GRmwhRFlLZmRHslw4AtvB0DwpfChuHwf9PdWpU+YzQIrVYK/qzadNpsmrMnEluMMyExJhG0TCyaUbhoQZkZHjZ4CW1A8J/VC8tQZVr2F4SNraW2/QLHpd1wqtcFBjOP3W5JZ3mySJCkpZRwIlE1laTM8Efm9VzfBj8HipwKXS6jorZsqHRVvLpzD1IZWiKbrhuu7BGnCdpxRqP5TPIlbz0M0Z1EXTnL60stavKpLaWYKp9KZeOM2noQjaT5KS8yS4fQBbxFamut13trDpDr7cFr4rzuilx1h6mx0KSmQ8y8Zlu08TJLm7JRFx4LLpFr8EXwnPCA1iv20ZNZqcCs29ctOmS65FXULeb5pWlG0yqFHiSVT92SvxaylIUryiPyegvZSNPbFar9Nupq0aS3V6PAVSqfMRFQl2LDVjaYbMi8hs8F5JcOBCItLQ/R2wrjl3fZOmFsUKtz0qTJn0+mMsPuJUZGojWlJHgzIjMvOBa7iFl/Gz/1LX2rE0IWX8bP/AFLX2rFSAeMq9pZpef8Aug1NozmmdrvU13TGTUHYB0aObL0nl5lvTb2NlThlw2jLP0j2aIZdmWm5drd+uW9AVcbMI6a3VDYTylMU17Zsk507G1xx0ZEbeGdBvCy1+1Q1Btp+FyBymVa45NKqNtOz6BFZp1ObU4klR2eUFU1PtpQS1Ets0qIlbKCLBn8UTW/wp5Pgo6leEVUtZoZnQ+dadRYLVtwydbeZqSG0SnHTRsKNLe20Te6wZGSlGauj2XT9EdHqTeq9SKZphbES6XFrdVWGaYyiWa1kZLXvCTtbSiUojPpPJ56RlN6S6ZNWXN06bsSiJtepLddl0goaOSvrcc3i1LbxgzUvyj+U+IUPHEzU3wyT1Er+l7WuNsMyZWnbV/Q6ii0GjOm7PBUNpBuYXtq6XXdvBZNKC+CJ/T3wmtXbyruhC5tfYjxr307rtcrcVmExsSJ8Vv8AFPEpSDWjCiNWylRJPODIyHrFWm9gqrSrjVZ9KOqLpXMapfJk706fnPJtrGd1n+L0DEpukOl1HXRXaVYNDiLt2C/TKSbUNCTgxHvyrLWC8hCvOkuBhQ8WaP8AhBeFI7C8HjUO+9UaNXKBqlUpFCqNGRbzEd1Jp3pplKkN4M3PI+AhCEERERkozNQlLR8Ma67j16saDat9Sq7aN6XJOob1OqbVHaNhptLuw8wzFUc1nCmyLMo8LLiRFnI9gQ9ItL6fTrdpMGwqGxCtGQcqgsNw0EimvHnK2Cx+LV5SuJfKYwaZoPotRau3cFH0rteDUmqgdWRLj0xpt1Mw0qSb5KSkj29laiz/AL4/lAag8Aj/AAA1B/8AxlXD/wBeQ3hd0t2DUYUilSnVVI8tpipI1pW2eTPKfN0f5voyJK2LOtWy4sqFaVvwKRHnTHahJbhspaS7JdPLjqiLpWo+Jn5xKnHYU+mSbKDeSk0EvZ8okn0ln5OAEoGynG3oT8hye7ImuubUpDhmRtK4kRbPm4F0+fH0YKxDrajsMqcWyyhCnVbazSnG0rGMn8p8B2CoxYH+MftC/wBw5qNSp9HgSKrVpzEOFEbU9IkSHCbbabSWVLUo+CUkXEzPgQ4gf4x+0L/cOKvSKXX6XLolbp7E6nz2VxpUaQ2S23mlkZKQpJ8DSZGZGRgQ/PtetdR06urwv9fdLOb7gYYnW1DptRbVyiDvuTtsOumpB4WhrbNSsHjyRK03W3VY63d2j11a7WrrJSa7pnWLhVVqHS40Q6K+hpSeTr5MtSVIMlYI14WZmWSLz+07d0v04tG1X7HtixaFS7elEtMilxYDTcZ4llhe22RbKtouB5I8lwEdauh+jljQapTbN0wtmixq20pipNwaY0yUtpRGRoc2UltJMjPgfDiYlLbwt4OOuuqFms+D1bNG1osu6aBd8IqHLsqDAaKVRENR1KKS9IS4t41kafL2iQguJEk/hFvHwaNZtW6tq5P0y8ICtVuFeD9Ok1WNRUUun8xOQifJLciBMjkb7hbBkRk8s8mZ9Blgb3trQvRqzawm4bU0utik1REMqemZEpjTTxRiTsk0SyTnZ2SJOPk4DssTRTSHTCbKqWnemlt23Lmp2JD9NprUdxxOc7JqSRHjJEeOjgQCavBUVuiuOyJzkVTZktlSFYNThcUljz8f6unzCHtibLqFbN6vS3mpqGSTHjKSbaVIMsqVjznwzj+fzcLe9HYkpSiQyhxKVEsiUnOFEeSP9YHHYU+mSbKDeSk0EvZ8okn0ln5OAI7BHyfjIvqP+0JAR8n4yL6j/tCj6AAAAAAAAAAAAAAAAAAAAAAAAAAAAAAAAAAAAAAAAAAAAAAAAAAAAAAAAAAAAAAAAAAAAAAAAAAAAAAAAAAAAIAIByY1nN8IPT6HLdikqoyN0s0bxmORoVjzpM1EZl/MNmGNT0XTyVTaTEp87Sy1p8iOyltyUuo4U8oi4qMuTngz/WYsV3plfc7v7ozT/wDM1b1ZPti+Wxc9Iu+kNVuiPqdjOmafKTsqQoulKi8xkKV4k/8A7m7T/wCcv/8AWFh08tyZbVLnRZkCJC5VUXpbUaK7vG2W1knZQR7KejB+YhZruSLvdCWBYFk1CyaHOnWtTH5D8Fpbji46TUtRpLJmfnMT/wCDTT//ACOpPqqfuEZbLeoFu2/T6F4q0mRyCOhje88qRt7JYzs7g8fqyYk+ddQP8jKT/wA+K/8A1cSbIqmFpjDi0+LcEGDHQxHYr8ttttBYShJbGCIvMQtk3+CPf8QxBWRSKtSotTcrLEdmRUam/OJph43UoS5s4LaNKcnwPzEJ2b/BHv8AiGHesdFuHFufkZv7a7+4cji3PyM39td/cMy1HVLgMKsVeLRIKp0snFFtJbQ22naW64o8JQkvOZmYi/GK4T4lYNUx5sy4hf8A5UZaWEBAxboe5dHg1m351KVLUbcdx9bTjbiyIz2NptasGZEeM4zgTwAACvV68I9EqLNMTCdkuuNLdWpGdhoiNJESjIjwatozIvkSocWtraehjz6k1DWOE5zWKwgKFVLxqFRJtiC87Smiyp15po3XlHwwlJLaNCS6cmZGfDBFx2iwo1zVinT4z3jFLqLKnEtvxZrDTe0hSiI1NqQ0gyUnJHg8kZZLhklF1J7S0r2iZjx2+kzE7e73W5P2Mu/7/wCzZQAA9BwgAAAADGiVKnT3JLUGfHkrhvHHkpZdSs2XSSSjQsiPyVbKkng+OFEfnFiJnoMkBjQqnTanv+bahGl8lfXGf3DqXN08n4TasH5KiyWUnxLIyQmJjaQAAEAAAAAAAAAAAAAAAAAAAAAAAAAAAAAAAAAAAAAAAAAAAAAAAAAAAAAAAAAAAAAAAAAAAAAAAAABEVX42gfUv/a2ORxVfjaB9S/9rY5GoZnqDDY+Npf1LP2rGYMNj42l/Us/asVJZgAAMgAIiNdFMmXLMtaMl5yXAYQ/IWSS3Te38FJqz8Iy44x0AJcB0yZsWGSeUOkk152UkRmpWOnBFxP+YRTlwPnNNUeG6uE02k3DUw4hxSlGrJoJRFtEkkkZkRZPa4cSIlWImUTYD4ZeakNIfYcS424klIWk8koj6DIx9iKDBl0hiXIOSp+Q2s0kk92vBGRZx5vpMZwAIzmBj06b3vuDmBj06b3vuEmACM5gY9Om977g5gY9Om977hJgAjOYGPTpve+4OYGPTpve+4SYAIzmBj06b3vuDmBj06b3vuEmACM5gY9Om977g5gY9Om977hJgAjOYGPTpve+4OYGPTpve+4SYAIpNuxUZ2Jcwto9o8O9J/L0D65gY9Om977hJgAjOYGPTpve+4OYGPTpve+4SYAIzmBj06b3vuDmBj06b3vuEmACM5gY9Om977g5gY9Om977hJgAjOYGPTpve+4fCrbiKXvFSpZqxjO944/qEsACK8XInpczvfcHi5E9Lmd77hKgAivFyJ6XM733B4uRPS5ne+4SoAIrxcielzO99weLkT0uZ3vuEqACK8XInpczvfcHi5E9Lmd77hKgAivFyJ6XM733B4uRPS5ne+4SoAIrxcielzO99weLkT0uZ3vuEqACK8XInpczvfcHi5E9Lmd77hKgAivFyJ6XM733B4uRPS5ne+4SoAIrxcielzO99weLkT0uZ3vuEqACK8XInpczvfcHi5E9Lmd77hKgAivFyJ6XM733B4uRPS5ne+4SoAIrxcielzO99weLkT0uZ3vuEqACK8XInpczvfcHi5E9Lmd77hKgAivFyJ6XM733B4uRPS5ne+4SoAIrxcielzO99weLkT0uZ3vuEqACK8XInpczvfcHi5E9Lmd77hKgAivFyJ6XM733B4uRPS5ne+4SoAIrxcielzO99weLkT0uZ3vuEqACK8XInpczvfcHi5E9Lmd77hKgAivFyJ6XM733B4uRPS5ne+4SoAIrxcielzO99weLkT0uZ3vuEqACK8XInpczvfcHi5E9Lmd77hKgAivFyJ6XM733B4uRPS5ne+4SoAIrxcielzO99weLkT0uZ3vuEqACK8XInpczvfcHi5E9Lmd77hKgAivFyJ6XM733B4uRPS5ne+4SoAIrxcielzO99weLkT0uZ3vuEqACK8XInpczvfcHi5E9Lmd77hKgAivFyJ6XM733B4uRPS5ne+4So+Hnm2GzddVspT0njP6iIvOf0AItygQGk7bs6UhOSLKniIsmeCLo+UyIdFToMaPT5DyZMpRobUoiU5kj4efgPvcu191XKE7MJOUGn5/mNJeYyMjMlK/WlP8AGM8+tfFMv6lX2C9EtmDi3PyM39td/cORxbn5Gb+2u/uGZckdUdfX/q9/8dif9oWgQt1UmVVYUZcAkKlU+YzOZbWrZS4ps+KDPzZIz4/LgdHjDcZcDsGpn9JTImP+tGWnRfX/AKvf/HYn/aFoFVks1y55tMTNoD1Ki0+Yiatb8hpa3FII9lKUtqV5z4mZlwIWoAGsr2qxU65pCDVjbaaP/MNmimXZppEuuq86u1qZEUbaWzbaQg08M8eJZ/8A+D539UcFxfH8BOlwMXncTvNbd/V3uz9TR0tbm15/jSk+M5fPMYzlXKo1SC0Ss7KjV/8AUgWX8B8D/Kio9219wyqXo1TKfUWag5cNSe3J53ey0lK+JHhXkmeOBdGD+kfBdn/pz9QaXFYZ6+EcsTv/ACh7OvxfZ86eUaczfdtLYY0nqDrhdlntah0am0CnVG56I/S27Vp+0tJVNNQQSGN7xzwfblko04IkM54cRuwUWuaQ23XtVrf1clSZaKnb8N6GiMg08nk7RKJtx0jLJqaJ2QSMGWN+vOeGP2vgs9DDUmeIi4rb3xMTX/NXLfdzX3Pl8riLjr6/3+DW90a2FeFv1KfTbWpNWtRigW5WFFUW1L3suozEm20aSMiLdNJS4eSztLb8xHmZu/UvWPxivukae21az8eyGoss3atIfQqaTkUn1R0E3nYWflYcV5Kcp8heTNMrRfB6teiWZcVkx61VXYtxVlFXdecU2bkcm3GVMxmvJwTTaWG0JIyM8ZyZmeRbGrAprNTu6qJmyTcvBDKJST2cMk3H3Bbvh50lnjniO/qcTwWF/tY3EdIm6/ydenhl5exnTxnmjnnbv93Tz6/FD0HXLTurUK1atUK/FpMm7qZDqcGBKdInjRJSRoTw4GeT2f1kNQMVqLQpV9yZVv02rlI1tpMJDc5s1pYW81TGyfRgyw43tbST8xkQ9BWJaUKwbKoNj02S/IiW/TY1MYefxvHG2W0tpUrBEW0ZJIzwREKnL0Mt6Zzpt1eop51vOFermNjyZUbk+w0nyfyZ8lRnPleUrBlwxOG4ng9DiM+W4wmY+UamM+ETH8YnvlKynSrLr9+XKPrMNN2Xd2rNoU3WK6bMt625lFtu+q9UZ7VSlPIlVBttKHHW45oTsMmSE8Fr2yUozLZSRbR7Eo+sF/37qI3b+nVDoJ243RrfuOTUaq48h0oU85JrbbQ3klPbDCTTnCU+VtGeSIcy/BojPIu6mRNULsg0O+6rKqlepTBxd3I5RgnWm3FMm6wlSEkgzbWRmXEjJWVC+0TTig0C5qzcdP3jaaxSqdR1QkklLDEeHyjdk2RFkslJUR8ehKcY4jn4vjOBzwyzxxjLOorafDGP5eM/1VW3lEXOJy1cpjpOWU/Ccrivhd++Gqrb8Ii4purVAs6pFbNTod3TZsCnSaGzUHOSuMR35CVOTHGiiyCWiO4RpbNKkqxjbLKixIGumtL1Di6mTrRtWPYrFfco9SPfyDqJR0VRyEqYhP5NDSCJCzJRqMyStWEkZEVntTwbYNsVGxpDuo1z1Sn6cvOqt2myuSpYjsrhvRSaWbTSVvbLT2CWtRqLYLj5SzVl3jb9q6a6IVmyZtLrVyQaoipxmoEWI4/JmvTnH3twW5QZNkanVJJxWylJYNSi6RrU1ez/ANzDDhtPnmeWJ2neLyuulTOPL8b3nqxGOeWVZTUTHXwn8R1Wa0r2n3XfV40eKxF5jtd6LTESUko3XqgbW+kpznZ2EIdjJLBZ2zcIz4YFzFE0NsKfprpZQLVrcvllbbj8qrUw1EpUqpPqN2U6aiItradWvB46MF0EL2PF4yNPHXyw0ZvGNonxrbm/5uvxb05nLHmyir8gAAdZsAAAAAAAAAAAAAAAAAAAAAAAAAAAAAAAAAAAAAAAAAAAAAAAAAAAAAAAAAAAAAAAAAAERVfjaB9S/wDa2ORxVfjaB9S/9rY5GoZnqDDY+Npf1LP2rGYI1U2JDq0nlUhtrbZZ2dtWM4NeftFSUkI6v8/qgbFtnDRMW4hO8lEakNt58pWyRkajIugsln5R289UnrFjtkHPVJ6xY7ZAyr7FUvGitzqreKqQimU6GtxS4ZrNb60nnbwr8mWyWNnKuJ9Iw9JaVLZoL9y1RJFUbjkKqL/ypQr8mj9RJx/WYsdRkW3VoblPqb0OTGeIicadMlJUWc8S8/Eh3t1ajNNpaanRkIQRJSlKiIiIugiBGFKizpE9fJUoJbh4W84RmlpsuhJFw2jM8njJdOT8xHiPU64UzzgsupUw62hRTNhKdyeVbZEnJ5VjY2cljiZnnGDmueaT1gx2yDnqk9YsdshqMpgp3Q4jMGK3EY2thssEalGpR/KZmfEzM+OR3DD56pPWLHbIOeqT1ix2yGVZgDD56pPWLHbIOeqT1ix2yAZgDD56pPWLHbIOeqT1ix2yAZgDD56pPWLHbIOeqT1ix2yAZgDD56pPWLHbIOeqT1ix2yAZgDD56pPWLHbIOeqT1ix2yAZgDD56pPWLHbIOeqT1ix2yAZgDD56pPWLHbIOeqT1ix2yAZgDD56pPWLHbIOeqT1ix2yAZgDD56pPWLHbIOeqT1ix2yAZgDD56pPWLHbIOeqT1ix2yAZgDD56pPWLHbIOeqT1ix2yAZgDD56pPWLHbIOeqT1ix2yAZgDD56pPWLHbIOeqT1ix2yAZgDD56pPWLHbIOeqT1ix2yAZgDD56pPWLHbIOeqT1ix2yAZgDD56pPWLHbIOeqT1ix2yAZgDD56pPWLHbIOeqT1ix2yAZgDD56pPWLHbIOeqT1ix2yAZgDD56pPWLHbIOeqT1ix2yAZgDD56pPWLHbIOeqT1ix2yAZgDD56pPWLHbIOeqT1ix2yAZgDD56pPWLHbIOeqT1ix2yAZgDD56pPWLHbIOeqT1ix2yAZgDD56pPWLHbIOeqT1ix2yAZgDD56pPWLHbIOeqT1ix2yAZgDD56pPWLHbIOeqT1ix2yAZgDD56pPWLHbIOeqT1ix2yAZgDD56pPWLHbIOeqT1ix2yAZgDD56pPWLHbIOeqT1ix2yAZgDD56pPWLHbIOeqT1ix2yAZgDD56pPWLHbIOeqT1ix2yAZgDD56pPWLHbIOeqT1ix2yAZgDD56pPWLHbIOeqT1ix2yAZgDD56pPWLHbIOeqT1ix2yAZgDD56pPWLHbIOeqT1ix2yAZgDD56pPWLHbIOeqT1ix2yAZgDD56pPWLHbIOeqT1ix2yAZgDD56pPWLHbIOeqT1ix2yAZgDD56pPWLHbIOeqT1ix2yAZgDD56pPWLHbIdb9ToklhyO/OjqbdSaFp2y4kZYMgoJVTIy3UJaVGZK/G5JSUmR4x9J54fIWD6cYOBcamy3I1KXtuLVIQs3z4GptKiNwzPOU5LKeHA9oiLBdHeiFR2U7Ee5nUJyWCNbZ7JF/FLyejoLjngXDAyqXzJTnXZK6u3JkOkSTdcWWUoL+KXmIs8fp8+RuJiI2YqZTiEIaQlttCUIQRJSlJYIiLoIiGJWvimX9Sr7A56pPWLHbIYlVqtNepslpqcypamlElJLLJngYbS44tz8jN/bXf3DkcW5+Rm/trv7hJbjqlwABloAAAAAAAAAAAAAAAAAAAAAAAAAAAAAAAAAAAAAAAAAAAAAAAAAAAAAAAAAAAAAAAAAAAAAAAAAAAAAAAAAAAAAAAAAAAAAAAAAAABEVX42gfUv/AGtjkcVX42gfUv8A2tjkahmeoOKV8bT/AKlj7XByOKV8bT/qWPtcCehDT/hm2tIvLSOmW+1b71aafvO2lSobcU5BLjJqkc3TWgiPKCQSjUZlgkkZnwH3ddvVNfhe2BV4FJkop0aw7ghuTWoytww4qTBNptSyLZSZklZpSZ8SSeC4GN6AMtPzat7T2uUXSereDvrXqtrdQDcmT2ZdFoenMeqQqoS5a30yYtQj0x5Z7wzSvacfS4lZmRmWB6J8IeFp81clpXHWK7q3Zt10ekKbpd1WpbkupZZdNO8hym2I0htZmptCzbdbIs4Mj6SHpwAGpfBjujVi79Mzq2r9PdZqSanLYp0mRTDpsmoU1C8R5T8QzPk7jicmbfDHA8FnAmdGNXfwxUWsVjxCue1OaKzJpHJ6/D5O7J3Wz/fDRZPaaVteSrz4MbBAAAAAAAAAAAAAAAAAAAAAAAAAAAAAAAAAAAAAAAAAAAAAAAAAAAAAAAAAAAAAAAAAAAAAAAAAAAAAAAAAAAAAAAAAAAAAAAAAAAAAAAAAAAAAAAAAAAAAAAAAAAAAAAAAAAAAAAAAAAVkWYUa5a34t0GbXCpVQqaojRrTDp8dT8h9WcJQhBdJmZlxPBEWTMyIjMBJjFqnxdJ+qV9g8h2hrP4WMXVSTc126P3RItOpKSw5RWKcs+QMpM9hbKjSRqcLJmozwTnR5OEbHrmY+iTRnJLaXCQ6xtpJxtTaiIyyWUqIlJP5SMiMvOLHUlOji3PyM39td/cORxbn5Gb+2u/uFlmOqXAAGWgAAAAAAAAAAAAAAAAAAAAAAAAAAAAAAAAAAAAAAAAAAAAAAAAAAAAAAAAAAAAAAAAAAAAAAAAAAAAAAAAAAAAAAAAAAAAAAAAAAAERVfjaB9S/9rY5HFV+NoH1L/2tjkahmeoOKV8bT/qWPtcHI4pXxtP+pY+1wJ6EJcAAZaAAAAAAAAAAAAAAAAAAAAAAAAAAAAAAAAAAAAAAAAAAAAAAAAAAAAAAAAAAAAAAAAAAAAAAAAAAAAAAAAAAAAAAAAAAAAAAAAAAAAAAAAAAAAAAAAAAAAAAAAAAAAAAAAAAAAAAAAAAAAAAAAVkWYVkAGLVPi6T9Ur7BlDFqnxdJ+qV9gsdSU0OLc/Izf2139w5HFufkZv7a7+4WWY6pcAAZaAAAAAAAAAAAAAAAAAAAAAAAAAAAAAAAAAAAAAAAAAAAAAAAAAAAAAAAAAAAAAAAAAAAAAAAAAAAAAAAAAAAAAAAAAAAAAAAAAAAARFV+NoH1L/ANrY5HFV+NoH1L/2tjkahmeoOKV8bT/qWPtcHI4pXxtP+pY+1wJ6EILWDVa3dFLBn6i3VCqkynU9yOypimRyfkuuPvIZbS2g1JJRmtxJYyK5pvr/APhHuVNt/gT1WtfaYcf5fclt8ihls48g3d4ryzzwLHHBimeH8ZJ8GGvKOp82kVWoZ8s8j+9v/Ckb8b5ZGjyfheURp4cSwJ7Rq4qGi43qa94Y0XVOXOZNMWlOv0BLjSk+UpxtNPYacWeyR5JRqIiyeC6Rlps2ZqDYVPuBu0p970CNXHSI26Y9UmUS1kfRhk1bZ583ASNartDtumvVm4qzBpUCOWXZU2QhhlsvlUtZkkv5zHgGqyNNtDrqqN229VtDtZKTWbtVOXTpSY/jpGlyppZbjPJN05SmnFmaUqQ2okoJOSxkbW15VZH91xZB+EMVKLTQ7Smcxc/7PNBXFyhO3vt5+J33Js7veebb2eOQHp2DelnVOgO3XTbso0uiMNrddqTE9pyKhCSypSnUqNBERcTMzwQ+Gr5sp+sxbcYvCiOVadHKVFgIqDJyH2DTtE4hslbSkbPHaIjLHEaQ1X/AwXgnaxJ0SOz+afFqrnLK2Djcm5TyJWdrk/kbexsZ8+MCY0A0B0ioVh6cXpCsmB4zU6jRZrdcWRnUHX3oZNuqefztvZQ4otlZqSXDZItlOAsJak+M+rlCoOn+q+nFQocaPOTcNGRUUSKyt9JETJsJbWZIShRK3hLLPQIepa1VajeFO/pPWJlIg2hF09O6n5cn8U41JKfuDNTylEhLZI8xl08c+YU67bGsm0fDQ0em2pZ9Eosip0W63Zz1Pp7MZcpe7intOqbSRrPKlHlWfhH8oqGq6tIU+H1DLWl+3G6GvSxKWU3C42mA5J50UpCVk8e6UrCVqSS88U5LiQD17CrVGqVKbrtOq0KVTXmt+3MYkIWwtv55OEeyafpzgYNt3vZd5cp8ULvolc5Evdyebag1J3C/mr3aj2T4HwMeKLRvK3tPdAtebrtqzqRXdNJ9+riWrAmtYoRxn1RmH5BkRGkoCJKnXFGgtkyQvGM5HRos7atm+GXa7kbUjSKoR69ZlSgGqxKGzR4JyykxVtxFrRJeTKewalJ+Csk58niA98jWvhHXNqZZujNxXNo/To8+7YCGF0+M/DXKQ5l9tLhbpCkqVhtSz4GXQNlAA6WFOtw21zXEE4lsjeV8FO0ReUf0F0jUVxa3pc1h0us6xq7QazQLvdrjNUkxHkyjQ5DipcQhDjazSlRKUe0RkZ4+QQPhzyKix4P8sm3ZDVEerdHYudxg1EpFDXNaKaajTxJG6MyWZdCDV5sjWqk+Dw34WuiDWg8W0UpTGuJM961mmuSGRQE7tLjkct0p0iMzwZmsknx4GWQ9Z1K8bRo9Yh27V7qo8Gq1H+BwZM5pqRJ+rbUolL/mIx9TrutSlzF06p3PSYkto2CWw/NabcSb6jQzlKlEZbxSVJR840mRZMh+Zb9Bum9j1etfUGv+DvRLqqNzVZmRUb/kSY9yQGjcMoT0V1WCQyhkmlMG15OC+XItmt+nVCvh7VC6LzqMa5Kxa2i9rzadVIklTkVVQUud/wCEWT4bSyNBqacMskTisY2jAfohBrlFqjkxqmVeFLXTnjjzEsSEOHGdIiM23CSZ7CiIyPB4PBkMS3rzs+7jlJtS7KNWjgubmUVOntSdw581e7Ueyf0Hgx4D1MsGDppA1otSw4M2JbSm7BnXdyZxxcmVTnX3+dJLqyPbWtxpJm8vpUnbMxsio/gJ/uidEv7lPxP525VP8YvE7k248XeRq2+W8n8nG+5Pu9vytvo84DeOqOql4MXvTtGdHqZSpt6VCCqrTZlWNzm+iU0l7spDyW8LdWteUttJUnaNKjNSSTx+tVbm1p01o8G+6LFoV2UOhwd7dNKaiOxqjISgsvSoC94tG0kiNRR1ke0RYJzJkK1ZK26P4aWp0GrkSJdxWjb8+jrWf5WJGXJakIR/xHXEqURfnEn5xum7K1SLctar3BcEpqNTKbBflTHXTIkIZQg1LM8+bBGA+rXuWi3lblLu23JyJlKrMRqdCkI6HWXEEpCi/WRkKBoVduql1SdQW9T6RHgool4zqVQTZhuR+UUttLamXjNaj3hq2zLbThJmk8FwEV4GVJqlE8FvTaBWI7keRzI2+TLidlTTLq1ONIMvNstrQWPNgboABGVC5rbpEvkFVuCmwpRxnJu4kS223OTtmROPbKjI9hJqLaV0FksnxEmPJHhBK0oT4ZGmydZJNFat9dkVtOzW3UogOP8ALImwl7bMmlFkjMicynaJOPKJID1RR69QrhpTVdoFagVOmyEmtqZDkoeYcSXSaXEGaTLgfEjGDQL7se65kunWveVDrEuAeJbECosyHI5/I4lCjNH8+B48s67LLsC0/Cl1A07tGmXDpVEkxzpVKhoTzROlpgobqO5JBGjk+2pG8NCTT5DhlnBiqafybTtPwn9G7hY1J0RdZqsWr0+azYFCZpkaK49ESpmM/LTJcKQa3E/i0rQ2szQZkR5wQe8ane1mUUqiqs3dRYBUdLS6icme01yNLhGbZvbSi3ZKIj2TVjOOA5nXpZ1MoDd11K7KNEojyEuN1J+e03FWhRZSonVKJBkZdB54jzfbOldhah+GRrZOvu3IlwNU2mWuiNBqTZSIaFuRHsu7hZGg3SJOySzIzSRqIsbR5xvCIXYVi1HS/QKn2/pnQKOcCc7Tq7qDBKoUukMRUtI5PHbedQTslZOJwS3U4QhR5MB6lo9ao9w01is0CrQ6nT5SdtiXDfQ8y6n5UrQZpUX6jGaPIv8Auf1QolPPVyyYV22zVXYd7PTozdChop8RyI9EjGmTGhk64bUdas7JktSTPJkZ5HroBUdQNQKHaFHqbBXFSI9wIpUufTqfJlNk/INppSspaNRLWkjTx2SENo3qau7NBLO1Xv2o0ymO1i3oVWqUhSyjRGVutJUs8rVhCcnwyr+ceS6Q/oVKo3hAyte0W1K1L8aa4zGZrDbblYTEQyXNqYKFFv8Ad7rYU3uS6TM85yKrdb92taZ+CaiQdhJsg7QM5J36Tx2+dW5IwUYpW74be7N7dbzyNra8+AH6Gs3jaMiiR7lj3TSHaRMW21HqCJzSozy3FkhtKHSVsqNSzJJER8TMiLiDN5WhIVGQxdVHcVNlOwYxInNKN+S3neMowrynE7KtpJcSweS4D896tYhno9qLSHr+0vk0y7L9sh8qVpdU3DiUZblTjMOrQX+Lrd3aVlsn8JKjLA+Zeh2mdk3XdVbtm224Ttq662rS6A2lxZtUqO8mmqkFHQZ4Qp43D3iuleE5PgA/QmqXpZ1Dq8OgVq7KNT6pUTxDhSp7TUiSecfi21KJS+PyEYzKxWqNbtNfrNwVaFTKfGTtPypkhDLLSflUtZklJfrMeEra/ua/FTXD+6f8U/wg+M1d5f4wbnnbkfHm/kO+/HbvcbrdbnhtdHEWGtWaq8vBa0HLW/VG17SvaiRo1WYjX203Ip1WkoiqbUxNYfcbNxRNvJMz2tpC/KwZ8AHrqPqBYcy3H7wiXtQH6DGSanqq3UmVQ2kljJqeJWwkuJdJ+cUjTXwo9C9VVvRrX1FoSZrdWk0ZmDJqcVEmU8y4bZrZaJw1ONrMsoUXwiwZEKD4KlxWlqVbd92FO0v01Yi0SpswapIs5pqTbdeW4wlzbbI2yI1JLZStCtvZMk+Ufmovgh0/wbrck3XQa9T9N6XfNO1JrzFPiS2YLNVYSc1XJUMJUROkWwad2SOGDLZAetaleVoUZye1V7ro8FdKjolz0yZzTRxWFmZIcdJSi3aFGlREpWCPB46Bw7etmsW4i8H7tordBcbJ1FUXPaKGpB9CieNWwZfTkeb2tNLI1D8OfUJV829Ersal2PbrjECe2T8M3FvzS3i2FkaFrSSTJJqI9nbVjpHPhEtaf6Y0zTDQ2j2rpzRaHU5c44FVvqJy2i0NLDZuKSht1xJLfc3qibQp1BYJfHBEQD01Q6/QrnpjVatqtQKtT387qXBkofZcxwPZWgzSf8xiP/CDYXjGdn+O9A5+LppfOTPLO52tv/MPEXg91CrUi1fClsfTG8rZq1zpcXVLZTatPbpcaUpyjskUmDCS67so3xEjbStSTcTnJZwWx/Bp/uKT06sE6f8Ag0K8EsQjd5y5Hz/z15O83u8/vjlO/wBrOeO10ANxagalkq6rfszT3VjTeDXW67HartJrNSQqc7BMjNxiOyhe2mSrKTTtFgbHq1YpFApz9XrtUh02BGTtvypb6WWWk/KpajJKS/WY8zeFlY1k02+NFbwp1n0SLXp+qlJRKqrFPZRMkJNiRknHiTtrLyU8DM/gl8g+/Cc8VP7oDSD8NXNv4LuT1ne88bHNXPuw1yTlW8/F/kuUbvb4bWfPgB6Ni3Xa063zuyDctKkUNLKpB1NqY2uITSSM1L3xHsbJER5POCwPiLeVoTqu1b8K66PIqj0VM1qC1OaXIXHUWSeS2Sto2zIywoixx6R4gqfibvvCl/AXzZ+DL8HH99cybHNHjByWTveTbv8AFbfJ9zvN3wzs54iaq2llg2BbHgtXPa1tQodwTLtobcytk0k6jMS/TH98T0nG8cJWCI0qMywREREREQD2LcF42jaZxSuq6aRRjnu7iKVQnNR9+58xG2otpX0Fkxm1Kq0ujU96rVipRYMGMjePSZLyWmm0fOUtRkRF9JmPz21FaueqeErq9S9Qj0CSchyGxQ06rG+hzmU4qSQdOV+TJvem9tmg9veZ2v4o2LWtNbYqvgl6UWbf3hB6fNTrZnMv0utVF5uoW7W34m+QiM6l9bfKWibPHwiUSmyUWccQ9c25dlq3hB5ztG5aVW4ZHs8op01uS1n5NpszLP8AOJYebPA+vmlV6bfFmwbE04psq3H4RTK7p2aFUKsKdbWpJJNKEml5siwtBmvBLT5XHA27autGml66g3XpXbNycsuiyOT8/QORyG+R79O01+MWgm3NouP4tSsefAC7CIu6RW4lqVmXbSG11dmnyHICXUGtCpBNqNslJIyMy2iLgRiXABqSzL/1Fe8F2Fqde9PjQ7zO0V1qbFOGthpmWUdTpNqZUrbSRHgjSZ54GJPRnVinX1p9Yk647hojV23RbUGtvUtqSht5ZusJW4ttg1Gvdkoz48cfKJbWb/yQXx/8uVL/APBnB42LSywLR8HXwZb4oVsQmLmkXPZTj9cNslVF3fpQl1CpB/jDQaFbBI2tkkkSSIiIiAe5LgvC0rSTGXdV00ijJmukxGOoTmoxPuH0IRvFFtK+guIh9RKPqbXKfDb0tv8AodrSkOmuTIqlurq6H2jTwSlCJUfYPPHa2lcOGPOPD+pqbon+FFqvT7//AACEh5FPZt5Oq+/TmjnFLJ09X5Ik743t4aT29508NketfBRo022/B9s23J97US7XaTDchFV6LLVKhPttvLShLTquKyQkkt5PzoPpAceDHqfcep2hNF1D1AlU1NUeXUETn4rJxo2I8t5nbJClq2C2WiM8qPHHiL/DvqyKhPg0qBeNDkzapF5bBjM1FlbsqPjO+aQSsrRj+MkjL6R538Gf/wAxmR+w3R/+GzR54ht6AzfBG0khaZuWxK1okSLWTS1QnGna+3UEvMG6bhmZyEtIZS7tErCCbLBeTgB7k1n1WnadRaJQrUoCa/ed3zTplv0tbxtMrdSg1uvvuERmiO0gjWtREZ9CSLKiGPW2fCNpmntNm0So2RW7zhOKkVSE5BkRINRbyZ8mjub1a46yLCSdWSyMyyaEkeCp+phHR/C90duKsKSilzqFcVBhurVhDdTcKM8hHybTjLDxJ857JkQ38ZkRZM8EQCo6Ual0XVyxoF70SPIiJkm6xLgySIpECWys234zpFwJbbiVJPzHjJcDIV61Lo1Vn+EBflp16mRWrEpFIpEqgy0w1ockSX96UhCnTVsr2DaLgREZbac9IpXgasvSKHqbdEfJ0W5NSq9UaMsvgPRd4ho3UebZW606ojLgec+cehQAYVRrdGo64jdXq8KCuoSCiREyZCGjkPmRmTbZKMttZklRkksngj+QZo8ueHYu1UMaMrviQyxQC1Lgc4uPuKbaSxySVtbxSTLCMfCyeNnOeGQHo+hXRbN0NyHrZuKmVduI8qNIVBltyCZeT8JtZoM9lRedJ8SGNDv2xqhcLtpQLzoUmuMJNTtMZqLK5bZF0mpklbZEX0kPK9lTNMaR4WFbuTweKZRpVp0bTR1dzt2ghk4EicmTtw2cR/xSpO7S/jpVsqLPSQ891i5rOnsaN6xwLn0Mtgnr5olSkUC1qE0xVaJDdeNLhzqlyglESScJDxLYQk1KxnoyH6bTrntulzV02pXDTIktuIueth+W224mMgyJbxpUZGTZGZEa+gjPpHVTrytCsUFV00m6qPNoqSUaqlGnNORSJPwjN1KjRw8/HgPNuodj2dqZ4c1oQrrp7FapDWmc6amG6reQ5Z84sbG9b+A8gtraJKiNO0SVYyRDP8IqDpp4P+jdOs+2NNrMaol13ixH3dxtG5b9Kly3lPLmyW1GZJaStPktpNCCWpBFskA9CW3d1p3lCXU7Quek1yG24bSpFNmtSm0rLpSam1GRGXyCXHh7wVZVtWv4XN527TtRdOKyzXrOpzsU7Mo7VGp0qSzJkE4htlEh5L7zaD8taFZJJkRkWB7hARVxXZa1nw0VG7blpVEiOOEyh+ozG4zanD6EkpwyI1H5i6RF31T78uC32EaW3zRbdqC3kO8vqFEVV2HGNk8pS0iSxxMzSZL2zLBHwPOS8Ya+uXOvwv7ij3WeixUk7YpybXTqsT/IDZM18sOEZfit9vdknc+Xsk1jhkehvAzoEy1NDodtS76tO6kU+p1BMaVa81cqnRo65CnG4jTi+OyyS9giMzwlKSzwAZngtakX3qRZtyPaiz6VOq9uXfV7cOXTYCobMhuI9u0ublTjhoNXEzLbVjPSNzDzz4Fv+DGpn/407o//AAsx6GAQ9y3laFlxWp143VR6FGeXumnqnOaioWv5qVOKIjP6CHVV77se36EzdFevKh02jSDSlqoy6iyzFcNWdkkuqUSDM8HjB8cDzF4Udn2RI1hhahlqdo6i6KZb6ac7aepqGHoL0RTynEvsGpZLjuGolJNaULJRJIjItkbQ0El2FrvoBbtQq+j1vUyhvLfJqgOQmZVNQtmQ43v4pKbJCmVmSnG1khOUrI8cQFs0Xr90XNacmsXTedmXOt6qSygz7UdN2FyMnMMtqUalEbyU8F4PGegT0nUGwYVxItCZe9AYrrhEaKW7U2Uy1EfRhk1bZ583AaW8BeDCpmktx06mw2IkSLqBdLLDDDZNttNpqTxJSlJYJKSIiIiLgQ89uyNNNCrocuO26tofrNR61dxzExHkxzvaNLmTiPZYeSbpylMuOGaSUltRJQRZLZyA9gam+Efo9pFcVBtW+L0pkKp1+oN09thU6OlcTbbW4l6SlbiTaZMmzLeGWMmkvOLtbt32ld9LVXLTuikVunIWptUynTWpLBKTxUk1tqNOSyWSzwHmnw0rS0uYuvRy+75te10wyv6JFrdXqkGPsckOHKShuS84n8lt7BESz2c4+gRPhcSrcR4MaS8HFdkHaRXXTkXQdG2DpSKdvUnK5VyDjufyO+2fK3RqzwAeqKPfFlXDAmVWgXfRKnCp5rTMkw6g081HNJZUTi0KMkGREZnkyxgfHj7Ypw36iV6UHkkVph99/nFndtNvkRsrUrawlLhGRoM+Cs8MjwtaVuLTdF03pTr38HWHGkab1ymSaDphNWl2op3W9afdYPyVG1hRbfAyJwy4jWrPg9aVN2ZtuW5vyd8HE7qlofeWtM2rEhW6lvkZ/jXGiWZNbXBBY2SLZLAfpzcl5WhZsNFRu+66PQ4rqthD9SnNRm1K+QlOKIjMSUOZEqEVqdAlMyY0hBONPMrJaHEGWSUlRcDIy85Dw7et3W1cdZ0/07uRekNtSIOm9NrC7r1HozVUOQh0iQcaEy68wlRpNBrcPe58tHk+cbJ/3O+rwJHg/uWyxcFOqMq3bmrsJ1qGgmExmjqL6mSKPtKVHbUg9pCFGeEmREZkWQHp8Qyr0s5Fxps9d2UZNeUjeppRz2imGjGdomdrbxjjnAzazzjzRO5o2OX8md5Lt/B32yexn6NrA/OJH9zx/cTyudvF78PPJ3d7nc+Nvjhyk9nZ/wAa3nKNnGPJ2MfxQH6J1K7rUoz8qNWLnpMF6DEKfKbkzW2lMRjUaSeWSlEaW9ojLbPBZIyyMymVSmVqnsVajVGLPgykE6xJivJdadQfQpK0mZKI/lIx5Pi6dUfUPwxocfVuhRa3Jp+kdKkS6fNQl6G5NOc8S1uMqyhw0q2tnaIySZmZccGU14K1Dr7Ok+pVp6a1mm2xIp2pFxw6M5JpZzYdPZTNzu0xUus5Rg1kSUuJIjVnzYMPUArIgdPrZ11o9ZclalauWvc9MUwpDcSmWa5SnUvZLCzeVPkEaSIlFs7BZyR5LGDngAYtU+LpP1SvsGUMWqfF0n6pX2Cx1JTQ4tz8jN/bXf3DkcW5+Rm/trv7hZZjqlwABloAAAAAAAAAAAAAAAAAAAAAAAAAAAAAAAAAAAAAAAAAAAAAAAAAAAAAAAAAAAAAAAAAAAAAAAAAAAAAAAAAAAAAAAAAAAAAAAAAAABEVX42gfUv/a2ORxVfjaB9S/8Aa2ORqGZ6g4pXxtP+pY+1wcjilfG0/wCpY+1wJ6EMLUGRp0xbEhOqr9uN268tDcgrgUwUJatojQle/wDxZntERkR+ciwK7pxZ/g7SnU3jpHa2nLzkRxcdNVtyDBUppZp8tBPR0+SeyriWehX0i5XHa1s3hTFUW7rcpdbpy1pcVEqMNuSyaknlKjQ4RpyR9B44Dz/4FVJpVCc1so9EpsWnwImqdWajxYrKWmWUExGwlCEkSUkXyEQy03KVv6R0y/GJRUS0Il6T2XH2HOTRm6pIaT+UWk8E6tJZ4mWSLPEWGtUKiXJTXqPcVGg1WBILDsWbHQ+y4XyKQsjSf85DQlKv24JnhP21aWqWgFq0evyrfq8ug3PAuU6nJahsuspdZNCoTJtE5vkGZEtRcD6ekWHUDwgbhtfWyBobaelkm56vVLacuCLJTU0xWGzRIJo0SFKbUTTWDybhGpWTJKW1GYDZ8Gy7OpdAdtSmWnRolEfbW07TWIDTcVxCiwpKmkpJBkZcDIywZCUixY0KM1DhR2o8dhCW2mmkEhDaElgkpSXAiIiwRENFUPwsqIvSO5tR7zs6fRaraFwO2pUaBGkpmOvVdLrbTceK6aWyeJ1TzWwo0o4KyZFgxL2hrjebmptM0s1Z0pbs6pXHT5dSoL8OvIqrEtEY0b5l1RMtGy+lLqVbJEtBlnCzwA2u/RqRKqcWtSqVDeqEFDjcWW4wlTzCXMbxKFmW0klbJZIjLOCz0DCrNmWfcRyVXBalHqZzY6Ykk5kFp/fsJUa0tL20ntIJRmoknwIzM8ZEyNS6ha3VyiakwdH9NNPivC63qWddnNyasmmw6fT97ukuOvm06o3FrJRIbS2edlRmaSLIDYVMVaFUp0u3aMqjy4FONVMlwYptOMxjJJZjuNpylBklRZQZFwMuGDHTFsGxIMSmwIVlUGPGozxyaay1TWUNwnuP4xlJJw2riflJwfEeWdBdXqZppaPhA6n3xQajTjj6ny0KpCTaeluS3WIbTUVs0KNC1rdUlKTJWD2iMzIs43BaeuV6nqVR9MtWNJ0WdNumFLnUCRFryKozJKMSFPMPGTTW5fShwlbJbxBkSsLPADcgANdaxakXdpzT49QtyzqDU4ykrVKn1+6maFAimRpJKFvLbdWalZUZYbMvIPJlkshsJ5hmSyuPIZQ606k0LbWklJUkywZGR8DI/kENS7FsihlATRLOodPKlKdVBKLT2WuSm6WHTa2UlsGsuCtnGfPkaTpfhexKxoO7rtT7GJ+BRa+qjXNGZrDbyacw1JJiTMYfbQpEppsjJ0sEjabyeU4wNnVzVFiFqNaWnFBprVXmXJFlVSU8mXu0U+mMoIuUmRJVvNt1xptCcpztKPa8gyMJy4LBsW7JkWo3TZVBrMuCeYr9QprMhxg858hS0maf5sDJlWna085qp1tUqQdSjNwphuw218pjoNRoacyXloSa1YSeSLaPBcTGoWfCc3uhmpGtHiRj8Hs+uwebecv4dza6tG1vd1+K3mxnGwrZz0qGbdnhA1WJX7TsDTzT9N0XpdFE8Y1U5+rpgRKdTi2CU8/JNpw+K3CQhKWlGoyP4JEZgNnUs7QlVarOUQ6O9U2VNQqsqLulPoNCNptp80+URkhzKUr6CXkiwY4t6y7OtE5SrTtOjUU5zm+lHToDUbfr+cvdpLaP6TyY86eDNcFyO3h4R1wLseW1W0XkwvmJUxgnFPJpMQt2T+1utlRlklmZFsmRmRHkisum3hSSrr1kb0Vu61baplXm02XU4T1v3izXUEmMttLrMpKWWlxncOpMkmSiMiVhXAwGxNUtHba1UapkqfPqtEr1CeVIo1fo0nk8+nrUWFkhZkaVIWRES21pUhREWUngjKPvbQ6nalOUKLf153FV6JSGmuV0Pesx4NZkIMjJ6alptKnSyRHuSUTJmXFBlwGywAfKEIbQlttCUoSRJSlJYIiLoIiH0AAA1pdOiVMu7WSjap1mdFlwaZbVQtx+hyqel9qWiU8y4bilqVjCdzjYNB52s5LGD2WADDgUakUqltUSl0qHDpzDe5ahx2EtsIb+YlCSJJJ+giwIqNp1p9Dp0ejw7Ft5iBFllPYit0xhLLUkjyTyEEnZS4R8dsiz9IsIAMOPR6REqMusRKVDZn1Am0y5TbCUvSCbIybJxZFtLJJGZFkzwRngdFfte2rriIgXTbtMrEVp1L6GKhEbkNpcT8FZJWRkSi8x9JCTABHx7et+JVnq9EodPZqchlEZ6a3GQl9xlHwG1OEW0aS8yTPBeYSAAAiJln2lUKwVw1C1qRJqpRlQynPQWlyNwojJTW8NO1sHk8pzg89A7Ttq3DoKbWO36adFSwUZNOOI3yUmSLBNk1jY2SIiLZxgSQAK/TtPLApFIK36TY9vwqWl9uUUGPTGW45PNqJaHN2lJJ2kqSlRKxkjIjLiQynbStV9T6nrZpLipM1uovmqE2Zuy29ndvqyXlOp2EbKz8otlOD4EJYAELVLKs2uVeHcFatKjVCqU48w5sqA07IjHnP4txSTUj+YyHfcFsW1dtPVSbqt6mVmCo8qjVCI3IaM/lNCyMv8wkwAYdIo1Ht+nM0ig0qHTYEZOyzFhsJZZbL5EoQRJIv1EIuZp7YNRuJm76hY9vya7H2Taqj1MZXLb2fg7Lxp2yx5sHwFgABhNUWjsVWRXWKTDbqUtptiRMQwkn3mkGZoQtwi2lJSalGRGeC2jx0jqr9tW7dcA6VdFAptYhGtLnJp8VuQ1tpPKVbCyMskfQeOAkgARse27diVXn2LQKczUijJhcsbitpf5Ok8pa3hFtbBHxJOcF8gwvwfWF4x+OHiRQOfutObWeWd9s7f+cT4AMKpUSjVlURdXpEKcqBITLiHJjodOO+kjJLre0R7CyIzwosGWT4jmr0akXBTnqRXqVDqUCSnZeiy2EvMup+RSFEaVF+shmAAiotqWtBt87Tg21So9DUyqOdMahtoiG0ojJSNyRbGyZGeSxg8jsfty3pTNPjyaFTnWqS6h6ntrioUmI4hJpQtojLDakpMyI04MiMyISIAIa5bLs69GGYt42nRq6zHXvGW6nAalJbX85JOJMiP6SH3UrRtSsUVNt1e2KTOpCUkgoEmE27GJJdBE0pJpwXyYEsADAodAoVs01qjW3RYFJp7GSaiQYyGGW/+KhBEkv5iFetrS617Xv26tSKfFQVbu9MRqe6lltvLUZKiaT5CSNZ5cWZqWalHkizhJEVwAAAAAdUqLGmxnYc2O1IjvoU2606glocQosGlST4GRkeDIxgLta2XadApDtu0xcGlLZcgRVRGzZiLa/JKaRjZbNGC2TSRbPmwJQAENctmWfekZqFeNqUeux2F7xpqpwWpSEL+clLiTIj+khJQoUOnRWoFPiMxYzCSQ0yy2SENpLoJKS4EX0EO8AFfqdmUh+yqnZFCiQ6LCqEKVEQmJFShpg30qJSybTskZ7SzUZcMmZ8eORXdIdGLZ0ps61qEmFS6lXLboUWhKr5UxtiXKaYbJBZVlS0pPGdjbURZ6TGwgAVfUfTa0tVrYdtO8oC34inW5LDzLqmZEOS2e01IYdSZKadQrilaTyR/RkhWK3olMubT6macXDq7fEqDFcUVRmNS2I06rxjM8RpD7LSVEjZMkmprYWoi4qMzMz2eACPt+36JalDgW1bdLj02lUyOiLDiR0EhphpBYShJF0EREJAAABrrV3SFGqtRsOc5XipybKuiPcimjib8ppNsvN7g/LTu877O1hXwcbJ54bFABGUC2bbtSEqm2vb9No8RbinlR4ERuO2bivhKNKCIto/OfSYwS08sAo1UhlY1vkxXHN7VGubGNicvOdp9Ozh088cqyYsIAMBFv0FqpM1luiQEVCPFOEzLTGQTzcczIzZSvG0SMkR7JHjJFw4Dsq1IpNep0ij1ylxKjAloNt+LLYS8y6g+lK0KI0qL6DIZYAIePZ1oQ3qbJiWrR2HaK0pimuNwWkqhNqLCkMmSctpMuBknBGJgAARVx2pa140/mm7rapVcg7RL5NUobclraLoPYcIyz9OBl0ylUuiQWqXRqbFgQ46dlqPFZS002XyJSkiIi/UQygAYVLotGojb7VFpMKAiVIclvpisIaJ19Z5W6okkW0tR8TUfEz6RmgACCuOw7GvFyO7d1mUKuLiK2o6qlTmZJsn8qDcSeyf6hNNNNstoZZbS222kkpQksEki6CIi6CH2ADCpdGo9DYci0Skw6ey685JcbisJaSt5xRqW4ZJIiNSlGZmrpMzyYjYun9hQbgXdsKyaBHrjhGS6m1TWUS1EfTl4k7Z5/WJ8AGHVqPSK/Tn6RXaXDqUCSnYfiy2EvMup+RSFEaVF+shjW/adrWlTOZbVtqlUanmo1ckp8NuOzkywZ7DZEnJkReYSoAK5SNN9O7fOcqg2FblNOqJUiccOlsM8qSr4RO7CS2yPJ52s5GV4l2dutx4p0bdc380bHIGtnkPouNn8j/wfwfoEyACGn2XZ1VKmFU7To0wqKpK6bv4DTnIlERERs7ST3ZkRERbOOBDKp9AoVJmTqhSqLAhyqm4T05+PGQ25KcIsEt1SSI1qIuGVZPAzwABCqsqzVXGm8VWlRjryUbsqqcBrlhIxjZJ7Z28Y4YyJoAGGmjUdNXXX00qGVUcjlEVNJhPKFMEo1E0bmNo0EozPZzjJmYUyjUeiofbo9KhwESpDkt9MZhLROvrPK3VEki2lqPiaj4mfSMwAAVkWYVkAGLVPi6T9Ur7BlDFqnxdJ+qV9gsdSU0OLc/Izf2139w5HFufkZv7a7+4WWY6pcAAZaAAAAAAAAAAAAAAAAAAAAAAAAAAAAAAAAAAAAAAAAAAAAAAAAAAAAAAAAAAAAAAAAAAAAAAAAAAAAAAAAAAAAAAAAAAAAAAAAAAAARFV+NoH1L/2tjkcVX42gfUv/a2ORqGZ6g4pXxtP+pY+1wcjilfG0/6lj7XAnoQlxqTQHS65dM52pki43ISkXdfM+4qfyZ01mUV5plKCcyktleW1ZIsl0cRtsBlpqm5dMrjq3hKWRqzFXDKiW9bNZpEtK3TJ835TsVTRoTs4NOGV5PJY4cDHDumNyL8KSPrETkPmFqxnbdUnenyjlSpyHyPY2cbGwk+O1nPmG1xrfwh9WapofpLWNTKPZpXTIpTkRBUw5/I96T0htk1b3dubOzvNr4B5xjh0gNN3B4INcvnS3Viwbkm0ZqRdmob16UJTqDlRcJOOtluW2ZFlCzZWhxBZ8lfAzMSWhugkmxb8p9fd8FLRmw3YLTzb1ftqquSJju02aTJlk4LO6SozLO06rCclxPiNt6zapuaQaeHfTtvlU1pn0yAqGUvc4OXLZjmrebCvgb7axs+Vs44ZyV/ABoi+dN9Wrd18PXLSWlW1XyrVttW1WKTWqq7Td1uZCnWJTTzbD+1jeuJU2aCzwwob3GnvCC1b1Z0dt6r3vamkdAuq2qBSHqrUZMu7l0yUjdEpS222ChPkvyUkZKNxOTPGCxkw1MfgfXve2j+rVg6mVm3V1i9738b6bJjsLdg7xsoy2kPML47o1sKQpGTM0KznJic0Q0Bl2NftLr73goaLWO9T0OofuG26q4/Mc2mlJPcMHBa3RKMyI9p1WEmZcTHoq1q34y2zSLj5NybnWCxN3O3t7veNpXs7WCzjaxnBZ+QhKAA8566aI31eGs1A1Kptk2TqJQoFDepHi3ds5caNT5a3iXzgyRR5CHFmgibURoJWElsqLJj0YADzHovpieg2meoVj6+O6f0mya9Wp89mbFqHJIS2ahk3Yhx3kJSwlHwEYcXtkfQnGD58BiwK1S7EkaiXVWXK1Iq6G6Nbc59o0O+K8Fa26dtEfHLqTW+Z/wAbeJM+geiLgt+27kpxwLqodNqsFtaZBsVCK2+0laDyleysjLKT4kfSQ4ti4rdu2gQritKrQ6nR5re3Dlw3CcZdQRmWUKTwMskZcPkAeS7i8HjwlfwXataF2odkM0K9qpXKtAr8ioPqlqbnrU5yNcTcbDattWyb+9URJMzJszwYvtf0c1WtLVO0NatMaZbleqsCy02VXKPVqq7T21tJcbdbkMSEMPcUrSsjSpvykmWDIx6LAB5PPwbNbatp/rrSKxc1vxLi1NrkWrQnoLjyIimm40VDkR3hvENrJhxk1FlRoVtYIzNJdNo+D3qfb+tNgawUXRrSayolAhTqDUqDb1QWla4somdqYclMNsnltmzhDBtlwUrLvHh61MyIsmfAhG23c1vXhRo9xWrWYlVpcvb3EuI6TjTmyo0K2VFwPCkqI/pIwGs7wvTVineEjYdkW43QpFj1elVCVX0qbWuoxnGkHuXSMj2W2lLNCMqIzUrJF0GZbfGutUdY4un1To9oUO2ahdl43FvFUyg09xttamW8byS+64ZIYjoNSSU4rPFREklGeBiai6xVzSmFS7kvHTmWu11x2lV6r0uciVzE6o8LU8yaULcjIzlT6MmRZM2yIjMBtAB0xJcWfFZnQpDciPIbS6y62olIcQospUky4GRkZGRjW+iOsdQ1dfvxifZh2/4lXbNtZBnO5Sc4o5IPlGN2jdkonC8jysfOMBs4AAAAAAAAAAAAAABr+59VvFzWOx9JeYeUeOUCrTecOVbHJORJaVs7rYPebe+6dpOzs9B54BsAAAAAVS87ivuiVi2IVoadeMsCq1Lk1bm87sw+ZYmwZ8q3bhGqT5REndowrjkWsAAAAAAUfVG5tVLYgx5umenNCuvCXnJ6apcy6RydCSI0mg0xJG8M/KyR7OMF054BeAFC0H1S/Dbo7aWrPMXMvjTTW6jzfyrlPJtvPkb3YRt4x07Kf1C+gAAMWqSJ0SmS5VMp/L5jLDjkeLvSa37hJM0t7auCdo8FtHwLOQGUAr2n9au24rMpNbvuyvFGvzI5OT6Jzk1P5C7k/wAXyhoiQ7wwe0kscRYQABEy7rtqBcdPtCbXITFbqzD8qDT1vET8lljY3y0I6VJRvEbRl0bRfKJYAAAAAAAAAGvdatWfwP0KhVvmDnbnq5aVbu65Vyfc8skJZ32dhe1sbW1s4LaxjJdIDYQAAAAAAAAAAANe646s/gZs2JdvMHPHKq7SqLyflXJ9nlsxuPvdrYXnY3m1s48rGMlnJBsIAAAAY9QqEKlQJNUqUpqNEhtLfkPuqJKGm0kalKUZ9BERGZmIWbqJYtOtSFfU67aWxb1S5LySpuSUlGf5StCI+wvOD3inEEn5TUWOkBYgGoq34XngvW1WJtvV/Xux6fU6bIXFlxJFYZQ6w8hRpWhaTPJKIyMjL6BLW94SGgd2N0162tX7TqSKxUjo9PVGqbSylTiQS+TtmR+U5sqSeyXHBkA2OAgX77syLeUXTyRdFNbuebDXUY9IVISUt2KhWyp5Ledo0EfDaxjIzLduSgXdSGK/bFYiVSmyTWTMqK6TjThoWaFYUXA8KSoj+kjASQAAAAAAAAAAAAAAAAAAAAAAAAAAAAAArIswrIAMWqfF0n6pX2DKGLVPi6T9Ur7BY6kpocW5+Rm/trv7hyOLc/Izf2139wssx1S4AAy0AAAAAAAAAAAAAAAAAAAAAAAAAAAAAAAAAAAAAAAAAAAAAAAAAAAAAAAAAAAAAAAAAAAAAAAAAAAAAAAAAAAAAAAAAAAAAAAAAAAAiKr8bQPqX/tbHI4qvxtA+pf+1scjUMz1BxSvjaf9Sx9rg5HFK+Np/wBSx9rgT0Iaa8MK7LooFp2XbVuXBMt9i972pVs1WsQl7uRCgvqUbhtOfyS17CWyX0lvOGDwK5DoR6F+FHp7YNgXbc02376o1ZXWqFWK9Mq5RlxENuMz21y3HHGjUtZtKIlEhW0WCyQ9C3jZlq6g25MtG9aDDrNHnpJMiHLb2214MjI/oMjIjJRYMjIjIyMhWdPNBtKdLarJr9m2y41VpjJRXalUKlLqUzcEraJlMiW644loj4k2lRJI/MMtNgDGqFNp1XhuU+qwI02K7jeMSGkuNrwZGWUqIyPBkRl9JEMkAGgfDmalv+DvUWIEsoslyvW8hl82ycJpw6tFJKzSZkSsHg8Z44wIODaErSTwqrAo9Evi7qpGvK2q85X2qxXJM1qbKiqiqakpadWbUdeXVlsspQjB4JJEN+XtY1rai0BVsXlS+cKYuTGlqY37jWXY7yHmlbTakq8lxtCsZweMGRkZkFRsa1qteFGv6oUve16340uJTpe/cTuGpOxv07BKJCtrdN8VJMy2eBlk8h4BotR8IbWuxrk1OtbTXVepaiLrdSRQqzTr9p8GjUpcaWptmEqmrqLaTaSlpKXd9HNxZqWrODIx608KB6oyPBG1IfrEQos9yyJ65TBKJRNPHEUa0EZGZHhWSyRmXASld8F/RC4Lil3TKtGTDqFReORPOk1qfTGZzplg1yWIr7bT6jLpNxKjPzi73FY9q3VZc7Tuu0lEi3alT10qTBQ6tpK4qkbBtkptSVpLZ4ZSZGXmMB588I2sVqheBXSahb9fmUWaTNqtonRHjacZSuZDSoyURlw2VGRkfAyMyPgZjrr1uS9FvCS0fiWVed3VU7/erEG6IVXr8moNS2GYZvpnEy6tTcdSHUoT+JS2jDuzs4wQ2F4R2jEzU7Qh7SSzolPSjlNIS1Hnuq3HJIsxhxbalGSjV+KaURZzk8ZPjkWGx9A9JdObjk3daNplGrElk4pS5E6TLXHjmZHuI+/cWUdnJEe6aJCOBeTwAW166bYj3CxaUi46W1XJTCpLFMXMbTLdZLOXEsme2pJYPKiLHA/kGjvCg071Wu+4LUrVrU6q3TaFJZmIrtpUi7X7bmznnN3uJDcppbe8NskuFuVutpPbztDaFQ0Z02qmq9L1wn23vb2o1NcpEGqcskJ3URZrNTe5JZMqzvF+UpBq49PAh0ahaH6baoz49Vu+kVBc+KzydqZTa1Opcgmdra3Zuw3mlqRtZPZMzLifABrXSyJpPrfobV7VpsXUCFTqLVpcCo0ys3JUmavTagwZKXGXMbkm+tKTUkyInlpMlEXEuBVbwBtFbDo+hOnepUJNxlXXaU7t766ao9DypxxCsQnJBxU8PkaLB8SwfEej7HsCzdNbfbtaxrei0eltrW7uGCM9txZ5W4tSjNTi1HxUtRmoz6TMVSz/AActIdP7qO8LMt+o0mbvHnijR69UCpyVu7W8UmAb/JUmZqUeSaLieS48QHjzwjbluGsWDqXrzo7bt5m1aFQnJbu6oanz4DbEmHIJDqYdHZ2470dK0Kb2XSbNRZ49ChvfwnJF2Vq5tAaDQL2q9squW6nY0+VTHTQ4tk6VJWtOM7JnwPZNRGSVbKiIzSQvtU8FDwfK1UK5UKtpvEllci3XqnDdmSVQH3nCMlvlDNzk6Hjzk3kNpczx2s8RZGdGNOWYtmRDoch5Gn0g5VuqkVOW85DdNlbJqU4t01Pfi3Vp/GmsuPykRkFapng1WLS6Dclru1++J9FuJ+NLcjSrxqqn4zrJcTZllIKS2S1ESlIJ0kmfDGDwNSeAVohYFN0ZsvUiKm5OfEKqRfjbrqrsP+FyGuMJck43wf8AgunyvhcR62Gs7Z8HDR+zLwO+bUt2oUmoqkvTDYi16oN0/fu7W8c5AT/JNpRrUZnuuk89PEBTbDJuR4aWq71WIznRLRttmk7f8WAtctTxo+g3y8rHnSn6Buy5I1LmW7VIlbbZXTnobzctLxFuzZNBkslZ4Y2c5FB1T0fqtz3LSdTtObpate/KFGdhMTn4fKodQhOGSlQ5jJKSpbW2RKSpKkrQrJpPiZHjalaa6oarUuBZlWvil0C1Z1PQ1dbdIiOHPqKz/LRo7614jR1llJq2VOmkzIjSflAIzwKXqg/4Kmma6kpxSyobaGVOZ2jjJWpMc+PH8iTf8w3FCpdMppyFU6nRopzH1SZBsMpRvnlERKcXgvKUZEWVHxPBD5o9Iplv0mFQqJBZhU+nR24sWMynZbZZQkkoQkvMREREX6hmAA8z6wU2oXh4XdhafSL2uKj0CpWPWpM+FSao7COcbcuJhJrbMloPBn5bZpcJO0RKIjMemBorVLwdo+q2v9q37c9OhzLYotrVOlOkUx6NOZmvvsLadYcZNK2zJDbhbxDiVFnBdJgNb2hetO0igeEhatfvC7KhYGnz0Pm2UVUfmVSCcuClT0JiW8tTilocUjYNazNBulk/OILTyHqNp74TumMN60K9Z1Bvan1pEuDU9S51zOzzZioebW/HkEpuK6hWOLLq0ntKLzD1BQ9D9J7dsKo6YUuyIBWzWSe5zgv7cjl6nSw4uQ46pTjy1cMrWpSjwXHgQrtN8FDQSlP0ebDsmRy+35SJlMqLtbqDs6MpJGRNplLfN7c4MyNg1m0ZHg0GQDWcWx6hq14VWsVr3Rf11sWlR6fbbiKHS6zKp6XH3Yr3l7+O4h1CSwZmhtSSWoyNe1skQz9XqbTKLE078HemxL5vu5FU2TIiRmr1k0EpMSKlttyVUp7CieURKcQREglqUpRnsngzLfVJsO1KHd1fvul0rcVy524jVVlb9xXKExkKQwWwpRoRspWovISWc8ciI1G0Y021Xepcy+beclzKItblOmxZ8mDLjbeCWlD8Zxt0kKJJEpG1sqwWSMBp7wHqpeqqNqZaF6OS0OWpfEmmQoUm4H62dPjnGjuFHTOfQh19CVOKwpaSVxwecZHpcUaxNEdLdMq5UrhsC02qHLrDbbc5ESS8mO+aCIicOPt7nemRFtOkjbVjylGLyA8E+EZV6pfNJ1f1G0kty9JbliLnRX7nkan1CixaZPhxkm6mBTY+21IS2ZFtE8hBLWayJR5yV4vOLL1M1m8GtNauCo092vWXXZE+RTpBxpD23EhLcQh1OFtbfEjU2aVkWdk0nxLdlX8GDQivXFV7nrGnsWVKr6jcqkdyVI5DNdMiSbzsLecmW7gi/Gm2a+BeVwHXI8FvQqZR7doc2yVyY1pRZMOhKfq01x+nNvqQpzcvqeN1CstoJKyVtIIsINJZIBrPR9+q2dqbr1pFRbhrlUtG1adTKhSXKnVn6g/TZcqG8p+ImQ+tbppLdtOES1mad508RFeChoxMvzQ/SXVi9dWL9qdztwqfVUPlXpTUXcJLPJFxSc3LyVF8Nx1K3FGZntJLCS9D2NpHp3ptbUy0rMtxECnVFx16dtSHn35jrhbK3H5Dq1POuGXDbWs1YIuPAStk2XbWnVpUmxbNpvN9DocVEKBF3zju5ZQWEp23FKWrBedSjP6QHnXW6w6NYevGjd5WtVboh1G679XFq7arpqb0OSyqnynDb5G5IVHQnbQkyJDaSLHATXhszrojWnp3CtG7ajbk2q6kUGnqnQV4Wht11SVEac7K0/7xWUngskZDdVz2BaV5VS3qzclJ5ZMtSo87Uhzfut8mlbpbW8whREvyHFlsrJSeOcZIjHzemntn6htUhi8KRzgihVaNXKeXKHWtzNjq2mXfxak7WyZn5KspPzkYCt6baIUXS+5KrcVGu+8KlzzCjx5Uat1+VUmt+0pxSpKCfWrdOOEsiUlvZRhCcJLiNjgADwPWaxqrrdqPrCw7ppqtXZFp1563bcXal9Q6HFohNR0KafXHXPjqfdcU5vTU624g0mlJdBkPWmmatRFaEUL8LcI4l5pt1CK60bzTplMSzhwzW0pTajMyzlJmXEdV7eDpo/qBcSrvuC2JLNcdQhp+o0isTqTJkoR8BD7kJ5pTyUlwJLhqIvkF1o1sUO37eYtSkQCj0uMwcZpgnFqw2ecltKM1GZ5PJmZmZnnIDTXgH/8Amd6S/wDy1H/eN8iAsOxbV0ys6kWBY9L5toNCjJh0+Jv3HtyynoTtuqUtXT0qUZ/SJ8B5F14sjUGlan3LqXfNo3vf2naYUZ6ms2dfMujzLdQy0fKDOC0/HTL2lEbm2Ti1+bYMiG1K/aWmmuWiNBudmpXTLpDVB50okuNcdTpcpaFxiNC31RX2luqwSTMnTVxyfSZiUu7wZNFb5rs24rltaa/Kqa95UGmK7UIsScrYJGZEVl9DD+UpIj3iFZIiyNhR6BRodCRbEKmx4tKailBahx0bpptgkbBNoJONlJJ4ERYwXQA034L8q67r8Dqw5LVySCuKqWczuqrNWqQ4mUtkyQ84azM1mSjIzyZ5wNSaNw5mjF+2RbuvVo6i0+9K5IVS412ov2dW6BcE/cLNRORlv7MZS0pWtKFRkkkyLZUeMj1PQ9MrGtvTuNpPSLfbbtOJTeaGqa6648gomyaN0a3FKWotkzLKlGf0isWl4NWjFk3JFu6i2rKeq1P2jgP1StT6mUA1J2VcmRLecRHynyfxRJ4cOgBoXWLQTTy4PDa00RUkXTu7lt26J1QOPd9Xj/j2lQdgmTakpOMnC1ZbZ2EK4bST2SxNeFFPuLTWJo/onpvS7vmUC5q1JhVBil3JuatMYYjrfTDRUp8lC0G6vJmo3ycNDakoPJkQ31qVo1pzq61TkX7QXZjtIdW9T5cSoSYEuItadlZtSYrjbyNoiIjJKyI8FnI66lonphW7DiaaV+2CrFvwFk7FZqcyRMfZdJRqS6mS8tT5Okajw5vNss8DIB5FuSDr5YOk2tqWLVvuwbQcolNk2sdyXdHrU6n1PlBNySafZmyHyZUk2lbK3OnbIj44EFedk6nWTUtTl/3ROoU9jTut2nWobbtRJJy6hUFslK3xpIsxdk1EiMnCE7R9I9f0/wAGbRmnUCr2yVu1ObBrrCY0/nK4qlPecZS4ThNpfkSFutp20pPCFJLgQm65oxprcarkXWbb5Qd3Lp7lZPlkhHKlQjScU/JWWxsGlPwNnax5W0A80+EE9K1NuTUf8G1o3fW59hRCi1GsK1Nn21TqTMTE35JiRou2Uh1CFoWvetbBqMk7R8SL0H4NdyVq8PB905um457k2qVW2adKmSXDyt55bCDWtX0meTP6THFw+DjotdV4TL6r1jsyqtUkIbqP99yERaiSEklByoqXCjyTSkiIlOtrMiIiIxZNPNOLO0qttq0LDpbtNo7Di3GYi5j8hLO0eTS2by1mhBfxW0mSElwSREAjtcLwrGn2jd731b7CHqnQLfn1GGhaNpJvNMLWjJecskRmQ8eajab0eg6MaJ6iSNSbsrNxXVeNnzKm9UrjkS41XffkNPKUiK6tTLWweTTydDeElg8lnPvWVFjTYzsOZHbfjvoU0604klIWhRYNKiPgZGR4MhqSD4I/g9U5MVuLp6RN0+oR6pAbXVZriID7DqXWyjJU8ZR2iWlJmy0SW1bJZSZEA8+3nXNQ9XNftVLVqGmeqNzUyx34NLoka0L3iW+1A3sRLxzHULnxnH3XFuHsmonGiS3s4ztEPTng7N6pMaLWpF1phSI15xYRx6omRJYkOrUhakocccYWttS1NkhSjSoyyox9374P+k2pVbbue6bZfKtNspjc6UuqzKVNWyk8k0t+G604tsj47ClGn6BbbVtWg2VQYttWzBOJToZK3TRurdVlSjUpSluGpa1GpRmalGZmZmZmA7rgrNOtyhVG4KxIOPApkR2ZKdIjM22m0GpasFxPBEZj8/5lbva37j0T1esi2LxoFu3vetJgHV6/qdPqkyswJqXPJkUlW3FZStGHCNDhKQZJLZLzfoXKixpsZ2FMYbfjvoU0604klIWhRYNJkfAyMjMjIacLwOPBw5rOjHpztREPokxEKq89Sqa4hZLScFZv7UEiUkj2Y5tlwxjHABSb71Wk+DLrLdsm6Zk6dat+UNdet1h+StzZr0RCWnqbH2jMknIQphaG04I1k6ZFxMRl1Qb807pXg60m4rpqaq/XNQkSLlWme6aH5EmJMfej/CwbCHDJCG/gkltGC4DYV6aVXlqtqhajN52zbsLT/TyrIrtLeTUnJtRqs1tg0RzcbWylMZDanFqP8Y6pZoRxIjMhsTUjS2w9XKC3bWoNBKpwWJTc6PsyXoz0aS3nYeZfZWh1pxOTwpCknxPjxAaAubVWtW54RGuky3aw5VjsvSuBUmaQmUp1hmehU13BtEeEOKSTWeBKNOz9A1DqFYlOZ8F/SzVyrajXZU7qvK4bOqNUXULjkSItTfkzozy20Q3Fmw0TeTNBMIQoibwZmW0R+y7L0J0n08rU64rPs5iBUapTmqVOf5Q86cqO2444ROk4tRLWa3XDU4ojWs1eUpXAVpjwQvB2jMJiM6dJKM1OYqMWOdUmqZgvMvJeb5K2b2zFRvEIUbbJIQrGFJMuADWeuza9UtS7ltGxrLuu56xZ1Mic6PJ1Kn2rSqW4+hbrO7TE21PyDR5Z7TSkYJBGougbL8Dy6rivXwY9OrmuypPVCrzKM3yuU+4bjjy0KUjaWs+KlGSSyo+k+Inrs8HvR6+LuO+rms5Eqsux0RJTqJslhqcyjOw3KZacS1KSnJkRPIWREeCE3p1pfY2k1FetzT6iHSKU/KdmciTKedZZccPKiZQ4tRMt56G29lBccJLIDH1m/wDJBfH/AMuVL/8ABnB4Mu7+6Z/uM9MfG38GPiHv7G3XN3OHO+55fB5Ptbz8Tt52NvHDG1jzD9GK1R6dcNHnUGsR+UQKlGciSmttSN404k0rTtJMlFkjMskZH8gq1U0Y01rWndK0nqdt761aJzfyGByyQnc8hcbci/jUrJxWwtls/KUe1s4VtEZkYar8ND4p0l//ABr21/16hj+F1Yc3UWuWRQKKlsq6xErlToTqi/I1SKyw/FWR+b8a2gj+gzLzjd96ae2fqG1SGLwpHOCKFVo1cp5coda3M2OraZd/FqTtbJmfkqyk/ORjPn2zQ6nXaVcs6DvalREyEwH96tO5J9JJd8kjJKskki8ojxjhgB5O0klXLfeuVga5Xtak63KverVebjUuoMG1KgU6JEitNNOJVxSanuUvY4cHiG0vAm/82m1fr6p//UZI27ULUoFVuGkXVPgb2qUJElunv71adymQlKXi2SMkq2iQn4RHjHDHEaop/ga6B0kyKkUq8Ke0l9chEeHqBcDEdC1LNatllE0m0kalGeySSLifABu0aF8Mu97qs3TOiQrXr8m3Suu7KRbVSr0ZSUO0mDLf2Hn21q4IXjCErMvJNwjLiRGN8pIkkSS6CLHSIu6bUtq+LfnWpeFChVmj1Jo2ZcGayl1l5HThST4HxIj+gyIwGsomj9t6HUCv33YUq8qpWINDmOFGq12VKqNTnkN7aTUzJfcbSs1ILi2lHwjIuB4Hmmr0+p234G9N8L6matXlM1LVTINyqlu3JLcgVCU86g1Uzm/eHFJlRrNlKENEssFxyQ9a6faBaXaX1NVXs2kVWPINk46CmXBUZ7TDR4yhlqU+4hlPklwbSksFjoETD8FPQCn3G1c8TTthEhiadSZhnOlKprMzaNXKG4BunEQ7tGattLRKyec5Aazl2vU9W/Ctuy1LmvC6adbEaxKBPk0Ol1iTAJ6S6/NLi9HcQ42RbPlE2pJrNKNozJODungb1auVLRpyDXq9UKy7Qrmr9EjzKg+p+SuLFqT7LBOOKypxSW0JTtKMzPHExtKHYtqwL2qWosSlbu4avAjUuZM37h72NHW4tlG7NWwnZU84eSSRntcTPBYWXYtq6eUp+iWfSub4UqfLqjrW/cd2pMl5Tz68uKUZbTi1KwR4LOCIiwQCfHiGdRbk0VvCdfHhI0DUOuQX7oU9Bvy3L6nKp8ONIlkURiVSEvtpZbQS221bLLyDLpPjge3hqVjwU9BmK2xXTsl6Q5Fkpmx4Uqsz5FOYfSrbS63BcfVFQoleURpaIyPiWAEBRa9VP7ta7qHIrMrmqPp1SpjcNchXJ23TnSiW6TZnsko0kkjVjOCLJjq8Cq6ZV5aVV6uyLherbTt83KiJLclKkEqMmouk0SFmZ/iyRgkkR4IsY4C+33oHpLqXcsG8L0tFM6sQIyoSJLc2TGN6KpW0cd9LLiEyGTVx3TpLRkz4cROWBpxZWl1EetuwqE3SKY/Ok1JcZt1xxPKJDhuOqLbUo0ka1GeyWEl0JIi4ALKPz8i29dCfA2T4QVQ1VveReNEqC5NHebr0tmNEZRWlNbhcdLm6kkpBqJSnkrMyMiTskkiL9AxRvwJaY/gyXo54s/8Aie5tGqnctkccyOUH+N3m9/K+V8P6OjgA0/r4+xqFqjG0utqz7qu246ZQUVeXCjX/ADbUpMOO88pDTrz0MzddeUptZJSTayJKTzs546806rOrdf8AAyi3+1W6xKvDS66qpPbYTVXZblQh02ovtuwHnzJJyiVFJxtKlpI1KS2rBGXD05fOgulGo9xQbtu61lSKxT45w25kaoSobjkYz2tw8cdxG/ZyZnu3dpGTPgM3TzR3TbShirQ9O7XaokOtyTmS4Ud904m9MjJRtMKWbTBHkzNLSUJMzyZGfEBrKztQVa7a1Q7nsmsvv2JY9utTMxn1JbqVXqTKXG23CI8K3ETZVsnnC5KT4Gkh5etipeEbrHpnJ1fszTHVeqalS6rKlUqtxdQKdDocRTE1SSp501dRQgmEob3Sydj70z2lGfEh7w0s0g030Utx60tL7WYoNJkTXqg5HadccJUh08rWanFKV5iIizhJESUkRERCs1jwW9Da1X5dyv2dJhzKi+qTPbpdbn06LNeV8JyRGjPtsvqV5zcQoz8+QGuKzBm63eFFWdL77r1x0i37Os2lViLR6PXJVLOZPmPPE7IceiONuOkzuEIJO2aCNZmZHka70g1EiWroNrQd63re10xYmqVQtakSIlaUdWl7bsViLGYlGpJNmpSiSayUkiJS1ZI8mNxa86PVe7LooVdtrRK0rrOlwORNzJV5T7cmx0beTYUuIw5ymMZEkzZcPZyR8DyMvSLwYbbt3RmsaY6m0WiVdq66xMr1Yp0JtbdPjvvvE4hmL8FaEMklskLLZVlG0WyeMBqnQ2NqJYHhax7Fq9vVS1aDXrImVU6LK1DnXUl2QzMYQmQpUtJHHcJLikmhta0GXn4cfUoqdE8GPRK3a3RbnpNoPtVugLUqHVV1ic7OUSiIjbfkLeN2S3wL8W8paCwRkkWwAGLVPi6T9Ur7BlDFqnxdJ+qV9gsdSU0OLc/Izf2139w5HFufkZv7a7+4WWY6pcAAZaAAAAAAAAAAAAAAAAAAAAAAAAAAAAAAAAAAAAAAAAAAAAAAAAAAAAAAAAAAAAAAAAAAAAAAAAAAAAAAAAAAAAAAAAAAAAAAAAAAAARFV+NoH1L/ANrY5HFV+NoH1L/2tjkahmeoOKV8bT/qWPtcHI4pXxtP+pY+1wJ6EMPULUK0tLbSnXte1UKDSoBIJaybU4444tRIbabbSRqccWtSUpQkjMzMiIec4mtrmovhdaU0+lwL2tiKdrXQ7UaHcFOkU1bikqg7h5bK/IdLG82VkatnKi4HkhfvC4sO770sS26rZdIfrU6y7vpF1O0eO4hDtSjxHtp1lvbMkm5sqNSUmZZUgizkyFAlHqDrN4S+nd7q0kvC0bWi2ddFLVOrMdDMpp+TyQk71ptSyYzsHu9tRKUaVnskREastLy94Z2jrFRWpUS7VWu1MOnuXom35B28iSTu6NBzMY2Sc8g3CLd5/j44i56o69aeaP1S2KXe0yWyu7nJTNNcjRzfStxhonDb2UGa1LWRklCEJUpSjIiLiPL7VK1hp/guOeBWnQG55F0HRXbVbuAm4/i4uOpZoKoKlb3Jfi1bw2jRvNstnGeI3FfOm1cRq34ORR6RKrFOss6s1Uajyc1txlc1ky064riSDWssEZ+cwGxdJ9YqJq9HrTtKtu5qFIoE8qfNhXBTTgykOKaQ6hW7MzPZU24hRGeDwfQL6A1vodqZfGqFDrVUvvSKqafSqZW5NMiw58hTy50ZvZ2JiTU03hC9o8Fgy8n4RgNkAAAAAAAAAAAAAAAAAAAAAAAAAAAAAAAAAAAAAAAAAAAAAAAAAAAAAAAAAAAAAAAAAAAAAAAAAAAAAAAAAAAAAAAAAAAAAAAAAAAAAAAAAAAAAAAAAAAAAAAAAAAAAAAAAAAAAAAAAKyLMPP1xXFXY1dnsMVaU223IWlKUuGREWeggG2xi1T4uk/VK+wad8aLj67md6Ym7TrdXqEyWxOqMh9vkbitlxZmWeHEWOpLcI4tz8jN/bXf3DkcW5+Rm/trv7hZZjqlwABloAAAAAAAAAAAAAAAAAAAAAAAAAAAAAAAAAAAAAAAAAAAAAAAAAAAAAAAAAAAAAAAAAAAAAAAAAAAAAAAAAAAAAAAAAAAAAAAAAAABEVX42gfUv8A2tjkcVX42gfUv/a2ORqGZ6g4pXxtP+pY+1wcjilfG0/6lj7XAnoQlwHnP/dA2W5PguXDHepXObbtUoiFwco/vojqkYja8syT5XwfKMi48TIh3+D9pZYVu3bJr9K8CxjSGoxoim2KutVFWt9KzIlspOBJeWngRGe0RJPHTkZaehQHjqnaz6j0/VGo0zXTV65tLXE3G7Bo1Nes+Iq2qnC3+IpJqi2VqU663s5y+0ZKUZJTwGx9T9QtSLm8IGj+DlprdbNnEq2HrrrVf5vamyyjlIKO1HitvEplKzXtKUtxCyIiIiTkBv4BpnUR7UvSDwdNRLgkaozLluGiUGo1Kl1iZSoTD7C24xqb222W0sOGS0mr8mRHnBkeOMdo/SvCKuOHp/qXeOrsN2DUqciVXLai0mM3EU07EM2lNv7o31PE4ptSzJbbZltETZFggGzKzqHAouoFvadvW/cEiVccaXJZqEanqcp8Uo6SNSZD+cNKVteQRke0ZGMf8K9r/hf/AAJbud4w+L3jNtbouTck5RuMbe1nb2/Ns4xxz5hqVydq5YHhS2HZVU1trd02zelPuCa/SqhSKUyiKqKllTKWnY0Vt4yTvjLylqM8FnPEVi9qTd9c/wB0ATTLPuxFtPvaR4fqSYTcp9lrnU/yKHSNrb2tnynErSRZ8k+GA9aAPMtha33TC0/1dpeqmpEKDUdL7hcoKbvVR0rOS0tpl1h1UNrCXJB78m922REpezsp47Irugmump1U8I1vSy46xqBVreq9szKzGfvazolDkofYkMoI4vJ0N71hSXeJOI20mSePHAD14KVrJqzbeh2nNW1Pu6HU5VJoxNHJbprCXpBk46ltOyhSkkflLTnj0C6iFvKzba1BtmdZ14UtNRo9SSlEqKpxaCcJKyWXlIMlFhSUnwMugBKxXylRmZSW1oJ5tLhJWWFJyWcH9I7RqXwmdUbg0o03jzbNaieMVw1um21SHZbZuR40ma+lpLziCMjUlCTUrZyWTSRZ4inQ6hrdp54QOm+nVzaxqvG3rpp1clS+V0GHElnIitMqQW3HQlO6I3cpSSUrLjtLcIywG3NSdVrI0npUaqXjU3Wlz3+S06DEjOSptQkYyTMeO0SnHV4LOElwLiZkRGYi61rpZFrVe3aTeLVZt4rnYYXBmVKmOtQ0yHTwiI9IIjbYkGeC3bik5MyIjMzwKHabSbq8NG/6hWjJ1ViWpRafQ2Vnko6Z6n3pT6C8ylmy02ai44bwNtak2lQr8sC4bOuWKiRTKvTn4slCy/iqQflF8hpPCiPzGRH5gFlFE0q1jtXWBN0KtaJU2StK4JdtT+XMJa2pkfZ3ht7KlbSPKLBngz+QV7wR7qrV7eDRpxc1xS1y6lLoMcpElZ5VIUgjb3pn5zWSCVn6RfrTsW1LGKrlalHbp5V2qP1qobDi1b+a9jeuntGeDVslwLBfIRAJ4AHn/VS7tXJHhM2ZpHYd8R7eotctGrVSpOOU1mU4hxiRHQh1nbT+UInFJIlGbflGpSFmREA9AAPNlkau3jbKNabE1X1OhKd0wVDdi3pKpTSTOJMik60qRGYJDa3m17Sdlsk7eUYSRng6do3rzqbL8I639OKvXdRa1bN1UepzW5F6WVFoWy9GJpaFwVMttLcaNLiiUl5BqTlB54gPYgDzRErmv2pevGsGnFu6otWrbNpqpBU+ZHpcSTPYekQScNpsnmVN7s17S1LdJ1XQlJJLiM3Vq+r0sKy7KtKv6t15i/pdNM57FkWkzWKpWJDTbZPPx2XWlMsMpWajNS2iT5aCI0nwMPRQDz/4GesF76u2LdDl/nUXKla11zqAh+qUtunT3mGkNLbVKjNfi2niJ3CiQRJyWSIs4HoAAAeQtSNXtTrY1fuWm6oao3VpPaMOUym2qpT7Pi1GhToqmk5cnT3WXlMub01kaTUwlJEnyjzkbM1/1M8WaBbUGh6pV2nVavIcchR7RtlmuVasIQ2lRuRmXEuNNtp2iUpxaDR5aS2iMyyG2bwuTxQtmoXLzDWK1zeyb3N9Hi8pmyOJFstNZLbVx6Ml0GKRo3r9b2s9SuSiU2z7wtmqWouKiowLmpZQZCOUIUtoyQS1GZGlJnk8dJCl+Brq7feqtr3lG1Adqz8+07pkURh+s0hql1J2OTLLqDlxmfxTbxb0yPYJKTIiPBZHfo7/AOdP4QH/APC//wCALAbRvPUOBZNYtiizLeuCouXVUubGHqZT1SGYa9g1b2UsjLctcMbZ54mRC1jzdqrP1e031s0wkwdb65Pty+ryXSZltyqRSiisRThSHiQ28iKmTwU0nip0zxnJmJfwtNQ9UbBg6bR9J6tBg1W577gUJ/lzCHY70d5l81IcylSiTlCVGbZpWezglJzkBvoBr7Ti0tWbZuCuPX9qud40maxFXTm3aXFhOQZBG5yhKSYaTlkyNrYJxbiywrKvOewQGDXKvEt+i1CvTycONTYrst4myyrYbQalYLhk8EYjdP72o2pNj0LUC3kyU0y4qexUoZSUEh0mXUEtO2kjMiVgyyRGY81ruvWbXG29X7zoepDNsW5as6uWzS7fKix5TM9MNo0PPzHllvyUte3sEytskkRGe30Cn03Xyp6Y6C+DZpvRq3Pt929LVafm1yDbcmuSYEOJDaNXJ4jDTpqdWt1tJKW2pCC2lKI+AD3IA89+C3q1eN9V6+LRuKr3Bc1Kt5yC9RLnrNoyLfkVBl9te8acYdYYSpxpxsyNbbaUmlaeHy+hAAB+YWqj+kjF/a+RLm0MqdYvat3uVFtm9igtx4VInSKfFbik5VFOJOMaHVbeC+Xhk1YH6NacUSv21p/bVu3XWTq9aplJiRKhPNRqOVJbaSlx3J8T2lEZ5PjxAWMAAAAAAAAAAAAAAAAAAAAAAAAAAAAAAAAAAAAAAAAAAAAAAAAAAAAAAAAAAAAAAAAAAAAAAAAAAAAAAAAebbo/wjqX7S59o9JDzbdH+EdS/aXPtARYsVj/ABjL/YXftSK6LFY/xjL/AGF37Uix1JbuHFufkZv7a7+4cji3PyM39td/cLLMdUuAAMtAAAAAAAAAAAAAAAAAAAAAAAAAAAAAAAAAAAAAAAAAAAAAAAAAAAAAAAAAAAAAAAAAAAAAAAAAAAAAAAAAAAAAAAAAAAAAAAAAAAAIiq/G0D6l/wC1scjiq/G0D6l/7WxyNQzPUHFK+Np/1LH2uDkcUr42n/Usfa4E9CFc1s0np2tmnU/Tup1yoUZqa/EkpnQEtKfYdjyG321JJ1KkH5backpJljIi7K0v1Rtu4o9XuXwlLvu2nspWTlJqFEokdh4zSZEalxYTTpbJmSi2VlxLjkskNnAMtNFXH4L9RvVCqBfWvuoFfs1yY3MetuUmmoZf2HidQ05JbiplLaJSU+SbvEiIjMWfVPQej6j3DRL6pN2V+zLxt5p2LAr1CcZJ/kzuDXHdbfbcZfaNSUq2FoPBlkscc7OABrR7Ryo1vSu6dMb71SuS6juuFJgSatOYhMSGGnmd0ZNNxmGmU4IzUWUHxM85F3tW341p2xSLWhPOvR6PBYgNOO421oabJBGrGCyZJ44ISgAKXcGl1IuHVG0tVZVQmN1C0IdShRY7ezuXkzEtpcNeS2sp3RYwZdJ5yKlf/g5sXjqqjWeg6m3XZ91R6Cm3o8mkHFW0iMT63lbbMll1t3aNZcFpMi2UmWDLI3CADSheCfp8rSOraUyaxX5DldqpXDULiclJ50fq6XkPInGskbBLStpvZSSNgkoJOzgfFK8GeXD1Dt3Vir63XxWrroTL0FybMRT0tTKe6aFLhqjtRkMtoNTaVG42lLpn0rPhjdwAAAACnataWW3rHZMqyLncmR2HXmJcaZCd3UmFLYcS4zIZXgyStC0pUWSMvMZGRmQ08Wjt5W54R2lV11O6brvo4VNuFip16qNMIREStmOUdrYitNMNEo0r4kjaWZHtGrBY9JAA01qVp1flF1Oha7aPxIFSrXNpUO4aBOlHFbrFPQ4pxlTT2yompLS1L2DWWwpLikqNPAyydWmdab9oMewLGtxi241ywEt1y4p9QaW7R2XSNL7Mdho1G9KJJmSVmaWkmZK2l42RtwAENZlpUSwrSo1k21G5PSqDBZp8NozyaWWkEhJGfnPBcT+UTIAADzbrBpReV9eFVY1w0Gs3RbMKlWZWGSuOjIbNMWWuVFNtpwnm3GHNtBOHu3EKI9nJFlJGXpIAGlI3gpWIvTS8dPrgr9w1yXf0sqlcFxS5DaalKmINBsvJNtCW291um92hKCQkk42eJ5x4ngwzvHS1dSa7rvftbum03HW40+YmnpbcgupJL0RUduMlkkuElO06SCe4FhwsFjeYAKZael9ItC/731ChVCY9Nvp6A9NYd2d0wcSPuEE3giPinieTPj0YEDqXoUzfd70XUu3tQbisq6aLBfpSalR0xHTkQXlpWthxqUy60ZbaEqJRJJRH0GNogA1bo3oJTtFKtdE2g3xctVhXXNKqy4NXdYfJFQUhKXpSXibS6andhJqSpZoTjyEpLgNpAADSt+eDnX7/AOfKNUvCF1Bj2nchvJqNvMopqmVMO8HI7chcRUlpoyM07KXeBHgjIZt5+DlRa5UbPr1kXnX7CrNj01yiUudRSjPHza4TZLiuNS2nm1p/EtmRmnaIyyRjboANWaRaCQdHbiuat0W/bmq0e7H0VCowqs6w+ldR2EIcmE6TSXSWtLaco2t2n+KhJYIrDa+mFItXUS9NR4dQmPTr35v5Yw7s7pjkjJtI3eCI+JKyeTPj0YFyABStQNK6PqHcFk3DU6jMjPWNXOfYaGNnZfe5O6xsObRGezsvKPhg8kXEfGp2k9G1Sk2hJrFSmxFWbcca5YhRtjDz7KHEpbc2iPyDJw84wfAuIvAAAAADRVS8FCjSKpdqaHqdeVAtm+ZL9Qrts052KmHJmPIJLryXVMnJaJeCUtDbqUqPOSwZkM+b4L1pSNPrBsym3TcVHqmmcZqPbly059puoxtlkml7W0hTTiHEERLbUg0KwXDgQ3MACkac2DddmuTZV26w3PfUiWhttB1eNT4zcZKDUf4tuHHZTtK2uKlEoz2U9Au4AA1gjwebCkUrUqgV9t+s0vVGpOVKsRJezsNqXHaY2WjSRGRETCFEZ5USuJHwIZUTSGSzok5ovJ1GueRtUlyjt3Eb6G6q20aTShwnUJIt6hOCJeMnskZ5PJjYoAICwbT8RLKolmc+1OtcywWoXONTe3suVsJIt46v+Ms8ZM/lE+AAAAAAAAAAAAAAAAAAAAAAAAAAAAAAAAAAAAAAAAAAAAAAAAAAAAAAAAAAAAAAAAAAAAAAAAAAAAAAADzbdH+EdS/aXPtHpIebbo/wjqX7S59oCLFisf4xl/sLv2pFdFisf4xl/sLv2pFjqS3cOLc/Izf2139w5HFufkZv7a7+4WWY6pcAAZaAAAAAAAAAAAAAAAAAAAAAAAAAAAAAAAAAAAAAAAAAAAAAAAAAAAAAAAAAAAAAAAAAAAAAAAAAAAAAAAAAAAAAAAAAAAAAAAAAAAARFV+NoH1L/wBrY5HFV+NoH1L/ANrY5GoZnqDilfG0/wCpY+1wcjilfG0/6lj7XAnoQlwABloABHR65Ck1mTQmyc5TEQlxwzT5ODIjLB5/3xAJEAAAAAAAAAAAAAAAAAAAAAAAAAAAAAAAAAAAAAAAAAAAAAAAAAAAAAAAAAAAAAAAAAAAAAAAAAAAAAAAAAAAAAAAAAAAAAAAAAAAAAAAAAAAAAAAAAAAAAAAAAAAAAAAAAAAAAAAAAAAAebbo/wjqX7S59o9JDzbdH+EdS/aXPtARYsVj/GMv9hd+1IrosVj/GMv9hd+1IsdSW7hxbn5Gb+2u/uHI4tz8jN/bXf3CyzHVLgADLQAAAAAAAAAAAAAAAAAAAAAAAAAAAAAAAAAAAAAAAAAAAAAAAAAAAAAAAAAAAAAAAAAAAAAAAAAAAAAAAAAAAAAAAAAAAAAAAAAAACIqvxtA+pf+1scjiq/G0D6l/7WxyNQzPUHFK+Np/1LH2uDkcUr42n/AFLH2uBPQhiXrV7wodOZqNn2mzca23cy4PLkxX1MbJ5NhSy3anM7OELUhJkZ+WXnibE1jse/5a6LT5r9NuGO3vJdv1ZhUOpRiLgZqYcwakZ/lEbSD8yjEtetIvCuU5mnWfdjNuLcdxLnchTKfSxsnkmErPdpczs4WtK0kRH5B+aJsTRyx7AlrrVPhP1K4ZDe7l3BVn1TKlJI+Jkp9zJpRn+TRsoLzJIevpf8O/wGX+I//u/y8t3/AP6X/Hl8OT+XjtTM8/Nt09dF4FPpP/lKrf7K1/qti4Cn0n/ylVv9la/1Wx4zkXAAAAAAAAAAAAAAAAAAAAAAAAAAAAAAAAAAAAAAAAAAAAAAAAAAAAAAAAAAAAAAAAAAAAAAAAAAAAAAAAAAAAAAAAAAAAAAAAAAAAAAAAAAAAAAAAAAAAAAAAAAAAAAAAAAAAAAAAAAAAAefrit2uya7PfYpMpxtyQtSVJbMyMs9JD0CKnNmxKdFcmzpCGGGS2nHFnhKS+Uz8xANM+K9x9STO6MTdp0Sr0+ZLfnU6Qw3yNxO04gyLPDgLj+EKx/8q6Z6wkStSUldLfWk8pU0Zkf0YFjqSmxxbn5Gb+2u/uHI4tz8jN/bXf3CyzHVLgADLQAAAAAAAAAAAAAAAAAAAAAAAAAAAAAAAAAAAAAAAAAAAAAAAAAAAAAAAAAAAAAAAAAAAAAAAAAAAAAAAAAAAAAAAAAAAAAAAAAAACIqvxtA+pf+1scjiq/G0D6l/7WxyNQzPUHFK+Np/1LH2uDkYjU7m6pSXXIcp1DzTRJUy3tFlJrzn+shSFhARHjGz1XUe494eMbPVdR7j3jNStwlxHR6HCjVmTXWzc5TLQltwjV5OCIiLBY/wB6Q6fGNnquo9x7w8Y2eq6j3HvCpLhLgIjxjZ6rqPce8PGNnquo9x7wqS4S4CI8Y2eq6j3HvDxjZ6rqPce8KkuEuAiPGNnquo9x7w8Y2eq6j3HvCpLhLgIjxjZ6rqPce8PGNnquo9x7wqS4S4CI8Y2eq6j3HvDxjZ6rqPce8KkuEuAiPGNnquo9x7w8Y2eq6j3HvCpLhLgIjxjZ6rqPce8PGNnquo9x7wqS4S4CI8Y2eq6j3HvDxjZ6rqPce8KkuEuAiPGNnquo9x7w8Y2eq6j3HvCpLhLgIjxjZ6rqPce8PGNnquo9x7wqS4S4CI8Y2eq6j3HvDxjZ6rqPce8KkuEuAiPGNnquo9x7w8Y2eq6j3HvCpLhLgIjxjZ6rqPce8PGNnquo9x7wqS4S4CI8Y2eq6j3HvDxjZ6rqPce8KkuEuAiPGNnquo9x7w8Y2eq6j3HvCpLhLgIjxjZ6rqPce8PGNnquo9x7wqS4S4CI8Y2eq6j3HvDxjZ6rqPce8KkuEuAiPGNnquo9x7w8Y2eq6j3HvCpLhLgIjxjZ6rqPce8PGNnquo9x7wqS4S4CI8Y2eq6j3HvDxjZ6rqPce8KkuEuAiPGNnquo9x7w8Y2eq6j3HvCpLhLgIjxjZ6rqPce8PGNnquo9x7wqS4S4CI8Y2eq6j3HvDxjZ6rqPce8KkuEuAiPGNnquo9x7w8Y2eq6j3HvCpLhLgIjxjZ6rqPce8PGNnquo9x7wqS4S4CI8Y2eq6j3HvDxjZ6rqPce8KkuEuAiPGNnquo9x7w8Y2eq6j3HvCpLhLgIjxjZ6rqPce8PGNnquo9x7wqS4S4CI8Y2eq6j3HvDxjZ6rqPce8KkuEuAiPGNnquo9x7w8Y2eq6j3HvCpLhLgIjxjZ6rqPce8PGNnquo9x7wqS4S4CI8Y2eq6j3HvDxjZ6rqPce8KkuEuAiPGNnquo9x7w8Y2eq6j3HvCpLhLgIjxjZ6rqPce8PGNnquo9x7wqS4S4CI8Y2eq6j3HvDxjZ6rqPce8KkuEuAiPGNnquo9x7w8Y2eq6j3HvCpLhLgIjxjZ6rqPce8PGNnquo9x7wqS4S4CI8Y2eq6j3HvDxjZ6rqPce8KkuEuAiPGNnquo9x7w8Y2eq6j3HvCpLhLgIjxjZ6rqPce8PGNnquo9x7wqS4S4CI8Y2eq6j3HvDxjZ6rqPce8KkuEuAiPGNnquo9x7w8Y2eq6j3HvCpLhLisONtutqadQlaFkaVJUWSUR9JGXnISHjGz1XUe494h+WudWzu594VJcKdSNHrXpF0OXG0lTjZGTkaGtJbthzJ5UXyl0bJGXk/TwxcKp8XSfqlfYOeWudWzu5946Jr78iI8w3TZu04g0llrhkIjcuFgHFufkZv7a7+4cjCptS5s5Wy9T5qzXKccSptrKTSeMcc/QLLMdVjARHjGz1XUe494eMbPVdR7j3iVLVwlwER4xs9V1HuPeHjGz1XUe494VJcJcBEeMbPVdR7j3h4xs9V1HuPeFSXCXARHjGz1XUe494eMbPVdR7j3hUlwlwER4xs9V1HuPeHjGz1XUe494VJcJcBEeMbPVdR7j3h4xs9V1HuPeFSXCXARHjGz1XUe494eMbPVdR7j3hUlwlwER4xs9V1HuPeHjGz1XUe494VJcJcBEeMbPVdR7j3h4xs9V1HuPeFSXCXARHjGz1XUe494eMbPVdR7j3hUlwlwER4xs9V1HuPeHjGz1XUe494VJcJcBEeMbPVdR7j3h4xs9V1HuPeFSXCXARHjGz1XUe494eMbPVdR7j3hUlwlwER4xs9V1HuPeHjGz1XUe494VJcJcBEeMbPVdR7j3h4xs9V1HuPeFSXCXARHjGz1XUe494eMbPVdR7j3hUlwlwER4xs9V1HuPeHjGz1XUe494VJcJcBEeMbPVdR7j3h4xs9V1HuPeFSXCXARHjGz1XUe494eMbPVdR7j3hUlwlwER4xs9V1HuPeHjGz1XUe494VJcJcBEeMbPVdR7j3h4xs9V1HuPeFSXCXARHjGz1XUe494eMbPVdR7j3hUlwlwER4xs9V1HuPeHjGz1XUe494VJcJcBEeMbPVdR7j3h4xs9V1HuPeFSXCXARHjGz1XUe494eMbPVdR7j3hUlwlwER4xs9V1HuPeHjGz1XUe494VJcJcBEeMbPVdR7j3h4xs9V1HuPeFSXCXARHjGz1XUe494eMbPVdR7j3hUlwlwER4xs9V1HuPeHjGz1XUe494VJcJcBEeMbPVdR7j3h4xs9V1HuPeFSXCXARHjGz1XUe494eMbPVdR7j3hUlwVX42gfUv/a2ORiOzucalGdbhymkMtOkpTzeyWVGjGP6jGWLDIA1NnP6wMS2qbZAam4dAfb9JhZTbIDU2c9IH5uAWU2yAjbbtugSaBT5EijxHHHI6FLWpojNRmXSYkvFS2uo4XckFlAB4qW11HC7kg8VLa6jhdyQWUAHipbXUcLuSDxUtrqOF3JBZQAeKltdRwu5IPFS2uo4XckFlAB4qW11HC7kg8VLa6jhdyQWUAHipbXUcLuSDxUtrqOF3JBZQAeKltdRwu5IPFS2uo4XckFlAB4qW11HC7kg8VLa6jhdyQWUAHipbXUcLuSDxUtrqOF3JBZQAeKltdRwu5IPFS2uo4XckFlAB4qW11HC7kg8VLa6jhdyQWUAHipbXUcLuSDxUtrqOF3JBZQAeKltdRwu5IPFS2uo4XckFlAB4qW11HC7kg8VLa6jhdyQWUAHipbXUcLuSDxUtrqOF3JBZQAeKltdRwu5IPFS2uo4XckFlAB4qW11HC7kg8VLa6jhdyQWUAHipbXUcLuSDxUtrqOF3JBZQAeKltdRwu5IPFS2uo4XckFlAB4qW11HC7kg8VLa6jhdyQWUAHipbXUcLuSDxUtrqOF3JBZQAjbktugRqBUJEejxG3G461IWloiNJkXSQ1vj/uQWU20A1Nk84wHQfSFlNsgNTfSYF9IWU2yA1NxMw8+OkLKbZAamMuBB8phZTbIDU2OAYyFlNsgNTY4gX0/rCym2QGpi6AL7QsptkBqbOf1gYWU2yA1Nw6A+36TCym2QGps56QPzcAsptkBqXHHB9A5LJeYLKbZAam8wBZTbIDU3AD+gLKbZAamPgGAsptkBqYvoD5foCym2QFNtTHI3vrf3EJwLKSwCJHHnCykuAiRiVbhSpnD/ABdz/VMLKWEBrSZjm6nfUF/qpGD9oWU2yA1MGfMFlNsgNTFguPAcfqCym2gGpiLB5wGc+YLKbZAam/zmAWU2yA1MfR9P6gIshZTbIDU2OHQHRkvOFlNsgNTH8gdAWU2yA1NjpwH6gsptkBqbPAD+0LKbZAam6A6eInMU2yA1MeADmKbZAamP5S+0OkywHMU2yA1N08ccRxj/ALkHMU20A1Nk84wHQfSHMU2yA1N9JgX0ixlZTbIDU3EzDz46QsptkBqYy4EHymFlNsgNTY4BjIWU2yA1NjiBfT+sLKbZAamLoAvtCym2QGps5/WBhZTbIDU3DoD7fpMLKbZAamznpA/NwCym2QGpcccH0Dksl5gsptkBqbzAFlNsgNTcAP6AsptkBqY+AYCym2QGpi+gPl+gLKbZAam+wMF5z4BZTbIDUww5VZpMKowqPLqUZmdUd5yOMt0idkE2naXsJPirZLBnjoyWekLKblAaOpt3W1WKjIpNLq7MqVEccZeQ1lRIcbVsrQasbO0k8kZZyRkPmVelpwa01bkyvwmak84hlEdbpEo3FpNSEfISlJIzJPSZcSILKbzAaNg3ja1SrDlvwa5EeqSEOOHGJeHDQ2skOKSR/CJKlJSoyzgzIj6RM/aFlNsgNTBnzBZTbIDUxYLjwHH6gsptoBqYiwecBnPmCym2QGpv85iNi/H9Q/Z432uhZSSPhjhgA6SA8ZEV5dl/7pD4L51RqkUGvVyuvvGokqh0h1tHkpNR5N/dn0EfQRjVVx/7rlpxESorU0luKqLLo5dNYhJP+dBOn/mHhKwaro6q7IBR7EvJDn43Cl3ZFUkvxSvMVOL7RX+dtF/8gL1//m+J/wD20B/QIHT5zA8/5gP5SAbZtT/Bqmfsrf2CWETan+DVM/ZW/sEk++xFYckyXkNMtINbji1ElKEkWTMzPgREXnAavqGrt31y5KzbukGnMa6UW5J5DVanUq4VLgomEklLjMrSy+486glJ28NkhJq2dvaJSU2LTjUdu/G6rAn2/Ot64LelFCq9ImqQtbC1IJbbjbiDNLrLiD2kOJ6cGRklSVJLSOjeskWxYl0RpNh3rUrJqd0Var2tdNIt5+oMVViU+clwjbjE4+kifeeQ28tBNutpQpKsdGzNIqfclcu+79X7itqZbiLoYplNpdKnGkpiIMIpCkPyEJMyadcclvHu8maUJb2sK2kpDagAPKGmFoW9VtXb9rdQ8Hlm5JkfUOVu7rWdOzA2UMGng66l/wDFn5XkIPp4ZMMf5ZcvsvziPusxWPN7a8pn7PV4DRtu6vXQzeVwxtQ6xFoKKS5VHY1uO0B5p+bAjEtTcmNOU9upJm0knFJQjKdoyMk42jyKbemrK9IqnrTVK9b6Y8m1pNfp1DYpSz5Io45vMJclG/8AjtlOCXhtBKMzxs4GZyqOaelX87r6T9yMZnLljxr6fmG4pE+DEfjRZU1hl6Ys2ozbjhJU8skmo0oIzyoySlSsF5iM/MEKfBqcflVOmsSmNtbe8YcJxG2hRoWnJHjKVJUky8xkZHxIaWt67dQ3X9KJ9+KtqdKvOoOvpRFpakKpbJ0h98m23VurNTm0jCnCJGUqUnZ850qzrm1VsHRqq6j06q254vUC464+7R3oDq5EyGVZkk+opJOpJp3yl7CSbWR7KSM/KPZ5csJwy5Z6uOM+aIyjp/v+HqYB5ku/wk7vRct4JtBmStmzaodLaojdl1SoO1pxpKFPly5gtxGNRrNDZGSsbJLXwURFuvVK7zs6y36uxWotKmPvR4kJ2TTnp+0+64lKW0RmTJx5wyMyShJllWMmREZjH+WMvH79Pm5JisuWfXj8lwAebKR4QeoLdDr9HqlNQdyNXJR7fo8ip0ddNI+cSQaHpEXfOKSTf41WztpNZJQXkbWSzbn1N1j06uK7LduCuW3XEUrTyoXZT5cekOQ1HLYcJBIdbN9wjQXTwURnnHDGTl/fyx5pj5EYzPr219XoYYNMrdIrKpiaTUo8s6fJXClblZK3L6CI1Nqx0KLJZLzZFH8fq74z6cUjYi7i66ROnTz3Z7ROMsR1o2Dz5JZdVkjz5hkaEVty5NGrTud+BBhSKxS26lIZhM7pkn3suOKSnJ42lqUo8mZmZmZmLn/4c5Rl/l6+vhLOM8+MZR3r8A8421qvrYWmVi6y3NUrTfplxSqTGqFFi055t1DM59uOl5qSbp5cJbqFm2beNk1JIz2dtS5NfLyo9/QCos1quW1Juti3JJMWvJZixickcnURVJx4kPPoc6SbaUjJKTwwZi1vy+2vjt+Yayicbme7+/4l6OAaGt7VLUadC1CvK4rmtmi25a1aqlBp6FUeRJecdaeShh5w23dpWDUSNyhBqcUZYUnJEJDRHVW9Lrvm5rFvONJWdKp0GqQpcm310Z51t9x9taVR3HnVbJGwRpUeyZ7SiNPAjNEXUeMX5X9N2Znlv2TXnX12bhbnwXpr1OamsLlxkIceYS4RuNIXtbClJzlJK2FYM+nZPHQYyBop6FqJUfCGv2NYtwUaiJK26At+XPpy5yjXvKgTaEtJdaIknlRqUa88CIi4mZZmmust0XpcVk0qpw6dHKtUCuSaomOSlJKdT5zEQzZWZ/klKU6oiMjPBp48DzO+I8fxM/Y8fZ/b8t0gPPM/WjUZ216fWmzYplPcuav0qqVxmgP1Rumx4ct1mLtxmnErIlk35T2TSk08SIlEabKxfF+XtdMWyLBu+2m26dbkGuVO4jpqpbU9UtTqGCix0vpJDZ8ndWajcXgjQks8VBv691/RZmuvrevq3CA88a460X5p4irOWpWGKxKtSktzarBi2jJktb0mzdUciXyhDURC0ERpQRuOJJRKMlEac22lXnqTd2r9QtyhzaLTbWotNo9VlKkwlyJcnlZPmqOgydQlvg1neGSsYIiSraMysRfT16qf99kmamp9erj/AGbaAAEUAAAAAAAAAAAAAAAAAAAAAAARN1/4NVP9lc+wam+jJcRtm6/8Gqn+yufYNTH0YAC4ENeUPWmjT6LT5tatO9qXUJEVp2XA8T6w/wAleUgjWzvExNleyozTtFwPGS6RsPp4Dz9pZZ3g+x9MbQjXDpvaiaq1QaeicmVbDZvlIKOgnCcNTOdvaI8545yA2jA1CdqVFrdwNWxU48SmzkRYRT4r8J2c0bTClPE0+0hxsicdcbwaTzuTUR4UWLhj5BoF6yrbqeneqVvW8zULat+oXJEdguW8aqStKEwqWa1R1ISWwRvNuJUaSwf4wj6TG/uHQAEfD7QIOngXnHPEvOA4IxSZt032zMfai2cpxlDiktr2VHtJI+B9PnF2/UQpd/alQ7ETH5TCdkKkqUlKWzIsYxkzz+sh8X+rse2OJ1OF4LsTLKNbUyyiIx5byrG/8220RM9z1uzdfgOE09Xiu0Yj9vCIuZuoua7vbstFCeqU6mtSqvCTCkrztMkrawXmP6P1DOUjGT2yGmP7o2ndQyu2n7xsOy7wjXnSGqtGYcZS4akmhfSRpMyPo/UOny/rXsLPhv8AjWhy6WeeGnzTyTMzP/4z1mImbpjR479P9rTq49nasZZxjOVRzbRHvjpcx3rDx6ByX2h9BEGP5x+gPMDGtdSdcKRYbLjNJtmv3XU0GtBRaRAddbbcSeDS68STQgyMsGRbSi+aNlD82b+1TvzTDX69qlZdxSIJnXpSnWM7bD/4w+C21eSrhwzjJeYyAXG69fvCzr9fj1ek2nX6FEiOGtmBEoby2ll8jprQZucOHHBeciI+I3fpV4Tly1kmaVqnpVctFmGZI5xiUeS5EV9K0bJrb/8AqLz8CEBpd4cdtXHGTSNQYLNAq6kGhqaRqVT3XMeTt4I1skZ8D4KIunJDQuv2teuFcrD9u3XWEU2luINceNRnDTCmMKMyJ1LqTM30Kx51GXSWCPJAP0YhTYlShs1CBJRIjvoJxp1tRGlaT6DI/kHf/OKBoFw0TsjJ/wDoOJ/1ZC/4AB9tNm6skbZILBmpSjwlJFxMzPoIiLiY+Dz/AJhXdTCnHpjeHNe1yvmaRu9j4Wzgt5j/AJPbHPw2j/iNfDRuuaYi/C5p1+M1/wDC8Pqa8RfLjM141F01Dffhb0yk1Nyl2Dbkeqsx1qQuoz3FpbfMjxlptBpMk/IalZP5CFs0r17h35KgUO57aet2q1Ta5skFtnCqBl/EbUsspX5i4qIz4ZIzIho7T/TDTNrldb1Wu+oxadSqfEqD8WDAP++TkpJTLLbxme0oyPiWyXQrB4SZlmas6l2NqXddHq2nlDuSFW0Pw4kJmTJb5NFQ0ZJbSw2jJkpRkgz44IyPpM8l+o636e7L1sf8Hw2jltG+pvtNXHWom+s1tEdN5h+L8P8Aqntrh8v8fxfEY7zFaW2+N1O0XONVUXNzO87RN+ucYPiQH0/IMmp7POMgyx+VV0dHT5hjF/PxH5O/cDgOqVKYgRnpkt1LTLCFOOLUeCSkiyZn+odv0GKZrJyotMbhOHt7zkuT2enY207f82ztZ+gTKaiZcHFa08NoZ60RfLEzXjUW0feGt923vUjp9nvSoUNbu7jsxSPlD59BbRl5WT+aXy+fGRgxLg10sypNSH2bhJSuO4nsOuNup+TZWX09JYMQulZSCj3KVCUs627EaOKlr8tuSWfKN1jjtbOxnHHYJf0jaugibgU9VOXJfOjGwe73xHscqJxONjP8bZ29rHm6fMOhxH6d4rL9O8X+pf8AFxjloXMYT3xG9Xe0z0xipuX1fYn/APJ/Y/G/4Ps3guzscsNXHGM5neYznbKOlzyz3zMTVTHc2rYt1OXfQGanKpj9OmF5EiM8g0mhZecs9KT6SP8AeQsJlwEZTSTyxwklg92nOOjGTxn/AD/5xJl8ueA6P6Z7V1O2+ytLjtXGssrv4TMX8at5va/D6fDcbqaejFY3tHWonevh0Wi1P4G99b+4hNdHHzCEtX+BvfW/uIZ1bKQdFn8kzvziu7rHTt7B4/zj38Y5piHmZTyxMtF6iapVm4awug21NOJAQ7uScQ6TRvqzjJrMy2U56OJF5z+ipyrXvOirfnuEbb8VJOvmxPacebSePLUlCzWRcS4mWOJCuoQtxZNtoUpajwSSLJmfyDbVzNxjn3A1R6S+3Xzp7KFG84aykRVMoJ42UEksLSWMkZq8naMsGQ/RI08OAjHR0cYqt9vbEXO/t9vyfBTnnx05a2rM3e3ymajb2exJ6QapT6nNbtW45BvuuJPkklXwlGRGZoWfnPHQf0YG2Kt8VTP2dz/VMeUrNTITd9GSwSidKeyRFjiXlln949W1b4qmfs7n+qY+Y7f4XT4bXjLSioyi6fR9hcTqcRoTjqTfLPVVZnGnU7J/yJf6qRgebiQzpnxdTs/mS/1UjC/n4DwXtpq17b8YJDjklxbcJg9lZpPCnF9OyR+YsdJ9PEsfRF3tqJCsONcLsjStC41HSyUSS6kiRLNa0o+GaDx8LPAzPgfQILVmv0239GUS59KrlQSqqbpTNIIt7tqWvZNeSMtjGyXR0mka7oE3Ty4Jt8aYbm7eU06LHdlbZtEW0h1vaJKSLgaVqIjNRdG10Ds5avA8LwOrxHEZ1lETtU7VvdxPhe1S6PaHYv6q4/T/AHux+H/8GIymdTnw6xFVOGUTNRllhvt18IlvwqVBua0oF60CEqEqdDbmLhEraTsqRtGSfkUWfNgjx0cRXSUSiJRKIyMs5GBpPTaGm+OdKc5cCOTUluA0xJdSqOhptCElnBFxPZz8mTMZ6dg8m0f4vaVu/wDi5PH+YeP2d2lw3auh/iOEy5sbq943j3xDtaWhxvD4xp9oafJqR7Ym/bttF+HcdI5PowfmD6Q4cR33I5z5xx5uIZz9oYx8uAADPPAwPAcflAP1mHSOfoyODz8nAAL5cB0EGD8xh/OADjpHIceAAXT8gfqMAEsCLiH0EH0/KGPpE6B0GBcPlD6CD7flED9YZ49AdBh0gHm6Q+jJcQA+jAAXAg/mDp4Djh5gHPSYY+QU69pV5VKbHs2zGX6eqa0bs+vrbI26fHzsmlklcHJKsHskZGlBeWvPkoXDU616zpRUIybRbqVbtWe6hqdTnpK5MuA+s0p5Yy46o1LbUeVPNmZnkzcTx2kq1A2UR8PtAg6eBecc8S84oj65XqLbNKkVy4qtEplOiJJT8qW8lppsjMiLKlGRFkzIi+UzIQtpao6eX3Keg2jeFNqcqO3vXYzLxb5LecEvdnhWxn+NjH0jSEey7p1t1Eup6uR3pqrdr70CLClPKRDpjLX8HcJkz2TccbUT282TWe9LBkkiIr+x4MkKlN+OUJ25mKvayzkpqtNW0k0bTJKcbYjuNKOW2aFklaTNO0ojJPlJIy5NPSy1ZrD183HqamOlF5Ns+fIefpIYdHXPcpEJ6qGk5bkdtx4yYUxlRpIzPdrM1N9PwFGZp6DM8DL/AFjExMTUtxMTFwiY910GXV5NAjz9ufElHCea3Sy2XijtSDTtGWyf4p9pWSPHlYzkjIpcvtHhjwpLMvCheMVv6aaQRbmuBciRWmKzR6UTtV2K0mpsqakmSDPds/3zhe0e1iMjYLClDzNoJoh4Tf4arJ/CDpDcvi1z5E515xoBcl5LvC3m92m8bGznOeGBFfsAYcfl/UKD4P6qgvQrTxVVQwiV4r0veJYMzR/BW8Yzx6Mfzi/fuAD4Y4YEJWb1tK35rVLrNxQIs55G9biLeLfrRnG0TZeUac8M4wMK+qvV2G6fbtuvpjVOuPKZTMUSTKDGQnafk7KiMlGlOEpIyMt443teTkazplQ5HDbO0ZVTpjVdSUmmM0WIxOrtaaThPOEqRLJTKELI07Ju44GnKyUrdpDen68h/OB/SGAELeV6Wvp7bU277yrLFLpFOb3siS7tGSS8xElJGpajPgSUkajPgRGYmunzmPN2rvixjVrx353545tqPipzly7m7c8wM7fI9v8AvPfbzledj8dje/xci13V+FH8Jbvi7z94kcvhc97vHKt/st45Bt8eSY3fKNnj8Pd+VvAG5cjkiPp4ARY8446AHJfKYh7rvC2LIpK67dtciUqEg9jeyFkW2vBmSEJ6VrMiPCEkajxwIx23PcMG0reqFy1Fp9yNTY65DjcdvbdcJJZ2UJ86jPBEXymQ0JqvVa5eF0W3Cm0CVSqpSFFKiUx6U3JaenSVJTAS+TRcVJWy88skLMksRnto9lzIDdtg3xRtRrWi3dQWZjMOU4+0TcxndPNuMurZcQtGT2TJbaiMs9JfLwFh4kY1vpFbN/WtIq9MuVxpFvtsQm6PHXKbkSCfSlzlj7i0NN/llm25gzWe2p08kRpSWyPpLgAdJgXA+AYPpyNMQLZbqmvl11lywbVqiYK6WfPFQeIqhAMo2S5Onky84Pj+Vb45/WA3OBlwHlK56PCsGw7ztOsW/bVTqdXsauTKVeNNS3y6qw22U7w52S294ZutHvErW24ZGeGz2UnuDSbT9y1a1Va/BoNNtqj1OnU+OxRadsE1v2t6pyWpKEpQlxZOto4FkyZI1GfAiDZof5yDp84F8oDj6RQbrtSlr1Tsq741vR1VJL8qNKqSIpG8mNyN/YbW7jJI21cCM8bR/KL/AIABpeJCcod1vW7aUyt3PQq07W5VdocyCwmPHU7tuGTb6mWjJTj692lDrqyNLijLCUGolUmM3ZcVO0/lUnxVt23JVKmSGXI6jfmzGSZkR4rJoI2kstKJoluktW0pBtpwSTUe6A+gwGrlTJNY1joE2DMfqsOLFqbLzSqc4wml7RNYWbppIlKUpsmyQriZKNSeCDG0PNxIc9HSH8/AA8/DIARZ/eGcEAqWrV+npdplc+o3NXOfi3S5FS5Hv9xyjdINWxvNlWxnGM7J4+Qx43o3+6Yan3JTWa1b3gY3RVKfI2tzLhVaQ+y5sqNKtlaKeaTwpJkeD4GRl5h6c8LP/wA2XU//AOV6h/1Kh+MlnVTT9NGg0+rWlbVQqalKQpcqPWFyHVKcPYI+TzG2zPBpItlBcMZyeTMP0Zsj/dGbquPVe09LLt8Gaq2jIuqox4Tb1RrTiFtodc2N6TTkNBuER56DLJkZZHts+jB+Yfkzo1ofR7W1RsXUS9a7ZmnU6mz4s9mjsyH1NrNDhK2nlzJalEZfBMkHsljpzkfqRb9zt1ZEYnVRHUzWd/DmQnieiy0YztNrLz4wrHHgfA1YMyCfz5xGRfj6o54/3vG+10SWc/aI2L8f1Dp/g8b7XQEl0nnIFxLgH0B9HmAeXJf+5veDBzm3V6BQa3Qn2TWaEw6u64jykmk8k/vD6DPzkNVXH/uRmnUslHamrlw0tR9HL4DM1JfzINo/8498ZxwAzLp4GAHnzAZkGDAs+YBtm1P8GqZ+yt/YIDUnTZGpyKZRK3XZDNrsvKfrFHYb2SrJFs7ph53OSjke0bjRF+N8lKjJJKSvNtu5KBGoFPjyKxEbcbjoStCnSI0mRdBiS8a7a68hd8QCSYYYisNxozKGmWkEhttCSSlCSLBERFwIiLzDsET412115C74g8a7a68hd8QCWGqWfB6pcG7qldtF1Kv+k87VY61MpkKrNtwXZB7O1lvdGeyokJIy2uJecbA8a7a68hd8QeNdtdeQu+II2myd4pVYGjFAYu9N41e47mr70Z6TIp8KrVHlEOnLfQtDhst7JdLbi0FtmrZSoyTgjEfSvB8tSj06rW/Eue7VUCpUyTSWaK7V1OQafHfTsrTHbUkzThPBG2ayQXBJEXAXrxrtrryF3xB412115C74hKidvgsTMTcI09O6Aa7PWa5ebIUaqZ+MLiZxFxfxnDyvxbiujHHB/QKXC8GWxIUpJFXbrepKqo7WpFCcq6jpsmYuSqTvHGSIskTiiPYIyQewk1JUeTPY3jXbXXkLviDxrtrryF3xDU5TOXNPVmMYiOWOioVXQ+3Z93SruptzXXQl1J9qTVIFIqyosOovIJKSceQRZJRpQlKlNqQaiSRKyLBqBYFD1IoKaDXHp0bcSmZ0OZAkGxKhymlbTbzThEeyojz0kZGRmRkZGZDP8a7a68hd8QeNdtdeQu+ITuiPBq5u1FjeDvYbVHuGkzZtfqTlzOxJU6fMqa1zeVRiLcyW3iwpt1JkkyMuCdlJJIklsit0TQd6kaxyKrU3azc9vVWyZNDqVSrtSTKekOrlIMo5pyk0o3RK+AhKeJmZ7RmZ7e8a7a68hd8QeNdtdeQu+IO+/f5xMfSSJqKj1vE/WFHszwfrSsuuUe4Y9w3TVpdAiyIFM52qhyUxYjqUJNhBGksJIm04P4R4LaUrCcXKzLQpVhWfSbJoSn1U+iw24MY31kpw20JwnaURERnjz4Id3jXbXXkLviDxrtrryF3xCZRzxMT3+vukbdGmNE/Bsg25ZdiqveZcap1vRI0pVuyazyilw6mhHF5LaTNKlJUalJLbU2lR7SUkZEZWR7warGfqyaguuXTyJiuN3HDpHOpnT4c5MjlCnGmjSeCW5tGojMyLeL2dnI2H412115C74g8a7a68hd8Q1M3N+vW0fKCf5Xfr1c/OVad0Ys1+0rjsx46gcG56rIrUpxMnYeZmOupeJxlaSI0GhxCFoPjg0l0jiw9HaBYVx1G7o1euKs1mrQY8CbNrFQ5S462ytxbZ/BIkmW9UWEkScEXDOTOzeNdtdeQu+IPGu2uvIXfEJE1Nx7vKvpskxe0+/wA7+qm3doXb113ZNvdq67toFYqMONTpMiiVU4u8jMm6aWzLZMjIzeUZq+EWC2TT5WeaxoNZU6mWzTqHMrdsLtFhyHS5lEnqYktxnCSTrC3FEreIWaEKVtZUakkrJHxFx8a7a68hd8QeNdtdeQu+IF9qjR9ALepVswbTte870t6FBmzppKplYNDr5y3jedQ6tSVGsttR7Kj8suPlZMzPmpeD1YzseitWxULhtF+g01FGiy6BU1x31wE8Ux3VKJROpI8qI1Ea0mZmSiMzzePGu2uvIXfEHjXbXXkLviD19vp9Z8SJr18fq15dvg12PeDlVRMr92QoVep7cCrQIVZcbj1Dds7lt54jI1LdJskJNRqwokJ2yVgXigWNRbcr1SuKnrknKqsKDBfJxwjQTcRLhNbJERYPDqsnnjw6Bl+NdtdeQu+IPGu2uvIXfELcxceKVEzE+Hr7JYBE+NdtdeQu+IPGu2uvIXfEIqWARPjXbXXkLviDxrtrryF3xAJYBE+NdtdeQu+IPGu2uvIXfEAlgET412115C74g8a7a68hd8QCWARPjXbXXkLviDxrtrryF3xAJYBE+NdtdeQu+IPGu2uvIXfEAlgET412115C74g8a7a68hd8QCWARPjXbXXkLviDxrtrryF3xAF1/wCDVT/ZXPsGpjMbHuS5KBJoFQjx6xEcccjrShCXSM1GZdBDXGcdBAH0eYU6h6U2nR6LApDzMqouQYrUZcyVKdU/JUhBJNxw9rBrVjaM/lMxccYABV42n9Mh0ytUhidOKHWJiJhNLd2yi7LTKN21tZwgzY2zI/4ziz84tGQ/UBfTgAxnjkC/qMBx0AOeBDWequmVevZ+nPUeoxGuTOrU4l8lJ4Hs4wZEeeg/kGzOJAQzp6eGnxejx0R/4mlMzjO+3NjOM7XU3Ez1vx6uPiNOOJ4bPhM/6M6uPGpiY84VG5bIfq9szaRBkx0SX46221rZwW0ZYLJkZmRDp0wsqp2XbzNNq01h59C3FKJkjNPlKMy4ng+g/kF08/EOPQZDyuD7B7O4Dg44HQ06041MdWubOf54xMRNzlM7RPTp4w7WtxOtxHFf4zUyvPknDpH9MzEzFRHjHXqARh5uA4HruFz0cSHjfUvwJ7+vbUC4bugXZb7EasVF+Y008b22hK1GZErCDLPHzGPZHSB9GQHhL/8AN/6lf5aWz/XI/wBmO5XgF6quQ24C79t9UZpanG2lOSDQhR42jIt3gjPBZx04L5B7n+gPo8wCtaaWxLsnT63rRnyGX5NHpzEN11nOwtSEERmnJEeP1kLL9BhnHADMungYAefMPpt02lk4lKVcDI0qLKVEfAyMj6SMuBkPnBgWfMHQ6tH6g+DD4xOtt2ZfDtMpSVqdRRqip12NFWozM9wac4TxPgacl8piW0k8HSgaa1Ju6KzVk12uxlGqHu2TbixVYxvCJXlOLLzGZERHxwZkRjbRY83EOniPf1P1P2nqcNPCZan8Z2naLmPbPX398975jS/R3Y2lxkcdjo/zibjeZiJ9kXW3dHSO6DPHPSZh5+IfRkMF/wBzHgPpz9Q6pUaPOjOw5bSXWXkKbcbUWSUkywZH+ssjBuG5aLasAqnXpvJYpuE0S92tzyjIzIsIIz8x+YVv8NemWf8ACYvUpH+zHY0uD4jXx5tLTyyj2RMvK4ztzsrgNT9jjOJ09PKumWeOM1PsmYmmhL+0FvezqwdUspmVUYBOG5GciKPlMfzkRkXE8eZSc9HHA3BpLb10U6326hdsuqT63USJbnLXXFqjtfxW8r+Dw4n9J444ITX4a9Mv8pf+hyPYD8NemX+Uv/QpH+zHids/o7W7b0Y4bVx1MdO4nKMYn+Vd11O17vneweO/S36d7Ry7R4TjNK5iYjGdXCccZnrMRzda2i7q5XCDFOM2e2olOOcVmXR+ovoL/v0jI8+cCj/hr0y89zf9Dkf7MZ1F1QsW4qozR6NXOUTJG1u2+SvI2tlJqPipBEWCIz6fMPW4fsbV7P4fHR0tHLHTwio/jNREeur6CP1V2PxuvEY8bpZZ5zURGphMzM9IiIneZnaIhtK1f4G99b+4hNHgywNcuap2JYhlTrrrvIZEj8c2jkrzu0jozltCiLiR9Jj5/ui9G/8ALH/7fK/2Q58OB4rUxjPDTymJ74ifwnEfqLsfhNWdDiOL0sM46xlqYxMe+Jm4UjUXSqt0OruV61Izz8Nx3fJTHzvYy854EXHGegy6BRSm3bUKq04mVVZFSY8htW24p5HTwL+MXSf9Y3j/AHRejf8Alj/9vlf7IP7ovRv/ACx/+3yv9kPpOH7Q7Q0tOMNXhsspiKup89pfNa/G/p3UznLT7Q0sYnev3MPL+SJ0k0vqNOnldt0NKbkllUaO4eVpUrJG4v6cGeC6eOTG1Kt8VzP2dz/VMUH+6L0b/wAsf/t8r/ZDHqPhD6Ou06U0i79pS2VpSXN8riZpP/gh4/GaPaHG6s6uppZf+2do+T1eE/UH6d4PT/a0+N0f/wBuG8/+5OTPi+nfUF/qpGCQ6oNx0a4aZBdo0zlCW46DUe7WjBKSWz8Ii6cGKrUtWtPqRPkUyoXBuZMVxTTrfJH1bKyPBlkkGR/zGOhhwuvqZThhhMzHWIibetr9s9m8No48Rr8RhjhltGU54xjPumZqfg2DQa65Q3nCWhTkV4yNxKeKkK6Noi8/DpL6Cx9NFpOj9v0jUW8tRIWo6WJF1JLdMbJNKimbiXF5Vtka8mgiIsJwRn0jA/DXpj/lL/0OR/sxx+GvTLo8Zf8AoUj2BOI7G4jitLLR1dHOccomJ2yjadusbx8G+B/X3ZnZsamPDdoaOMakVl/4mnNxExlW8z3xH06Nr1C5N1Sm6LT5jspxLKWnpiiMsljBmR+dR/KXAs9ORAJIkkRJIiIuAo/4a9Mv8pf+hyP9mH4a9Mf8pv8AoUj/AGY5MOy+L08Ywx0cqjb+nJ0Mv1Z2FlNzx2j/APsw/wC5ePNxDp4mMKiVumXHTGKxRpPKIcja3bmwpG1sqNJ8FERlxSZcS8wzejzjr5Y5YZTjlFTD2tLV09fTx1dLKMscoiYmJuJid4mJjaYmOknTw8wfQBcOkOjj+8Zchx+UD4dAebHnAzIwAPpDpMPvADAwAgDh0Z4gH0gfygHmwf8AOH0Dj+Yc8RADzcTDHEMZCQPhx/qDzkB8ekCPpMZHJfKOMkX6g/UHnyYAX6gMwx5zDOOggD6PMHH5QxgBQ4dIZD9QF9OBoMZ45Av6jAcdACDqdi2hV6uVwVCgRV1MmSjnNSk23zaIzMkG4nCjSRmeCM8Fk/lGfEodOgRapT6a9Pp8KuuqfqsOK62lqa4osOKWpbanEmtOEq3a0cCLGyfEZ3EgIculramjfJNX6/2cepo4atc8XT7ccN5xTpoSk1HnZQnCS+gi8xD44ecPPxDj0GQ4nIhLgsey7t/wqtCiVnGxjnCntSMbG3sfDSfwd45j5NtWOkxCFohot/7IbJ/5gif7MXbzcBwA64sWLAisw4EZqPHjtpZZZaQSENoSWEpSkuCSIiIiIugh2/rDpA+jICv3NZVKut5b9QkzGVqpM+jEqO6SDSzM3W9WWSPDhbhGyrzZVwPPDBuHS+3ripVVpfK6rSyq8aFEck0qaqJIZYirNbTbTqMKQkjNWSI+JLUXQZi3fQH0eYAzwD6DDOOAGZdPAwELedl2vqDbc60LyorFUpFRb3UiM7tESi8xkpJkpKiPiSkmSiPiRkYmjMgwYFnzAHR0B5uHSBY83EOniAwK9Q6ZctFnW9WY5vwaiwuNIbJakGpCiweFJMlJPjwMjIyPiRivW1pfQ7fqjFelVOsVyrRmCjtTqrL3riUltkStlBJb29hw295sbZoIiNR8c3D6Mhgv+5gH6g6f5vMAefzYAMeYxA1CwbFq1caueq2XQZtYYNBs1GRTWXJLZo+AaXVJNZbPmwfDzCdDzZAV+kaeaf2/HnQ6DYtvU2PVG91Oah0xhlEpGDLZdJCSJZYUrgrJeUfyiwJSlBElCSJJFgiIuBEOc56QPpAc444FK1kVczWmlwzbRuXmKfCp0mUUxMVL7iUoZWrDZLPZSrJJwoyURYPyTzwunEYlVpcGt0uZRamxvodQjuRZDW0adtpaTSpOSMjLJGZZIyMBpuqTbgu+sIt926KtSY1HsSNXm34MtbDj1QfU4lLzikmW9S0Ucz3SstqN09tKsJxK2hd11ajrtFbEk6dIZtRiv1ZxKVbnl0xjYjNKbJRbxCf74dUg1FxSzxLOSuFd0vsi40QmqrSXVFT4pwWjYnSI6lRTIiVHdNpaTeZPZLLbhqQeOJGM62bUh2w7VpEd9156rzTmPKcJJEgibQ000gkkRJQhttCSL6DM8mZmA13aN43Tb2mV3Ve4K4q4a1TLgqVOguyG0sJkPnJ3MVgkI4ISbi20ERZPB8TM8meNV6fWaPXrUt2gXrcdbvWO7TTqBcucVBYpqTxLelM53Jb1JPbs1kbpuGkmz2Wz2dgPab24uVAdYadYZh1p64FxycNSJM5xKy3i9rJ4JThrJJYIlJSZFwHUvSy0F3NOu9vnyNU6jIZlSziXFUY7D7jTaG0Gtht9LSsIbQkyNGDIuJHk8hreg1a5ucLMu5y5au7LvO4atSp8ZclSoseIlqatgmo55aaWzyRotsk7SsubZq2uEa9X69TqbXpNiXRX51qVCTQaLErE+W7Jdcmyp5R5sqI67n8WTLrWFILc7wstkRErO2FaSWCuRUpJ0d8+dW5Tb7POMrcI5Sk0vqZZ3m7jrcJStpbSUKM1KMzyozPqpuj1i0qjP26xHrT1LfiIhcjm3DUJbTTSDI0bpLz6iZUk0pNK29lSdksGWAHRpxyyl3Dd9nqqdQn06jTYyoC6hKclPsofjocWybzpqccIl7SiNalKIlknOCSRXzoIRNt2tQ7TiOw6LHfSUl45Eh2TLelSH3MEnbceeUpxwySlKSNSjwlKSLgREJb6AGPUadT6xBkUurQI82HKbNp+PIaS606g+BpUhRGSiPoMjLA89axeBtozddxWtqLSrahW3ULWqLD0hFJiNx2ZsXeFtJdQkiSRoztk4RZ4GR5Iy2fRv8xD4eaZfaWxIbS424k0LQoskpJlgyMvOQDz74SNsWeiyaVZlPtGkc8XpVYlqQJZwGnHobT6jOQ8hakmZKRHQ8ojzwVsmfnG1F0anUGk2/b1Ahois06TDjU9hrgTTLWCUlPyETCXC/VkvOJPmCrxEpj0ettNsJzsomRTkGgvMlKkuIPBdBbWT6OIy6fReSyTqM6WqXM2N2lZp2G20n0khGT2c+czMzPBFnBEAk+nh5hGxfj+oF/7vG+10SRcOkRsXhX6gf8A7vG+10B//9k=;" vertex="1" parent="1">
          <mxGeometry x="-180" y="20" width="1280" height="720" as="geometry" />
        </mxCell>
        <mxCell id="8LvbPipiS-1qL5X_mn82-2" value="" style="rounded=0;whiteSpace=wrap;html=1;fillColor=none;strokeColor=#b85450;strokeWidth=5;" vertex="1" parent="1">
          <mxGeometry x="-180" y="100" width="750" height="320" as="geometry" />
        </mxCell>
        <mxCell id="8LvbPipiS-1qL5X_mn82-3" value="" style="rounded=0;whiteSpace=wrap;html=1;fillColor=none;strokeColor=#82b366;strokeWidth=5;" vertex="1" parent="1">
          <mxGeometry x="-180" y="430" width="750" height="260" as="geometry" />
        </mxCell>
        <mxCell id="8LvbPipiS-1qL5X_mn82-4" value="" style="rounded=0;whiteSpace=wrap;html=1;fillColor=none;strokeColor=#6c8ebf;strokeWidth=5;" vertex="1" parent="1">
          <mxGeometry x="580" y="100" width="510" height="210" as="geometry" />
        </mxCell>
        <mxCell id="8LvbPipiS-1qL5X_mn82-5" value="" style="rounded=0;whiteSpace=wrap;html=1;fillColor=none;strokeColor=#d6b656;strokeWidth=5;" vertex="1" parent="1">
          <mxGeometry x="580" y="320" width="510" height="370" as="geometry" />
        </mxCell>
      </root>
    </mxGraphModel>
  </diagram>
</mxfile>
